<svg xmlns="http://www.w3.org/2000/svg" width="515.396" height="464.689" viewBox="0 0 515.396 464.689">
  <g id="Grupo_1" data-name="Grupo 1" transform="translate(-1551.856 -959.311)">
    <g id="Polígono_3" data-name="Polígono 3" transform="translate(1867.173 961.434) rotate(31)" fill="none">
      <path d="M175.064,0l58.355,96.9-58.355,96.9H58.355L0,96.9,58.355,0Z" stroke="none"/>
      <path d="M 60.61531066894531 4 L 4.669265747070312 96.90413665771484 L 60.61531066894531 189.8082733154297 L 172.8038177490234 189.8082733154297 L 228.7498626708984 96.90413665771484 L 172.8038177490234 4 L 60.61531066894531 4 M 58.35478210449219 0 L 175.0643463134766 0 L 233.4191436767578 96.90413665771484 L 175.0643463134766 193.8082733154297 L 58.35478210449219 193.8082733154297 L -1.52587890625e-05 96.90413665771484 L 58.35478210449219 0 Z" stroke="none" fill="#89cddf"/>
    </g>
    <g id="Polígono_4" data-name="Polígono 4" transform="translate(1765.263 1137.654) rotate(31)" fill="none">
      <path d="M175.064,0l58.355,96.9-58.355,96.9H58.355L0,96.9,58.355,0Z" stroke="none"/>
      <path d="M 60.61531066894531 4 L 4.669265747070312 96.90413665771484 L 60.61531066894531 189.8082733154297 L 172.8038177490234 189.8082733154297 L 228.7498626708984 96.90413665771484 L 172.8038177490234 4 L 60.61531066894531 4 M 58.35478210449219 0 L 175.0643463134766 0 L 233.4191436767578 96.90413665771484 L 175.0643463134766 193.8082733154297 L 58.35478210449219 193.8082733154297 L -1.52587890625e-05 96.90413665771484 L 58.35478210449219 0 Z" stroke="none" fill="#89cddf"/>
    </g>
    <g id="Polígono_5" data-name="Polígono 5" transform="translate(1651.675 959.311) rotate(31)" fill="none">
      <path d="M175.064,0l58.355,96.9-58.355,96.9H58.355L0,96.9,58.355,0Z" stroke="none"/>
      <path d="M 60.61531066894531 4 L 4.669265747070312 96.90413665771484 L 60.61531066894531 189.8082733154297 L 172.8038177490234 189.8082733154297 L 228.7498626708984 96.90413665771484 L 172.8038177490234 4 L 60.61531066894531 4 M 58.35478210449219 0 L 175.0643463134766 0 L 233.4191436767578 96.90413665771484 L 175.0643463134766 193.8082733154297 L 58.35478210449219 193.8082733154297 L -1.52587890625e-05 96.90413665771484 L 58.35478210449219 0 Z" stroke="none" fill="#89cddf"/>
    </g>
  </g>
</svg>
