<svg xmlns="http://www.w3.org/2000/svg" width="506.698" height="457.184" viewBox="0 0 506.698 457.184">
  <g id="Grupo_39" data-name="Grupo 39" transform="translate(844.448 -1877.202)">
    <g id="Grupo_38" data-name="Grupo 38" transform="translate(-844.448 1877.202)">
      <path id="Trazado_650" data-name="Trazado 650" d="M217.359,457.184c-23.293,0-45.657-5.462-64.634-16.6-42.241-24.775-69.475-85.11-60.8-133.387-15.51-1.023-31.414-2.343-46.526-7.486-18.578-6.319-32.66-17.735-39.654-32.136C-.416,254.893-1.608,239.1,2.1,219.312c6.858-36.578,25.752-72.069,54.632-102.637C81.349,90.623,112.419,68.5,151.71,49.06,260.282-4.675,388.882-14.788,504.534,21.288a3.081,3.081,0,0,1,1.238,5.142C478.2,53.485,470.54,93.239,463.133,131.69c-1.033,5.347-2.063,10.683-3.14,15.973a683.393,683.393,0,0,1-48.431,148.376c-28.594,62.319-60.291,103.954-99.751,131.026-29.006,19.9-62.6,30.119-94.451,30.119M363.507,6.159c-72.116,0-144.206,16.332-209.063,48.428C115.814,73.7,85.318,95.392,61.214,120.91,33.148,150.616,14.8,185.034,8.16,220.45,4.7,238.9,5.727,253.432,11.29,264.887c8.458,17.415,26.243,25.64,36.094,29,15.485,5.264,32.24,6.348,48.446,7.4a3.081,3.081,0,0,1,2.813,3.736c-10,45.65,16.733,106.519,57.2,130.258,42.916,25.177,104.2,19.834,152.478-13.288,38.5-26.415,69.528-67.253,97.634-128.514a676.769,676.769,0,0,0,48-147.034c1.073-5.272,2.1-10.586,3.126-15.915,7.267-37.705,14.774-76.645,40.813-104.818A468.274,468.274,0,0,0,363.507,6.159" transform="translate(0 0)" fill="#698871"/>
      <path id="Trazado_651" data-name="Trazado 651" d="M60.24,101.869c-13.963,0-37.579-9.937-37.863-10.059-3.786-1.644-7.636-3.628-10.138-7.012C9.692,81.353,8.777,75.73,12.1,72.08c4.364-4.78,12.23-2.422,14.806-1.658.764.23,1.755.51,2.91.84,20.692,5.864,41.692,13.353,40.6,24.463a5.915,5.915,0,0,1-3.007,4.669,14.444,14.444,0,0,1-7.174,1.475M19.586,72.249a6.676,6.676,0,0,0-5.207,1.909c-2.135,2.34-1.507,6.316.341,8.806,1.952,2.641,4.967,4.317,8.885,6.018,8.774,3.807,35.089,12.958,42.245,8.756a2.824,2.824,0,0,0,1.5-2.315c.99-10.044-28.633-18.438-38.369-21.2-1.173-.334-2.178-.617-2.953-.847a23.031,23.031,0,0,0-6.441-1.13" transform="translate(25.76 179.037)" fill="#698871"/>
      <path id="Trazado_652" data-name="Trazado 652" d="M68.161,152.357c-9.011,0-17.936-10.855-24.191-18.463-1.661-2.024-3.1-3.768-4.285-5.013-8.864-9.3-18.912-19.834-23.667-32.975a50.236,50.236,0,0,1-.068-33.944c3.233-9.05,8.871-16.016,15.872-19.619,8.308-4.278,18.729-3.165,24.775,2.648,6.208,5.971,7.2,15.183,8.078,23.311l.136,1.285a180.967,180.967,0,0,0,9.029,39.887c.312.9.682,1.909,1.084,3.011,4.03,11,11.519,31.475-1.432,38.491a11.028,11.028,0,0,1-5.333,1.382M42.621,42.817a20.623,20.623,0,0,0-9.391,2.268C26.929,48.329,21.822,54.691,18.851,63a47.833,47.833,0,0,0,.065,31.859c4.54,12.531,14.347,22.82,23.006,31.9,1.26,1.324,2.727,3.108,4.428,5.178,6.847,8.329,17.186,20.907,25.676,16.335,10.611-5.749,3.714-24.6.007-34.727-.409-1.116-.786-2.142-1.1-3.054a184.159,184.159,0,0,1-9.183-40.565l-.14-1.3c-.858-7.974-1.748-16.22-7.145-21.417a17.052,17.052,0,0,0-11.842-4.4" transform="translate(33.732 102.902)" fill="#698871"/>
      <path id="Trazado_653" data-name="Trazado 653" d="M76.564,159.53a31.852,31.852,0,0,1-8.4-1.123c-11.681-3.2-21.93-12.765-27.417-25.572-4.443-10.367-6.036-22.619-4.863-37.457A136.82,136.82,0,0,1,46.424,52.487C51.118,41.448,62.2,22.723,73.963,22.569h.151c5.91,0,10.985,4.554,15.09,13.54,9.962,21.818,12.858,46.6,15.653,70.566l.825,7.012c1.112,9.291,2.638,22.016-3.154,31.992-5.01,8.623-15.309,13.848-25.963,13.852M74.11,25.652h-.1c-8.857.118-19.037,14.616-24.747,28.041A133.844,133.844,0,0,0,38.952,95.621c-1.13,14.326.38,26.1,4.626,36,5.121,11.957,14.613,20.857,25.4,23.814,11.971,3.294,25.242-1.575,30.887-11.3,4.877-8.4,4.134-18.592,2.763-30.079l-.829-7.023C99.025,83.3,96.161,58.767,86.4,37.39,82.841,29.6,78.707,25.652,74.11,25.652M37.417,95.5h0Z" transform="translate(91.915 58.422)" fill="#698871"/>
      <path id="Trazado_654" data-name="Trazado 654" d="M69.163,79.55A10.97,10.97,0,0,1,64.716,78.5c-5.577-2.487-5.81-10.17-5.889-12.693a164.384,164.384,0,0,1,1.83-29.756c.452-2.95,1.461-7.03,4.974-8.365a7.055,7.055,0,0,1,6.955,1.5A14.91,14.91,0,0,1,76.2,34.521c2.042,4.54,6.535,34.475-1.78,42.819a7.248,7.248,0,0,1-5.261,2.211M67.724,30.387a2.765,2.765,0,0,0-.994.176c-1.532.581-2.49,2.476-3.029,5.957A161.762,161.762,0,0,0,61.91,65.712c.169,5.566,1.5,8.828,4.059,9.969,3.574,1.6,5.293.467,6.273-.52,6.675-6.7,3.269-34.669,1.148-39.374a11.851,11.851,0,0,0-2.81-4.256,4.65,4.65,0,0,0-2.856-1.145" transform="translate(152.094 70.683)" fill="#698871"/>
      <path id="Trazado_655" data-name="Trazado 655" d="M94.822,116.133c-10.992,0-19.454-10.087-23.232-21v0C63.3,71.2,68.744,43.17,85.126,25.389,102.409,6.639,131.2.283,153.6,10.277a7.233,7.233,0,0,1,3.452,2.616c1.091,1.78,1.453,4.816-3.032,9.18A136.169,136.169,0,0,0,117.193,85.49c-.287,1.112-.574,2.3-.872,3.546-2.476,10.3-5.864,24.391-17.907,26.742a18.3,18.3,0,0,1-3.592.355M130.841,8.645A59.734,59.734,0,0,0,87.394,27.477C71.755,44.444,66.577,71.229,74.5,94.124c2.792,8.067,10.841,21.076,23.322,18.632,10.1-1.977,13.217-14.961,15.5-24.438.305-1.267.6-2.476.886-3.6a139.233,139.233,0,0,1,37.658-64.853c1.367-1.331,3.517-3.793,2.559-5.358a4.715,4.715,0,0,0-2.089-1.414,52.652,52.652,0,0,0-21.5-4.45" transform="translate(175.397 14.434)" fill="#698871"/>
      <path id="Trazado_656" data-name="Trazado 656" d="M95.207,53.063a5.847,5.847,0,0,1-4.525-1.945c-2.462-2.882-.811-7.127-.273-8.519a76.332,76.332,0,0,1,10.967-19.3c2.587-3.312,6.19-7.36,11.139-9.241l.018-.007a12.428,12.428,0,0,1,14.254,3.707c2.943,3.833,2.882,8.91-.165,13.263-3.359,4.805-9.7,8.921-15.844,12.9-3.075,2-5.975,3.879-8.211,5.677a15.645,15.645,0,0,1-5.185,3.136,7.6,7.6,0,0,1-2.175.327M113.6,16.944c-4.227,1.611-7.457,5.257-9.793,8.254A73,73,0,0,0,93.284,43.715c-1.026,2.638-1.109,4.407-.255,5.408a3.434,3.434,0,0,0,3.463.664,13.132,13.132,0,0,0,4.145-2.587c2.354-1.9,5.322-3.822,8.462-5.864,5.616-3.642,11.982-7.769,15-12.083,2.279-3.255,2.368-6.851.244-9.614a9.339,9.339,0,0,0-10.741-2.7" transform="translate(231.334 34.194)" fill="#698871"/>
      <path id="Trazado_657" data-name="Trazado 657" d="M163.941,56.789c-2.243,0-4.421-.1-6.441-.2-14.9-.711-30.305-1.446-45.076-5.451-3.524-.951-7.389-2.386-9.291-5.792-2.171-3.89-.754-8.519,1.615-11.383,2.551-3.083,6.3-4.812,9.273-5.971,17.749-6.926,37.612-5.788,55.135-4.787l-.086,1.536.287-1.525c6.592.373,17.62,1,20.369,9.384,2.508,7.658-3.395,17.645-10.152,21.122-4.877,2.508-10.436,3.072-15.632,3.072m-14.735-31.26c-11.523,0-23.265,1.112-34.066,5.333-2.792,1.087-5.928,2.541-8.017,5.06-1.644,1.992-2.752,5.315-1.3,7.913,1.346,2.412,4.5,3.542,7.4,4.328,14.448,3.912,29.685,4.64,44.416,5.347,6.693.309,14.272.682,20.523-2.53,5.523-2.846,10.59-11.444,8.627-17.426-2.092-6.388-11.426-6.915-17.609-7.267l-.2-.011c-6.359-.362-13.026-.746-19.777-.746" transform="translate(264.186 58.11)" fill="#698871"/>
      <path id="Trazado_658" data-name="Trazado 658" d="M108.956,73.9c-8.329,0-22.12-9.567-24.847-12.276-3.994-3.962-5.268-8.282-3.406-11.562a7.823,7.823,0,0,1,7.378-3.542c5.243.327,18.488,6.886,24.291,14.046,2.315,2.853,3.305,5.58,2.932,8.1a5.57,5.57,0,0,1-3.822,4.863,7.96,7.96,0,0,1-2.526.37M87.522,49.581a4.728,4.728,0,0,0-4.138,2c-1.335,2.347.621,5.595,2.9,7.848C89.675,62.809,104.9,72.491,110.51,70.6a2.521,2.521,0,0,0,1.744-2.386c.24-1.633-.524-3.556-2.272-5.713-5.394-6.65-17.957-12.653-22.095-12.912-.118-.007-.244-.011-.366-.011" transform="translate(206.73 120.367)" fill="#698871"/>
      <path id="Trazado_659" data-name="Trazado 659" d="M111.55,136.289c-12.456,0-28.762-1.658-40.231-11.785a36.8,36.8,0,0,1,1.852-56.7c8.781-6.786,20.885-9.732,34.073-8.311a88.77,88.77,0,0,1,33.743,11.232c6.89,3.9,13.952,5.566,21.424,7.335,2.691.635,5.426,1.281,8.207,2.042,10.393,2.849,21.74,9.983,22.421,21.46.359,6.011-2.638,12.395-8.006,17.085-4.913,4.292-11.092,6.772-16.489,8.623-16.07,5.519-34.048,8.541-53.441,8.979-1.141.025-2.325.043-3.553.043M100.824,62.221c-9.987,0-18.976,2.77-25.77,8.017a33.723,33.723,0,0,0-1.694,51.955c11.785,10.407,29.4,11.232,41.674,10.97,19.073-.431,36.74-3.395,52.508-8.81,5.114-1.758,10.949-4.087,15.463-8.031,4.658-4.066,7.256-9.517,6.958-14.58-.585-9.861-11.225-16.217-20.161-18.668-2.745-.754-5.444-1.392-8.1-2.017-7.69-1.819-14.957-3.538-22.228-7.651a85.674,85.674,0,0,0-32.559-10.852,56.847,56.847,0,0,0-6.09-.334" transform="translate(152.406 153.09)" fill="#698871"/>
      <path id="Trazado_660" data-name="Trazado 660" d="M100.416,149.232a65.891,65.891,0,0,1-47.907-21.061c-4.69-5.16-12.23-15.585-10.059-27.392C44,92.339,49.064,86.429,56.7,84.129c9.409-2.828,21.133.513,28.49,8.146,3.624,3.761,5.447,8.476,7.213,13.041.445,1.145.89,2.3,1.36,3.427a84.915,84.915,0,0,0,15.19,24.707c1.9,2.106,6.355,7.041,3.858,11.648-1.931,3.567-6.786,3.894-8.376,4-1.339.09-2.681.133-4.019.133M45.482,101.339c-1.931,10.5,5,20.021,9.305,24.761a62.694,62.694,0,0,0,49.44,19.924c3.2-.215,5.121-1,5.874-2.4,1.3-2.386-1.159-5.587-3.438-8.114A87.917,87.917,0,0,1,90.921,109.93c-.481-1.156-.937-2.329-1.392-3.5-1.73-4.475-3.366-8.7-6.56-12.018-6.585-6.829-17.006-9.854-25.382-7.328-6.474,1.945-10.769,7.008-12.1,14.257" transform="translate(108.891 215.195)" fill="#698871"/>
      <path id="Trazado_661" data-name="Trazado 661" d="M129.18,150.044a78.544,78.544,0,0,1-52.752-20.4c-7.008-6.416-11.042-12.768-12.334-19.418-1.669-8.6,2.268-17.53,9.165-20.778,7.873-3.718,16.662-.05,24.284,3.664,9.115,4.45,18.51,8.828,27.582,13.059,8.882,4.138,18.061,8.415,26.9,12.725,4.7,2.293,8.042,6.19,8.914,10.432,1.055,5.1-1.478,10.988-6.3,14.641-4.687,3.553-10.672,4.737-14.76,5.318a75.844,75.844,0,0,1-10.694.754M80.412,91a13.507,13.507,0,0,0-5.839,1.238c-6.449,3.04-8.652,11.232-7.45,17.4,1.159,5.982,4.88,11.781,11.383,17.742a75.391,75.391,0,0,0,60.93,18.858c6.043-.854,10.163-2.311,13.339-4.719,3.24-2.458,6.09-6.983,5.146-11.562-.689-3.312-3.395-6.409-7.245-8.286-8.81-4.3-17.979-8.569-26.846-12.7-9.1-4.238-18.5-8.62-27.639-13.08C91.163,93.431,85.608,91,80.412,91" transform="translate(164.924 227.538)" fill="#698871"/>
      <path id="Trazado_662" data-name="Trazado 662" d="M27.761,289.527a1.525,1.525,0,0,1-1.242-.628,1.542,1.542,0,0,1,.33-2.157c42.6-31.217,82.853-67.749,121.782-103.078,21.955-19.92,44.653-40.518,67.443-59.857C272.426,75.993,348.292,19.427,435.515,6.339a1.541,1.541,0,0,1,.459,3.047c-86.459,12.973-161.869,69.22-217.9,116.768-22.751,19.306-45.431,39.887-67.365,59.793C111.715,221.33,71.4,257.916,28.672,289.23a1.545,1.545,0,0,1-.911.3" transform="translate(67.871 16.366)" fill="#698871"/>
      <path id="Trazado_663" data-name="Trazado 663" d="M75.683,168.845a1.544,1.544,0,0,1-1.479-1.109C58.343,113.524,63.486,54.04,88.3,4.535A1.541,1.541,0,1,1,91.06,5.917c-24.478,48.812-29.541,107.478-13.9,160.954a1.547,1.547,0,0,1-1.479,1.974" transform="translate(168.641 9.536)" fill="#698871"/>
      <path id="Trazado_664" data-name="Trazado 664" d="M236.2,83.225A285.75,285.75,0,0,1,82.99,39.039a1.541,1.541,0,1,1,1.647-2.605A282.649,282.649,0,0,0,236.2,80.143h.161a1.541,1.541,0,0,1,1.543,1.543,1.583,1.583,0,0,1-1.7,1.539" transform="translate(212.966 93.706)" fill="#698871"/>
      <path id="Trazado_665" data-name="Trazado 665" d="M67.79,214a1.546,1.546,0,0,1-1.292-.7C29.715,156.979,21.052,82.685,43.886,19.408a1.542,1.542,0,1,1,2.9,1.048c-22.515,62.384-13.97,135.63,22.3,191.159A1.542,1.542,0,0,1,67.79,214" transform="translate(81.035 47.613)" fill="#698871"/>
      <path id="Trazado_666" data-name="Trazado 666" d="M262.839,165.38c-.072,0-.14-.007-.215-.014-39.026-5.39-79.383-10.967-117.888-25.07-29.929-10.963-70.946-32.215-96.4-71.2A1.543,1.543,0,1,1,50.923,67.4c24.984,38.283,65.384,59.2,94.871,69.995,38.2,13.988,78.385,19.543,117.253,24.912a1.542,1.542,0,0,1-.208,3.068" transform="translate(124.486 172.675)" fill="#698871"/>
      <path id="Trazado_667" data-name="Trazado 667" d="M112.526,245.978a1.527,1.527,0,0,1-.958-.334c-44.3-35.078-85.835-99.357-78.783-163.9a1.542,1.542,0,0,1,3.065.337c-6.926,63.37,34,126.6,77.635,161.148a1.543,1.543,0,0,1-.958,2.749" transform="translate(82.831 208.048)" fill="#698871"/>
      <path id="Trazado_668" data-name="Trazado 668" d="M58.737,72.917H58.7a.778.778,0,0,1-.736-.807A265.4,265.4,0,0,1,69.241,7.322a.79.79,0,0,1,.965-.513.776.776,0,0,1,.51.965A263.862,263.862,0,0,0,59.509,72.182a.775.775,0,0,1-.772.736" transform="translate(150.046 17.551)" fill="#698871"/>
      <path id="Trazado_669" data-name="Trazado 669" d="M57.663,100.329a.774.774,0,0,1-.772-.725A278.349,278.349,0,0,1,66.982,7.791a.756.756,0,0,1,.951-.531.766.766,0,0,1,.528.951,276.82,276.82,0,0,0-10.026,91.3.773.773,0,0,1-.725.815Z" transform="translate(146.092 18.708)" fill="#698871"/>
      <path id="Trazado_670" data-name="Trazado 670" d="M54.851,57.739H54.84a.773.773,0,0,1-.761-.782A218.615,218.615,0,0,1,60.061,9.25a.787.787,0,0,1,.929-.571.775.775,0,0,1,.571.929,216.9,216.9,0,0,0-5.939,47.373.772.772,0,0,1-.772.757" transform="translate(139.987 22.419)" fill="#698871"/>
      <path id="Trazado_671" data-name="Trazado 671" d="M46.737,38.119l-.065,0a.77.77,0,0,1-.7-.829,121.809,121.809,0,0,1,4.669-24.65.77.77,0,1,1,1.475.441A120.77,120.77,0,0,0,47.5,37.412a.77.77,0,0,1-.768.707" transform="translate(118.987 31.284)" fill="#698871"/>
      <path id="Trazado_672" data-name="Trazado 672" d="M34.981,79.232l-.09-.007a.768.768,0,0,1-.675-.854A392.764,392.764,0,0,1,46.4,17.591a.771.771,0,0,1,1.482.423A391.311,391.311,0,0,0,35.746,78.55a.771.771,0,0,1-.764.682" transform="translate(88.559 44.083)" fill="#698871"/>
      <path id="Trazado_673" data-name="Trazado 673" d="M34.826,48.6a.773.773,0,0,1-.772-.772V36.59a.772.772,0,1,1,1.543,0V47.825a.773.773,0,0,1-.772.772" transform="translate(88.151 92.718)" fill="#698871"/>
      <path id="Trazado_674" data-name="Trazado 674" d="M55.1,90.807a.775.775,0,0,1-.581-.266A80.213,80.213,0,0,1,39.35,64.453a.771.771,0,1,1,1.457-.506A78.6,78.6,0,0,0,55.685,89.53a.772.772,0,0,1-.581,1.278" transform="translate(101.749 164.197)" fill="#698871"/>
      <path id="Trazado_675" data-name="Trazado 675" d="M41.017,67.976a.771.771,0,0,1-.732-.531L38.057,60.7a.775.775,0,0,1,.492-.973.759.759,0,0,1,.973.492l2.228,6.747a.771.771,0,0,1-.492.973.69.69,0,0,1-.24.039" transform="translate(98.416 154.501)" fill="#698871"/>
      <path id="Trazado_676" data-name="Trazado 676" d="M56.087,88.3a.766.766,0,0,1-.549-.23A57.8,57.8,0,0,1,41.151,63.584a.771.771,0,0,1,1.482-.427,56.2,56.2,0,0,0,14,23.832.772.772,0,0,1-.549,1.313" transform="translate(106.443 162.037)" fill="#698871"/>
      <path id="Trazado_677" data-name="Trazado 677" d="M59.329,52.582a.771.771,0,0,1-.764-.678L56.788,37.173a.773.773,0,0,1,.671-.858.76.76,0,0,1,.858.671l1.776,14.731a.769.769,0,0,1-.671.858l-.093.007" transform="translate(146.985 93.987)" fill="#698871"/>
      <path id="Trazado_678" data-name="Trazado 678" d="M72.608,83.969a.77.77,0,0,1-.66-.377A109.048,109.048,0,0,1,57.931,44.631a.765.765,0,0,1,.646-.876.756.756,0,0,1,.879.642A107.481,107.481,0,0,0,73.272,82.8a.771.771,0,0,1-.664,1.166" transform="translate(149.933 113.224)" fill="#698871"/>
      <path id="Trazado_679" data-name="Trazado 679" d="M69.956,73.569a.779.779,0,0,1-.718-.484,89.114,89.114,0,0,1-6.3-28.594.774.774,0,0,1,.732-.811.8.8,0,0,1,.807.732,87.537,87.537,0,0,0,6.2,28.1.777.777,0,0,1-.431,1,.8.8,0,0,1-.287.054" transform="translate(162.913 113.069)" fill="#698871"/>
      <path id="Trazado_680" data-name="Trazado 680" d="M68.556,43.516a.772.772,0,0,1-.772-.757l-.136-9.481a.77.77,0,0,1,.757-.782h.011a.77.77,0,0,1,.772.761l.14,9.477a.773.773,0,0,1-.761.782Z" transform="translate(175.111 84.119)" fill="#698871"/>
      <path id="Trazado_681" data-name="Trazado 681" d="M75.929,74.02A.769.769,0,0,1,75.2,73.5a134.575,134.575,0,0,1-7.188-35.455.766.766,0,0,1,.718-.818l.05,0a.77.77,0,0,1,.768.721A133.216,133.216,0,0,0,76.657,73a.773.773,0,0,1-.728,1.023" transform="translate(176.05 96.363)" fill="#698871"/>
      <path id="Trazado_682" data-name="Trazado 682" d="M91.193,53.281a.77.77,0,0,1-.671-1.148A244.631,244.631,0,0,1,129,.967a.77.77,0,1,1,1.1,1.077A243.327,243.327,0,0,0,91.864,52.89a.766.766,0,0,1-.671.391" transform="translate(234.064 1.897)" fill="#698871"/>
      <path id="Trazado_683" data-name="Trazado 683" d="M88.772,32.8a.931.931,0,0,1-.169-.018.772.772,0,0,1-.585-.922,60.787,60.787,0,0,1,5-14.031.771.771,0,1,1,1.378.693A59,59,0,0,0,89.526,32.2a.773.773,0,0,1-.754.6" transform="translate(227.793 45.06)" fill="#698871"/>
      <path id="Trazado_684" data-name="Trazado 684" d="M104.581,24.877a.747.747,0,0,1-.456-.151.769.769,0,0,1-.165-1.077,145.36,145.36,0,0,1,20.659-22.6.772.772,0,0,1,1.023,1.156A143.483,143.483,0,0,0,105.2,24.565a.773.773,0,0,1-.621.312" transform="translate(268.72 2.232)" fill="#698871"/>
      <path id="Trazado_685" data-name="Trazado 685" d="M102,16.831a.745.745,0,0,1-.463-.158.764.764,0,0,1-.151-1.077l4.827-6.413a.769.769,0,1,1,1.227.926l-4.827,6.413a.761.761,0,0,1-.614.309" transform="translate(262.041 22.974)" fill="#698871"/>
      <path id="Trazado_686" data-name="Trazado 686" d="M110.661,29.922a.754.754,0,0,1-.459-.154.765.765,0,0,1-.158-1.077A160.848,160.848,0,0,1,135.422,1.845a.772.772,0,1,1,.994,1.181,159.207,159.207,0,0,0-25.138,26.588.763.763,0,0,1-.617.309" transform="translate(284.458 4.311)" fill="#698871"/>
      <path id="Trazado_687" data-name="Trazado 687" d="M108.334,19.373a.772.772,0,0,1-.581-1.278,32.048,32.048,0,0,0,4.8-7.331.77.77,0,0,1,1.392.657,33.513,33.513,0,0,1-5.028,7.687.775.775,0,0,1-.581.266" transform="translate(278.431 26.719)" fill="#698871"/>
      <path id="Trazado_688" data-name="Trazado 688" d="M82.176,57.554h-.025a.773.773,0,0,1-.746-.8,94.663,94.663,0,0,1,4.712-26.286.768.768,0,0,1,.973-.492.776.776,0,0,1,.492.972,92.983,92.983,0,0,0-4.633,25.859.774.774,0,0,1-.772.743" transform="translate(210.719 77.498)" fill="#698871"/>
      <path id="Trazado_689" data-name="Trazado 689" d="M83.929,37.092l-.068,0a.772.772,0,0,1-.7-.836,28.2,28.2,0,0,1,3.05-10.382.77.77,0,0,1,1.367.711A26.544,26.544,0,0,0,84.7,36.392a.772.772,0,0,1-.768.7" transform="translate(215.26 65.897)" fill="#698871"/>
      <path id="Trazado_690" data-name="Trazado 690" d="M104.267,57.8a.75.75,0,0,1-.337-.079.769.769,0,0,1-.355-1.03,223.856,223.856,0,0,1,37.92-54.984.771.771,0,1,1,1.123,1.055,222.19,222.19,0,0,0-37.658,54.6.764.764,0,0,1-.693.434" transform="translate(267.907 3.794)" fill="#698871"/>
      <path id="Trazado_693" data-name="Trazado 693" d="M109.941,38.287a.772.772,0,0,1-.7-1.1,165,165,0,0,1,15.933-26.731.771.771,0,1,1,1.245.908A163.478,163.478,0,0,0,110.637,37.85a.769.769,0,0,1-.7.438" transform="translate(282.594 26.247)" fill="#698871"/>
      <path id="Trazado_694" data-name="Trazado 694" d="M135.152,57.085a.831.831,0,0,1-.208-.029A168.974,168.974,0,0,1,86.685,34.947a.771.771,0,1,1,.858-1.281,167.482,167.482,0,0,0,47.818,21.9.771.771,0,0,1-.208,1.514" transform="translate(223.503 86.811)" fill="#698871"/>
      <path id="Trazado_695" data-name="Trazado 695" d="M115.726,44.77l-.068,0a49.028,49.028,0,0,1-13.873-3.341.768.768,0,0,1-.431-1,.778.778,0,0,1,1-.431,47.553,47.553,0,0,0,13.439,3.237.771.771,0,0,1-.068,1.539" transform="translate(262.218 103.392)" fill="#698871"/>
      <path id="Trazado_696" data-name="Trazado 696" d="M168.177,59.435l-.1-.007A202.455,202.455,0,0,1,90.183,32.054a.771.771,0,0,1,.8-1.317A200.957,200.957,0,0,0,168.278,57.9a.771.771,0,0,1-.1,1.536" transform="translate(232.49 79.282)" fill="#698871"/>
      <path id="Trazado_697" data-name="Trazado 697" d="M128.8,46.182a.931.931,0,0,1-.169-.018,100.272,100.272,0,0,1-36-16.091A.77.77,0,0,1,92.443,29a.761.761,0,0,1,1.077-.179,98.7,98.7,0,0,0,35.444,15.84.768.768,0,0,1,.585.919.776.776,0,0,1-.754.6" transform="translate(238.925 74.222)" fill="#698871"/>
      <path id="Trazado_698" data-name="Trazado 698" d="M113.408,36.2l-.1-.007-8.8-1.12a.769.769,0,0,1-.671-.861.745.745,0,0,1,.861-.667l8.8,1.12a.771.771,0,0,1-.1,1.536" transform="translate(268.782 86.817)" fill="#698871"/>
      <path id="Trazado_699" data-name="Trazado 699" d="M131.041,24.082a1,1,0,0,1-.172-.018,143.985,143.985,0,0,1-19.192-5.781.771.771,0,0,1-.449-.994.759.759,0,0,1,.994-.445,142.549,142.549,0,0,0,18.991,5.717.77.77,0,0,1-.172,1.522" transform="translate(287.792 43.459)" fill="#698871"/>
      <path id="Trazado_701" data-name="Trazado 701" d="M155.432,25.412l-.079,0a198.058,198.058,0,0,1-40.888-8.562.771.771,0,1,1,.474-1.468,195.993,195.993,0,0,0,40.572,8.494.772.772,0,0,1-.079,1.54" transform="translate(294.915 39.718)" fill="#698871"/>
      <path id="Trazado_704" data-name="Trazado 704" d="M167.8,48.408h-.018c-18.75-.416-37.694-1.654-56.308-3.689a.768.768,0,0,1-.678-.85.715.715,0,0,1,.847-.678c18.571,2.024,37.468,3.266,56.175,3.675a.772.772,0,0,1-.018,1.543" transform="translate(286.786 111.754)" fill="#698871"/>
      <path id="Trazado_705" data-name="Trazado 705" d="M161.3,41.337H161.3a341.5,341.5,0,0,1-45.8-3.445.77.77,0,1,1,.219-1.525,339.627,339.627,0,0,0,45.6,3.427.772.772,0,0,1-.007,1.543" transform="translate(297.255 94.114)" fill="#698871"/>
      <path id="Trazado_706" data-name="Trazado 706" d="M113.18,44.732l-.072,0-5.964-.553a.777.777,0,0,1-.7-.84.769.769,0,0,1,.843-.7l5.961.553a.771.771,0,0,1-.072,1.539" transform="translate(275.54 110.359)" fill="#698871"/>
      <path id="Trazado_707" data-name="Trazado 707" d="M135.837,85.414a.882.882,0,0,1-.212-.029A208.017,208.017,0,0,1,67.231,51.3a.769.769,0,1,1,.926-1.227A206.472,206.472,0,0,0,136.049,83.9a.77.77,0,0,1-.212,1.511" transform="translate(173.232 129.205)" fill="#698871"/>
      <path id="Trazado_708" data-name="Trazado 708" d="M121.872,66.536l-.065,0a219.589,219.589,0,0,1-32.315-5.117.774.774,0,0,1-.574-.929.76.76,0,0,1,.929-.571A217.4,217.4,0,0,0,121.937,65a.771.771,0,0,1-.065,1.539" transform="translate(230.119 155.03)" fill="#698871"/>
      <path id="Trazado_709" data-name="Trazado 709" d="M213.2,76.9A403.9,403.9,0,0,1,84.73,55.965a.766.766,0,0,1-.488-.973.774.774,0,0,1,.976-.488A403.214,403.214,0,0,0,220.109,75.3h.014a.77.77,0,0,1,.011,1.54q-3.467.059-6.93.057" transform="translate(217.962 140.987)" fill="#698871"/>
      <path id="Trazado_710" data-name="Trazado 710" d="M182.795,63.693a429.694,429.694,0,0,1-81.877-7.888.766.766,0,0,1-.606-.9.754.754,0,0,1,.9-.61,428.288,428.288,0,0,0,81.579,7.859h.876a.77.77,0,1,1,0,1.539Z" transform="translate(259.625 140.504)" fill="#698871"/>
      <path id="Trazado_711" data-name="Trazado 711" d="M104.6,56.8a.96.96,0,0,1-.2-.025l-8.264-2.16a.772.772,0,0,1,.391-1.493l8.268,2.16a.772.772,0,0,1-.2,1.518" transform="translate(247.372 137.453)" fill="#698871"/>
      <path id="Trazado_712" data-name="Trazado 712" d="M168.651,60.374a239.419,239.419,0,0,1-64.286-8.792.771.771,0,1,1,.416-1.486,238.277,238.277,0,0,0,72.83,8.57h.029a.77.77,0,0,1,.032,1.539q-4.516.167-9.022.169" transform="translate(268.698 129.609)" fill="#698871"/>
      <path id="Trazado_713" data-name="Trazado 713" d="M107.01,51.966a.737.737,0,0,1-.176-.022l-7.392-1.726a.768.768,0,1,1,.348-1.5l7.4,1.723a.771.771,0,0,1-.176,1.522" transform="translate(255.862 126.06)" fill="#698871"/>
      <path id="Trazado_714" data-name="Trazado 714" d="M119.344,63.424a.738.738,0,0,1-.3-.061A184.447,184.447,0,0,1,79.475,40.708a.772.772,0,0,1-.154-1.08.78.78,0,0,1,1.08-.154,182.644,182.644,0,0,0,39.241,22.468.771.771,0,0,1-.3,1.482" transform="translate(204.929 101.791)" fill="#698871"/>
      <path id="Trazado_715" data-name="Trazado 715" d="M101.28,51.185a1.124,1.124,0,0,1-.151-.014,26.4,26.4,0,0,1-8.957-3.585.771.771,0,0,1,.825-1.3,24.853,24.853,0,0,0,8.433,3.377.77.77,0,0,1-.151,1.525" transform="translate(237.667 119.506)" fill="#698871"/>
      <path id="Trazado_716" data-name="Trazado 716" d="M178.926,103.321h-.011A290.636,290.636,0,0,1,83.664,85.992a.772.772,0,1,1,.52-1.453,289.055,289.055,0,0,0,94.752,17.243.77.77,0,0,1-.011,1.539" transform="translate(215.245 218.725)" fill="#698871"/>
      <path id="Trazado_717" data-name="Trazado 717" d="M88,88.412a.786.786,0,0,1-.355-.086L77.017,82.8a.769.769,0,1,1,.711-1.364l10.629,5.519A.771.771,0,0,1,88,88.412" transform="translate(198.287 210.584)" fill="#698871"/>
      <path id="Trazado_718" data-name="Trazado 718" d="M161.646,90.152l-.05,0A363.137,363.137,0,0,1,96.1,79.828a.77.77,0,1,1,.377-1.493A362.029,362.029,0,0,0,161.7,88.613a.771.771,0,0,1-.05,1.539" transform="translate(247.245 202.708)" fill="#698871"/>
      <path id="Trazado_719" data-name="Trazado 719" d="M155.876,86.114a.7.7,0,0,1-.122-.011l-55.4-8.8a.769.769,0,0,1-.639-.883.79.79,0,0,1,.879-.639l55.4,8.8a.771.771,0,0,1-.122,1.532" transform="translate(258.101 196.149)" fill="#698871"/>
      <path id="Trazado_720" data-name="Trazado 720" d="M160.149,77.341a275.667,275.667,0,0,1-59.018-6.4.771.771,0,1,1,.33-1.507,273.725,273.725,0,0,0,61.87,6.348.716.716,0,0,1,.782.761.775.775,0,0,1-.764.779c-1.062.011-2.135.018-3.2.018" transform="translate(260.216 179.698)" fill="#698871"/>
      <path id="Trazado_721" data-name="Trazado 721" d="M156.218,72.924H156.2a423.891,423.891,0,0,1-50.5-4,.772.772,0,1,1,.212-1.529,421.859,421.859,0,0,0,48.464,3.947.77.77,0,0,1,1.138-1.037l1.256,1.313a.769.769,0,0,1-.556,1.3" transform="translate(271.898 174.451)" fill="#698871"/>
      <path id="Trazado_722" data-name="Trazado 722" d="M110.838,70a.931.931,0,0,1-.169-.018L99.293,67.418a.778.778,0,0,1-.578-.926.751.751,0,0,1,.922-.581l11.369,2.569A.77.77,0,0,1,110.838,70" transform="translate(255.483 170.562)" fill="#698871"/>
      <path id="Trazado_723" data-name="Trazado 723" d="M28.7,86.158a.777.777,0,0,1-.772-.728,196.34,196.34,0,0,1,6.94-63.191.773.773,0,0,1,1.489.416,194.585,194.585,0,0,0-6.886,62.689.774.774,0,0,1-.728.815Z" transform="translate(71.566 56.115)" fill="#698871"/>
      <path id="Trazado_724" data-name="Trazado 724" d="M31.023,59.133a.775.775,0,0,1-.736-.535A49.044,49.044,0,0,1,27.937,42.6a.821.821,0,0,1,.786-.757.777.777,0,0,1,.757.786,47.38,47.38,0,0,0,2.279,15.5.773.773,0,0,1-.5.969.736.736,0,0,1-.233.036" transform="translate(72.292 108.325)" fill="#698871"/>
      <path id="Trazado_725" data-name="Trazado 725" d="M90.015,114.352a.736.736,0,0,1-.233-.036A165.814,165.814,0,0,1,15.057,64.944a.77.77,0,1,1,1.166-1,164.263,164.263,0,0,0,74.021,48.909.769.769,0,0,1-.23,1.5" transform="translate(38.495 164.814)" fill="#698871"/>
      <path id="Trazado_726" data-name="Trazado 726" d="M21.611,85.232a.773.773,0,0,1-.639-.337A63.527,63.527,0,0,1,10.12,52.96a.773.773,0,0,1,.725-.815.825.825,0,0,1,.815.725,62.021,62.021,0,0,0,10.59,31.16.77.77,0,0,1-.639,1.2" transform="translate(26.193 134.982)" fill="#698871"/>
      <path id="Trazado_727" data-name="Trazado 727" d="M11.119,100.211a.773.773,0,0,1-.746-.574,134.8,134.8,0,0,1-3.165-52.3.772.772,0,0,1,1.529.212,133.113,133.113,0,0,0,3.129,51.693.774.774,0,0,1-.553.94.9.9,0,0,1-.194.025" transform="translate(15.469 120.839)" fill="#698871"/>
      <path id="Trazado_728" data-name="Trazado 728" d="M13.87,74.408a.773.773,0,0,1-.678-.4L8.064,64.583a.77.77,0,1,1,1.353-.736l5.132,9.424a.771.771,0,0,1-.312,1.044.741.741,0,0,1-.366.093" transform="translate(20.634 164.228)" fill="#698871"/>
      <path id="Trazado_729" data-name="Trazado 729" d="M24.335,121.451a.766.766,0,0,1-.592-.28A95.513,95.513,0,0,1,2.211,57.381a.772.772,0,0,1,1.543.057,93.988,93.988,0,0,0,21.173,62.753.768.768,0,0,1-.592,1.26" transform="translate(5.544 146.612)" fill="#698871"/>
      <path id="Trazado_730" data-name="Trazado 730" d="M68.169,92.911h-.014A138.012,138.012,0,0,1,14.2,80.789a.763.763,0,0,1-.384-1.016.752.752,0,0,1,1.016-.384A136.6,136.6,0,0,0,68.183,91.372a.77.77,0,0,1-.014,1.539" transform="translate(35.591 205.314)" fill="#698871"/>
      <path id="Trazado_731" data-name="Trazado 731" d="M16.9,82.52a.757.757,0,0,1-.413-.122l-5.53-3.5a.771.771,0,0,1,.825-1.3l5.53,3.5A.771.771,0,0,1,16.9,82.52" transform="translate(27.45 200.568)" fill="#698871"/>
      <path id="Trazado_732" data-name="Trazado 732" d="M59.075,85.889a149.3,149.3,0,0,1-38.337-5,.769.769,0,1,1,.4-1.486,148.879,148.879,0,0,0,40.626,4.924h.014a.77.77,0,0,1,.014,1.539c-.9.014-1.809.025-2.717.025" transform="translate(52.202 205.464)" fill="#698871"/>
      <path id="Trazado_733" data-name="Trazado 733" d="M54.782,169.719a.762.762,0,0,1-.7-.441A171.668,171.668,0,0,1,38.691,76.732a.733.733,0,0,1,.85-.678.763.763,0,0,1,.675.85,170.28,170.28,0,0,0,15.259,91.717.771.771,0,0,1-.693,1.1" transform="translate(97.373 196.854)" fill="#698871"/>
      <path id="Trazado_735" data-name="Trazado 735" d="M49.915,152.923a.765.765,0,0,1-.728-.524,182.779,182.779,0,0,1-8.623-77.416.772.772,0,1,1,1.536.161A181.146,181.146,0,0,0,50.643,151.9a.764.764,0,0,1-.481.976.668.668,0,0,1-.248.043" transform="translate(102.438 192.298)" fill="#698871"/>
      <path id="Trazado_736" data-name="Trazado 736" d="M88.813,122.044a.766.766,0,0,1-.449-.144A123.544,123.544,0,0,1,46.572,69.45a.77.77,0,0,1,1.421-.592,122.022,122.022,0,0,0,41.268,51.79.77.77,0,0,1-.449,1.4" transform="translate(120.4 177.014)" fill="#698871"/>
      <path id="Trazado_737" data-name="Trazado 737" d="M68.408,91.752a.765.765,0,0,1-.47-.158L59.681,85.3a.771.771,0,0,1,.933-1.227l8.257,6.291a.771.771,0,0,1-.463,1.385" transform="translate(153.706 217.235)" fill="#698871"/>
      <path id="Trazado_738" data-name="Trazado 738" d="M56.416,99.5a.769.769,0,0,1-.646-.348A118.532,118.532,0,0,1,42.93,72.689a.769.769,0,1,1,1.457-.5A116.76,116.76,0,0,0,57.062,98.311a.768.768,0,0,1-.646,1.191" transform="translate(111.016 185.52)" fill="#698871"/>
      <path id="Trazado_740" data-name="Trazado 740" d="M136.294,185.788a.753.753,0,0,1-.348-.083,211.188,211.188,0,0,1-86.969-83.5.77.77,0,1,1,1.342-.757,209.658,209.658,0,0,0,86.323,82.885.77.77,0,0,1-.348,1.457" transform="translate(126.522 261.585)" fill="#698871"/>
    </g>
  </g>
</svg>
