<svg id="Grupo_51" data-name="Grupo 51" xmlns="http://www.w3.org/2000/svg" xmlns:xlink="http://www.w3.org/1999/xlink" width="193.856" height="185.251" viewBox="0 0 193.856 185.251">
  <defs>
    <clipPath id="clip-path">
      <rect id="Rectángulo_27" data-name="Rectángulo 27" width="193.856" height="185.251" fill="none"/>
    </clipPath>
  </defs>
  <g id="Grupo_50" data-name="Grupo 50" clip-path="url(#clip-path)">
    <path id="Trazado_1923" data-name="Trazado 1923" d="M170.982,109.617a18.536,18.536,0,0,1-9.239-2.488c-6.8-3.934-10.279-10.965-12-16.17h0a45.118,45.118,0,0,1-.461-25.808c1.532-5.592,12.664-18.492,13.136-19.039a.816.816,0,0,1,.694-.3.868.868,0,0,1,.664.361c.913,1.277,22.386,31.384,23.008,41.511.507,8.255-1.314,14.358-5.413,18.141a15.248,15.248,0,0,1-10.388,3.791m-19.6-19.2c2.3,6.955,6.286,12.359,11.224,15.217,5.849,3.387,13.245,2.933,17.588-1.076,4.606-4.253,5.185-11.464,4.86-16.764-.536-8.7-18.414-34.534-22.05-39.706-2.515,2.981-10.842,13.08-12.058,17.522a43.364,43.364,0,0,0,.436,24.808Z" fill="#3e4225"/>
    <path id="Trazado_1924" data-name="Trazado 1924" d="M172.621,108.552a.434.434,0,0,1-.4-.262,124.625,124.625,0,0,1-9.457-60.923.45.45,0,0,1,.472-.389.432.432,0,0,1,.389.472,123.733,123.733,0,0,0,9.392,60.5.432.432,0,0,1-.4.6" fill="#3e4225"/>
    <path id="Trazado_1925" data-name="Trazado 1925" d="M152.229,94.557a.224.224,0,0,1-.057-.008.216.216,0,0,1-.152-.265,41.756,41.756,0,0,1,10.86-18.672.216.216,0,1,1,.3.307A41.325,41.325,0,0,0,152.438,94.4a.217.217,0,0,1-.209.16" fill="#3e4225"/>
    <path id="Trazado_1926" data-name="Trazado 1926" d="M184.251,99.885a.214.214,0,0,1-.15-.061A63.435,63.435,0,0,0,165.886,87.49a.217.217,0,0,1,.177-.4A63.892,63.892,0,0,1,184.4,99.513a.216.216,0,0,1,.005.306.213.213,0,0,1-.155.066" fill="#3e4225"/>
    <path id="Trazado_1927" data-name="Trazado 1927" d="M180.224,74.258a.213.213,0,0,1-.151-.062c-5.706-5.551-10.949-9.091-17-11.477a.216.216,0,0,1,.159-.4c6.106,2.408,11.393,5.976,17.142,11.57a.216.216,0,0,1-.151.371" fill="#3e4225"/>
    <path id="Trazado_1928" data-name="Trazado 1928" d="M153.773,75.569a.21.21,0,0,1-.107-.029.214.214,0,0,1-.08-.294,28.4,28.4,0,0,1,9.023-9.609.219.219,0,0,1,.3.061.216.216,0,0,1-.062.3,27.956,27.956,0,0,0-8.886,9.462.216.216,0,0,1-.188.109" fill="#3e4225"/>
    <path id="Trazado_1929" data-name="Trazado 1929" d="M151.756,79.994a.222.222,0,0,1-.051-.006.216.216,0,0,1-.159-.261,4.277,4.277,0,0,1,.836-1.693.216.216,0,1,1,.336.273,3.843,3.843,0,0,0-.752,1.522.216.216,0,0,1-.21.165" fill="#3e4225"/>
    <path id="Trazado_1930" data-name="Trazado 1930" d="M157.848,99.534a.343.343,0,0,1-.044,0,.218.218,0,0,1-.168-.256,25,25,0,0,1,3.344-8.258.216.216,0,1,1,.365.231,24.551,24.551,0,0,0-3.285,8.115.217.217,0,0,1-.212.172" fill="#3e4225"/>
    <path id="Trazado_1931" data-name="Trazado 1931" d="M161.991,89.639a.216.216,0,0,1-.182-.332l1.076-1.7a.217.217,0,0,1,.3-.067.215.215,0,0,1,.066.3l-1.076,1.7a.213.213,0,0,1-.182.1" fill="#3e4225"/>
    <path id="Trazado_1932" data-name="Trazado 1932" d="M174.25,79.3a.213.213,0,0,1-.135-.047,40.608,40.608,0,0,0-10.57-6.125.216.216,0,1,1,.159-.4,41.059,41.059,0,0,1,10.681,6.189.216.216,0,0,1-.135.385" fill="#3e4225"/>
    <path id="Trazado_1933" data-name="Trazado 1933" d="M177.96,83.063a.217.217,0,0,1-.168-.08l-1.547-1.921a.216.216,0,0,1,.336-.272l1.547,1.921a.216.216,0,0,1-.032.3.219.219,0,0,1-.136.048" fill="#3e4225"/>
    <path id="Trazado_1934" data-name="Trazado 1934" d="M155.7,63.8a.216.216,0,0,1-.167-.353,60.185,60.185,0,0,1,6.934-7.157.216.216,0,1,1,.283.326,59.846,59.846,0,0,0-6.883,7.105.217.217,0,0,1-.167.079" fill="#3e4225"/>
    <path id="Trazado_1935" data-name="Trazado 1935" d="M152.424,67.911a.225.225,0,0,1-.1-.025.216.216,0,0,1-.09-.293,5.607,5.607,0,0,1,1.592-1.855.216.216,0,1,1,.259.346,5.2,5.2,0,0,0-1.469,1.712.215.215,0,0,1-.191.115" fill="#3e4225"/>
    <path id="Trazado_1936" data-name="Trazado 1936" d="M154.438,68.4a.216.216,0,0,1-.177-.339,32.07,32.07,0,0,1,8.02-8.037.216.216,0,0,1,.246.355,31.673,31.673,0,0,0-7.912,7.928.213.213,0,0,1-.177.093" fill="#3e4225"/>
    <path id="Trazado_1937" data-name="Trazado 1937" d="M167.613,57.332a.215.215,0,0,1-.128-.042,22.744,22.744,0,0,0-4.57-2.6.217.217,0,0,1-.115-.283.214.214,0,0,1,.284-.115,23.134,23.134,0,0,1,4.657,2.654.216.216,0,0,1-.128.39" fill="#3e4225"/>
    <path id="Trazado_1938" data-name="Trazado 1938" d="M174.411,87.232a.217.217,0,0,1-.136-.048,43.274,43.274,0,0,0-9.587-5.869.216.216,0,1,1,.176-.4,43.709,43.709,0,0,1,9.683,5.928.216.216,0,0,1,.032.3.214.214,0,0,1-.168.08" fill="#3e4225"/>
    <path id="Trazado_1939" data-name="Trazado 1939" d="M175.488,100.9a.221.221,0,0,1-.161-.07,25.638,25.638,0,0,0-7.389-5.613.216.216,0,1,1,.194-.385,26.081,26.081,0,0,1,7.515,5.706.217.217,0,0,1-.159.362" fill="#3e4225"/>
    <path id="Trazado_1940" data-name="Trazado 1940" d="M140.761,125.086a16.383,16.383,0,0,1-8.254-2.25c-5.976-3.512-9-9.728-10.489-14.325a39.715,39.715,0,0,1-.26-22.721c1.384-4.924,11.246-16.2,11.665-16.68a.864.864,0,0,1,1.357.071c.8,1.127,19.492,27.706,19.981,36.631.4,7.281-1.246,12.658-4.89,15.98a13.475,13.475,0,0,1-9.11,3.294m-17.1-17.107c1.971,6.094,5.424,10.84,9.721,13.365,5.076,2.982,11.52,2.633,15.321-.831,4.038-3.68,4.583-9.975,4.329-14.607-.415-7.55-15.705-30.01-19.033-34.817-2.322,2.721-9.5,11.347-10.577,15.169a37.978,37.978,0,0,0,.239,21.721" fill="#3e4225"/>
    <path id="Trazado_1941" data-name="Trazado 1941" d="M142.1,124.108a.434.434,0,0,1-.4-.264,109.481,109.481,0,0,1-7.958-53.567.432.432,0,1,1,.86.089,108.591,108.591,0,0,0,7.9,53.141.433.433,0,0,1-.232.567.426.426,0,0,1-.167.034" fill="#3e4225"/>
    <path id="Trazado_1942" data-name="Trazado 1942" d="M124.281,111.679a.231.231,0,0,1-.058-.008.216.216,0,0,1-.151-.266,36.685,36.685,0,0,1,9.649-16.343.216.216,0,1,1,.3.309,36.245,36.245,0,0,0-9.533,16.15.217.217,0,0,1-.209.158" fill="#3e4225"/>
    <path id="Trazado_1943" data-name="Trazado 1943" d="M152.363,116.539a.211.211,0,0,1-.151-.062A55.668,55.668,0,0,0,136.3,105.549a.216.216,0,1,1,.18-.393,56.076,56.076,0,0,1,16.035,11.012.216.216,0,0,1,0,.306.219.219,0,0,1-.155.065" fill="#3e4225"/>
    <path id="Trazado_1944" data-name="Trazado 1944" d="M148.975,94.018a.218.218,0,0,1-.152-.062,44.019,44.019,0,0,0-14.849-10.168.216.216,0,0,1-.121-.281.219.219,0,0,1,.282-.121,44.458,44.458,0,0,1,14.992,10.262.216.216,0,0,1-.152.37" fill="#3e4225"/>
    <path id="Trazado_1945" data-name="Trazado 1945" d="M125.746,95.018a.211.211,0,0,1-.108-.029.216.216,0,0,1-.08-.295,24.958,24.958,0,0,1,7.987-8.394.218.218,0,0,1,.3.064.216.216,0,0,1-.065.3,24.517,24.517,0,0,0-7.846,8.247.217.217,0,0,1-.187.108" fill="#3e4225"/>
    <path id="Trazado_1946" data-name="Trazado 1946" d="M123.949,98.89a.216.216,0,0,1-.21-.268,3.776,3.776,0,0,1,.749-1.492.216.216,0,1,1,.334.275,3.354,3.354,0,0,0-.663,1.32.216.216,0,0,1-.21.165" fill="#3e4225"/>
    <path id="Trazado_1947" data-name="Trazado 1947" d="M129.185,116.081a.248.248,0,0,1-.046-.005.216.216,0,0,1-.165-.257,21.936,21.936,0,0,1,2.986-7.239.217.217,0,1,1,.365.233,21.538,21.538,0,0,0-2.929,7.1.216.216,0,0,1-.211.171" fill="#3e4225"/>
    <path id="Trazado_1948" data-name="Trazado 1948" d="M132.88,107.416a.21.21,0,0,1-.117-.035.215.215,0,0,1-.065-.3l.955-1.482a.216.216,0,0,1,.363.235l-.954,1.482a.217.217,0,0,1-.182.1" fill="#3e4225"/>
    <path id="Trazado_1949" data-name="Trazado 1949" d="M143.7,98.409a.217.217,0,0,1-.136-.048,35.634,35.634,0,0,0-9.238-5.434.217.217,0,0,1-.121-.281.219.219,0,0,1,.282-.121,36.063,36.063,0,0,1,9.349,5.5.216.216,0,0,1-.136.384" fill="#3e4225"/>
    <path id="Trazado_1950" data-name="Trazado 1950" d="M146.936,101.735a.218.218,0,0,1-.17-.082l-1.346-1.695a.216.216,0,0,1,.338-.269l1.348,1.695a.219.219,0,0,1-.036.305.216.216,0,0,1-.134.046" fill="#3e4225"/>
    <path id="Trazado_1951" data-name="Trazado 1951" d="M127.5,84.693a.216.216,0,0,1-.166-.355,52.888,52.888,0,0,1,6.132-6.245.216.216,0,1,1,.282.328,52.414,52.414,0,0,0-6.082,6.194.214.214,0,0,1-.166.078" fill="#3e4225"/>
    <path id="Trazado_1952" data-name="Trazado 1952" d="M124.606,88.287a.213.213,0,0,1-.1-.026.216.216,0,0,1-.087-.293,4.968,4.968,0,0,1,1.416-1.629.216.216,0,1,1,.256.348,4.536,4.536,0,0,0-1.292,1.487.216.216,0,0,1-.19.113" fill="#3e4225"/>
    <path id="Trazado_1953" data-name="Trazado 1953" d="M126.37,88.731a.211.211,0,0,1-.124-.04.214.214,0,0,1-.053-.3,28.192,28.192,0,0,1,7.094-7.017.218.218,0,0,1,.3.056.214.214,0,0,1-.055.3,27.8,27.8,0,0,0-6.985,6.909.217.217,0,0,1-.177.092" fill="#3e4225"/>
    <path id="Trazado_1954" data-name="Trazado 1954" d="M138,79.085a.215.215,0,0,1-.129-.043,19.9,19.9,0,0,0-3.993-2.308.216.216,0,0,1,.172-.4A20.392,20.392,0,0,1,138.13,78.7a.216.216,0,0,1-.129.389" fill="#3e4225"/>
    <path id="Trazado_1955" data-name="Trazado 1955" d="M143.8,105.375a.215.215,0,0,1-.137-.049,37.984,37.984,0,0,0-8.377-5.2.216.216,0,0,1-.107-.286.213.213,0,0,1,.286-.108,38.45,38.45,0,0,1,8.472,5.262.217.217,0,0,1-.137.384" fill="#3e4225"/>
    <path id="Trazado_1956" data-name="Trazado 1956" d="M144.664,117.385a.212.212,0,0,1-.16-.072,22.476,22.476,0,0,0-6.45-4.963.216.216,0,0,1,.2-.385,22.938,22.938,0,0,1,6.574,5.059.215.215,0,0,1-.017.305.209.209,0,0,1-.144.056" fill="#3e4225"/>
    <path id="Trazado_1957" data-name="Trazado 1957" d="M107.991,137.865a14.671,14.671,0,0,1-8.762-2.964c-4.975-3.757-7.034-9.62-7.885-13.876a35.653,35.653,0,0,1,2.119-20.287c1.746-4.254,11.695-13.281,12.118-13.664a.873.873,0,0,1,.724-.211.864.864,0,0,1,.615.439c.592,1.086,14.488,26.674,14,34.688-.4,6.546-2.428,11.18-6.035,13.775a11.765,11.765,0,0,1-6.9,2.1m-2.064-48.757c-2.43,2.262-9.536,9.053-10.864,12.287a33.912,33.912,0,0,0-2.023,19.29c1.12,5.6,3.688,10.16,7.231,12.836,4.176,3.152,9.9,3.5,13.6.84,3.942-2.835,5.068-8.35,5.319-12.476.406-6.686-10.7-27.951-13.268-32.777" fill="#3e4225"/>
    <path id="Trazado_1958" data-name="Trazado 1958" d="M107.732,137a.433.433,0,0,1-.416-.312,98.067,98.067,0,0,1-1.55-48.483.432.432,0,0,1,.844.188,97.178,97.178,0,0,0,1.538,48.054.434.434,0,0,1-.3.536.426.426,0,0,1-.121.017" fill="#3e4225"/>
    <path id="Trazado_1959" data-name="Trazado 1959" d="M93.141,124.081a.216.216,0,0,1-.2-.3,32.854,32.854,0,0,1,10.273-13.548.216.216,0,0,1,.265.342,32.431,32.431,0,0,0-10.138,13.37.217.217,0,0,1-.2.134" fill="#3e4225"/>
    <path id="Trazado_1960" data-name="Trazado 1960" d="M117.614,131.3a.214.214,0,0,1-.168-.08,49.852,49.852,0,0,0-13.018-11.357.216.216,0,0,1,.223-.37,50.26,50.26,0,0,1,13.131,11.455.216.216,0,0,1-.168.352" fill="#3e4225"/>
    <path id="Trazado_1961" data-name="Trazado 1961" d="M116.925,110.922a.218.218,0,0,1-.169-.081,39.376,39.376,0,0,0-12.15-10.57.216.216,0,1,1,.206-.38,39.784,39.784,0,0,1,12.282,10.68.216.216,0,0,1-.034.3.213.213,0,0,1-.135.047" fill="#3e4225"/>
    <path id="Trazado_1962" data-name="Trazado 1962" d="M96.163,109.415a.216.216,0,0,1-.173-.346,22.367,22.367,0,0,1,7.976-6.647.216.216,0,1,1,.192.387,21.933,21.933,0,0,0-7.822,6.519.214.214,0,0,1-.173.087" fill="#3e4225"/>
    <path id="Trazado_1963" data-name="Trazado 1963" d="M94.165,112.673a.2.2,0,0,1-.076-.014.217.217,0,0,1-.127-.278,3.431,3.431,0,0,1,.826-1.258.216.216,0,1,1,.3.311,2.974,2.974,0,0,0-.721,1.1.218.218,0,0,1-.2.14" fill="#3e4225"/>
    <path id="Trazado_1964" data-name="Trazado 1964" d="M97.049,128.5a.183.183,0,0,1-.069-.012.214.214,0,0,1-.135-.274,19.669,19.669,0,0,1,3.4-6.137.216.216,0,0,1,.335.274,19.247,19.247,0,0,0-3.332,6,.215.215,0,0,1-.2.147" fill="#3e4225"/>
    <path id="Trazado_1965" data-name="Trazado 1965" d="M101.228,121.177a.216.216,0,0,1-.167-.353l1-1.221a.216.216,0,1,1,.334.275l-1,1.22a.217.217,0,0,1-.167.079" fill="#3e4225"/>
    <path id="Trazado_1966" data-name="Trazado 1966" d="M111.782,114.282a.217.217,0,0,1-.155-.065,31.868,31.868,0,0,0-7.65-5.781.216.216,0,1,1,.207-.38,32.3,32.3,0,0,1,7.753,5.859.215.215,0,0,1,0,.305.213.213,0,0,1-.151.062" fill="#3e4225"/>
    <path id="Trazado_1967" data-name="Trazado 1967" d="M114.316,117.575a.213.213,0,0,1-.183-.1l-1.024-1.646a.216.216,0,1,1,.367-.229l1.023,1.647a.215.215,0,0,1-.069.3.207.207,0,0,1-.114.033" fill="#3e4225"/>
    <path id="Trazado_1968" data-name="Trazado 1968" d="M98.79,100.414a.216.216,0,0,1-.15-.372,47.356,47.356,0,0,1,6.1-4.926.216.216,0,0,1,.243.358,46.779,46.779,0,0,0-6.044,4.88.219.219,0,0,1-.15.06" fill="#3e4225"/>
    <path id="Trazado_1969" data-name="Trazado 1969" d="M95.843,103.31a.219.219,0,0,1-.124-.039.215.215,0,0,1-.053-.3,4.47,4.47,0,0,1,1.435-1.309.216.216,0,1,1,.214.375,4.045,4.045,0,0,0-1.3,1.182.216.216,0,0,1-.177.092" fill="#3e4225"/>
    <path id="Trazado_1970" data-name="Trazado 1970" d="M97.367,103.887a.216.216,0,0,1-.161-.361,25.257,25.257,0,0,1,7.038-5.512.218.218,0,0,1,.292.09.215.215,0,0,1-.089.292,24.874,24.874,0,0,0-6.919,5.419.215.215,0,0,1-.161.072" fill="#3e4225"/>
    <path id="Trazado_1971" data-name="Trazado 1971" d="M108.705,96.509a.217.217,0,0,1-.149-.059,17.674,17.674,0,0,0-3.307-2.461.216.216,0,1,1,.216-.375,18.231,18.231,0,0,1,3.389,2.522.216.216,0,0,1-.149.373" fill="#3e4225"/>
    <path id="Trazado_1972" data-name="Trazado 1972" d="M111.149,120.488a.217.217,0,0,1-.156-.066,33.952,33.952,0,0,0-6.908-5.488.216.216,0,0,1-.073-.3.213.213,0,0,1,.3-.073,34.4,34.4,0,0,1,7,5.557.216.216,0,0,1-.155.367" fill="#3e4225"/>
    <path id="Trazado_1973" data-name="Trazado 1973" d="M110.68,131.258a.216.216,0,0,1-.177-.091,20.083,20.083,0,0,0-5.216-5.073.216.216,0,1,1,.24-.36,20.52,20.52,0,0,1,5.329,5.183.216.216,0,0,1-.176.341" fill="#3e4225"/>
    <path id="Trazado_1974" data-name="Trazado 1974" d="M77.945,151.6a14.515,14.515,0,0,1-10-4.169c-4.455-4.362-5.747-10.439-6.048-14.769a35.659,35.659,0,0,1,4.693-19.851c2.275-4,13.3-11.678,13.764-12a.864.864,0,0,1,1.3.4C82.1,102.36,92.611,129.514,91.1,137.4c-1.231,6.441-3.836,10.778-7.745,12.891a11.36,11.36,0,0,1-5.414,1.312m2.487-48.731c-2.7,1.933-10.615,7.761-12.344,10.8a33.914,33.914,0,0,0-4.47,18.874c.4,5.7,2.36,10.547,5.532,13.653,3.74,3.661,9.371,4.742,13.386,2.571,4.272-2.309,6.093-7.633,6.869-11.694,1.257-6.579-7.039-29.088-8.973-34.2" fill="#3e4225"/>
    <path id="Trazado_1975" data-name="Trazado 1975" d="M76.16,150.6a.432.432,0,0,1-.427-.366,98.051,98.051,0,0,1,4.655-48.284.433.433,0,1,1,.814.295A97.171,97.171,0,0,0,76.588,150.1a.433.433,0,0,1-.36.494.517.517,0,0,1-.068.005" fill="#3e4225"/>
    <path id="Trazado_1976" data-name="Trazado 1976" d="M63.312,135.928a.213.213,0,0,1-.106-.028.217.217,0,0,1-.082-.295A32.873,32.873,0,0,1,75.043,123.48a.217.217,0,1,1,.22.374A32.435,32.435,0,0,0,63.5,135.818a.216.216,0,0,1-.188.11" fill="#3e4225"/>
    <path id="Trazado_1977" data-name="Trazado 1977" d="M86.663,146.215a.213.213,0,0,1-.184-.1,49.864,49.864,0,0,0-11.461-12.926.216.216,0,1,1,.268-.338,50.239,50.239,0,0,1,11.561,13.038.215.215,0,0,1-.071.3.211.211,0,0,1-.113.032" fill="#3e4225"/>
    <path id="Trazado_1978" data-name="Trazado 1978" d="M88.582,125.915a.213.213,0,0,1-.184-.1,39.388,39.388,0,0,0-10.7-12.036.216.216,0,0,1,.253-.351,39.8,39.8,0,0,1,10.817,12.161.216.216,0,0,1-.071.3.211.211,0,0,1-.113.032" fill="#3e4225"/>
    <path id="Trazado_1979" data-name="Trazado 1979" d="M68.182,121.768a.216.216,0,0,1-.155-.367,22.356,22.356,0,0,1,8.76-5.573.216.216,0,1,1,.14.408,21.948,21.948,0,0,0-8.59,5.466.213.213,0,0,1-.155.066" fill="#3e4225"/>
    <path id="Trazado_1980" data-name="Trazado 1980" d="M65.785,124.744a.216.216,0,0,1-.191-.318,3.429,3.429,0,0,1,.979-1.142.217.217,0,0,1,.259.348,2.978,2.978,0,0,0-.856,1,.216.216,0,0,1-.191.115" fill="#3e4225"/>
    <path id="Trazado_1981" data-name="Trazado 1981" d="M66.623,140.811a.224.224,0,0,1-.1-.022.216.216,0,0,1-.1-.29,19.67,19.67,0,0,1,4.162-5.651.216.216,0,1,1,.3.314,19.251,19.251,0,0,0-4.072,5.528.218.218,0,0,1-.194.121" fill="#3e4225"/>
    <path id="Trazado_1982" data-name="Trazado 1982" d="M71.7,134.081a.216.216,0,0,1-.148-.373l1.149-1.083a.216.216,0,1,1,.3.314l-1.15,1.083a.213.213,0,0,1-.148.059" fill="#3e4225"/>
    <path id="Trazado_1983" data-name="Trazado 1983" d="M83.052,128.591a.217.217,0,0,1-.173-.086,31.865,31.865,0,0,0-6.849-6.711.217.217,0,1,1,.254-.351,32.328,32.328,0,0,1,6.941,6.8.216.216,0,0,1-.173.346" fill="#3e4225"/>
    <path id="Trazado_1984" data-name="Trazado 1984" d="M85.144,132.18a.216.216,0,0,1-.2-.127l-.805-1.763a.216.216,0,1,1,.394-.179l.805,1.763a.217.217,0,0,1-.107.287.221.221,0,0,1-.09.019" fill="#3e4225"/>
    <path id="Trazado_1985" data-name="Trazado 1985" d="M71.936,113.176a.216.216,0,0,1-.128-.39,47.216,47.216,0,0,1,6.68-4.105.216.216,0,0,1,.194.387,46.781,46.781,0,0,0-6.618,4.066.216.216,0,0,1-.128.042" fill="#3e4225"/>
    <path id="Trazado_1986" data-name="Trazado 1986" d="M68.645,115.672a.217.217,0,0,1-.16-.361,4.481,4.481,0,0,1,1.591-1.116.217.217,0,0,1,.164.4,4.027,4.027,0,0,0-1.435,1,.217.217,0,0,1-.16.071" fill="#3e4225"/>
    <path id="Trazado_1987" data-name="Trazado 1987" d="M70.082,116.44a.216.216,0,0,1-.142-.38,25.275,25.275,0,0,1,7.686-4.569.217.217,0,0,1,.152.406,24.772,24.772,0,0,0-7.554,4.491.222.222,0,0,1-.142.052" fill="#3e4225"/>
    <path id="Trazado_1988" data-name="Trazado 1988" d="M82.271,110.57a.217.217,0,0,1-.167-.079,17.791,17.791,0,0,0-2.967-2.864.216.216,0,0,1,.262-.344,18.147,18.147,0,0,1,3.039,2.934.216.216,0,0,1-.167.353" fill="#3e4225"/>
    <path id="Trazado_1989" data-name="Trazado 1989" d="M81.631,134.665a.217.217,0,0,1-.174-.087,33.964,33.964,0,0,0-6.151-6.326.216.216,0,0,1-.035-.3.219.219,0,0,1,.3-.035,34.469,34.469,0,0,1,6.227,6.406.217.217,0,0,1-.172.346" fill="#3e4225"/>
    <path id="Trazado_1990" data-name="Trazado 1990" d="M79.79,145.287a.215.215,0,0,1-.191-.115,20.089,20.089,0,0,0-4.526-5.7.216.216,0,0,1,.283-.326,20.522,20.522,0,0,1,4.625,5.822.217.217,0,0,1-.09.293.213.213,0,0,1-.1.025" fill="#3e4225"/>
    <path id="Trazado_1991" data-name="Trazado 1991" d="M49.758,157.683a12.6,12.6,0,0,1-8.685-3.617c-3.858-3.776-4.976-9.031-5.237-12.774a30.785,30.785,0,0,1,4.05-17.13c1.969-3.458,11.463-10.077,11.867-10.357a.864.864,0,0,1,1.3.4c.386.991,9.435,24.363,8.134,31.174-1.066,5.576-3.326,9.332-6.719,11.165a9.894,9.894,0,0,1-4.709,1.142m2.077-41.818c-3.114,2.232-9.116,6.818-10.446,9.153a29.019,29.019,0,0,0-3.826,16.154c.337,4.868,2.013,9.009,4.719,11.658,3.178,3.11,7.954,4.031,11.362,2.189,3.63-1.961,5.181-6.5,5.843-9.967,1.063-5.565-5.9-24.533-7.652-29.187" fill="#3e4225"/>
    <path id="Trazado_1992" data-name="Trazado 1992" d="M48.223,156.764a.431.431,0,0,1-.426-.366,84.336,84.336,0,0,1,4-41.531.439.439,0,0,1,.554-.26.434.434,0,0,1,.261.554,83.452,83.452,0,0,0-3.963,41.1.433.433,0,0,1-.36.494.52.52,0,0,1-.068.005" fill="#3e4225"/>
    <path id="Trazado_1993" data-name="Trazado 1993" d="M37.179,144.119a.213.213,0,0,1-.106-.028.217.217,0,0,1-.082-.295,28.3,28.3,0,0,1,10.256-10.433.217.217,0,1,1,.22.374,27.845,27.845,0,0,0-10.1,10.272.216.216,0,0,1-.188.11" fill="#3e4225"/>
    <path id="Trazado_1994" data-name="Trazado 1994" d="M57.25,152.961a.213.213,0,0,1-.184-.1,42.815,42.815,0,0,0-9.845-11.1.216.216,0,0,1,.269-.338,43.206,43.206,0,0,1,9.944,11.214.215.215,0,0,1-.071.3.211.211,0,0,1-.113.032" fill="#3e4225"/>
    <path id="Trazado_1995" data-name="Trazado 1995" d="M58.9,135.513a.215.215,0,0,1-.184-.1,33.826,33.826,0,0,0-9.19-10.336.216.216,0,1,1,.253-.351,34.226,34.226,0,0,1,9.305,10.461.216.216,0,0,1-.071.3.211.211,0,0,1-.113.032" fill="#3e4225"/>
    <path id="Trazado_1996" data-name="Trazado 1996" d="M41.365,131.948a.214.214,0,0,1-.15-.061.216.216,0,0,1-.005-.306,19.249,19.249,0,0,1,7.542-4.8.216.216,0,0,1,.14.409,18.833,18.833,0,0,0-7.372,4.69.213.213,0,0,1-.155.066" fill="#3e4225"/>
    <path id="Trazado_1997" data-name="Trazado 1997" d="M39.305,134.507a.217.217,0,0,1-.192-.317,2.979,2.979,0,0,1,.852-.992.216.216,0,1,1,.256.348,2.516,2.516,0,0,0-.724.845.216.216,0,0,1-.192.116" fill="#3e4225"/>
    <path id="Trazado_1998" data-name="Trazado 1998" d="M40.025,148.317a.216.216,0,0,1-.194-.312,16.95,16.95,0,0,1,3.584-4.867.216.216,0,0,1,.3.315,16.527,16.527,0,0,0-3.493,4.743.216.216,0,0,1-.193.121" fill="#3e4225"/>
    <path id="Trazado_1999" data-name="Trazado 1999" d="M44.391,142.532a.216.216,0,0,1-.148-.373l.988-.93a.216.216,0,0,1,.3.314l-.988.93a.217.217,0,0,1-.148.059" fill="#3e4225"/>
    <path id="Trazado_2000" data-name="Trazado 2000" d="M54.146,137.813a.218.218,0,0,1-.174-.086,27.323,27.323,0,0,0-5.88-5.762.218.218,0,0,1-.049-.3.221.221,0,0,1,.3-.049,27.828,27.828,0,0,1,5.971,5.853.216.216,0,0,1-.172.346" fill="#3e4225"/>
    <path id="Trazado_2001" data-name="Trazado 2001" d="M55.945,140.9a.216.216,0,0,1-.2-.127l-.692-1.516a.217.217,0,0,1,.108-.286.214.214,0,0,1,.286.107l.692,1.516a.216.216,0,0,1-.108.287.213.213,0,0,1-.089.019" fill="#3e4225"/>
    <path id="Trazado_2002" data-name="Trazado 2002" d="M44.592,124.564a.216.216,0,0,1-.128-.39,40.749,40.749,0,0,1,5.746-3.532.219.219,0,0,1,.29.1.216.216,0,0,1-.1.29,40.222,40.222,0,0,0-5.684,3.493.216.216,0,0,1-.128.042" fill="#3e4225"/>
    <path id="Trazado_2003" data-name="Trazado 2003" d="M41.763,126.709a.217.217,0,0,1-.16-.361,3.872,3.872,0,0,1,1.377-.967.217.217,0,0,1,.166.4,3.417,3.417,0,0,0-1.223.856.217.217,0,0,1-.16.071" fill="#3e4225"/>
    <path id="Trazado_2004" data-name="Trazado 2004" d="M43,127.369a.216.216,0,0,1-.142-.38,21.746,21.746,0,0,1,6.615-3.932.215.215,0,0,1,.278.127.218.218,0,0,1-.126.279,21.276,21.276,0,0,0-6.483,3.854.224.224,0,0,1-.142.052" fill="#3e4225"/>
    <path id="Trazado_2005" data-name="Trazado 2005" d="M53.474,122.324a.217.217,0,0,1-.167-.079,15.288,15.288,0,0,0-2.544-2.457.216.216,0,1,1,.261-.343,15.646,15.646,0,0,1,2.617,2.526.216.216,0,0,1-.167.353" fill="#3e4225"/>
    <path id="Trazado_2006" data-name="Trazado 2006" d="M52.924,143.034a.214.214,0,0,1-.173-.087,29.147,29.147,0,0,0-5.282-5.431.217.217,0,0,1,.269-.34,29.607,29.607,0,0,1,5.359,5.513.216.216,0,0,1-.173.345" fill="#3e4225"/>
    <path id="Trazado_2007" data-name="Trazado 2007" d="M51.342,152.163a.215.215,0,0,1-.191-.115,17.261,17.261,0,0,0-3.883-4.889.216.216,0,0,1,.284-.326,17.676,17.676,0,0,1,3.981,5.012.217.217,0,0,1-.09.293.213.213,0,0,1-.1.025" fill="#3e4225"/>
    <path id="Trazado_2008" data-name="Trazado 2008" d="M154.257,42.562a8.646,8.646,0,0,1-.883-.042,41.472,41.472,0,0,1-21.925-9.035c-3.879-3.216-8.734-8.55-9.826-15.695-1.044-6.826,2.2-13.724,7.709-16.4C133.956-.859,139.8-.375,146.7,2.826c8.459,3.922,27.008,32.337,27.793,33.545a.863.863,0,0,1-.436,1.287c-.593.21-13.9,4.9-19.8,4.9M135.615,1.754a12.517,12.517,0,0,0-5.526,1.189c-4.847,2.356-7.689,8.49-6.756,14.585.789,5.156,4.063,10.35,9.221,14.626a39.725,39.725,0,0,0,21,8.646c4.158.438,15.386-3.228,18.874-4.412-3.318-5-19.267-28.656-26.461-31.993a25.613,25.613,0,0,0-10.354-2.641" fill="#3e4225"/>
    <path id="Trazado_2009" data-name="Trazado 2009" d="M173.183,36.924a.436.436,0,0,1-.118-.016A114.32,114.32,0,0,1,124.18,8.466a.432.432,0,0,1,.606-.617A113.449,113.449,0,0,0,173.3,36.075a.433.433,0,0,1-.118.849" fill="#3e4225"/>
    <path id="Trazado_2010" data-name="Trazado 2010" d="M133.533,30.614a38.378,38.378,0,0,1-4.119-.222.217.217,0,0,1-.192-.239.2.2,0,0,1,.239-.191,37.914,37.914,0,0,0,19.363-3,.216.216,0,0,1,.174.4,38.33,38.33,0,0,1-15.465,3.259" fill="#3e4225"/>
    <path id="Trazado_2011" data-name="Trazado 2011" d="M140.05,21.009a.216.216,0,0,1-.216-.206,58.15,58.15,0,0,0-4.447-19.67.216.216,0,0,1,.4-.168,58.593,58.593,0,0,1,4.481,19.818.216.216,0,0,1-.206.226Z" fill="#3e4225"/>
    <path id="Trazado_2012" data-name="Trazado 2012" d="M160.265,31.7a.216.216,0,0,1-.216-.215c-.016-5.963-1.287-11.621-4.122-18.347a.216.216,0,1,1,.4-.167c2.857,6.78,4.139,12.49,4.155,18.512a.216.216,0,0,1-.215.217Z" fill="#3e4225"/>
    <path id="Trazado_2013" data-name="Trazado 2013" d="M146.169,35.418a.216.216,0,0,1-.031-.43,25.63,25.63,0,0,0,11.042-4.425.216.216,0,1,1,.25.353,26.052,26.052,0,0,1-11.23,4.5.163.163,0,0,1-.031,0" fill="#3e4225"/>
    <path id="Trazado_2014" data-name="Trazado 2014" d="M142.222,35.7a3.984,3.984,0,0,1-.535-.036.217.217,0,1,1,.059-.429,3.521,3.521,0,0,0,1.543-.133.219.219,0,0,1,.272.14.216.216,0,0,1-.14.272,3.94,3.94,0,0,1-1.2.186" fill="#3e4225"/>
    <path id="Trazado_2015" data-name="Trazado 2015" d="M130.851,24.249a22.992,22.992,0,0,1-3.823-.321.214.214,0,0,1-.177-.248.211.211,0,0,1,.248-.178,22.577,22.577,0,0,0,8.023-.094.213.213,0,0,1,.253.171.215.215,0,0,1-.172.253,22.957,22.957,0,0,1-4.352.417" fill="#3e4225"/>
    <path id="Trazado_2016" data-name="Trazado 2016" d="M136.9,23.7a.216.216,0,0,1-.041-.428l1.808-.353a.216.216,0,0,1,.083.424l-1.809.353a.3.3,0,0,1-.041,0" fill="#3e4225"/>
    <path id="Trazado_2017" data-name="Trazado 2017" d="M151.534,27.816a.216.216,0,0,1-.216-.216,37.209,37.209,0,0,0-1.7-11.069.216.216,0,0,1,.412-.128,37.627,37.627,0,0,1,1.718,11.2.216.216,0,0,1-.216.216" fill="#3e4225"/>
    <path id="Trazado_2018" data-name="Trazado 2018" d="M148.974,14.221a.213.213,0,0,1-.187-.109l-1.124-1.963a.216.216,0,1,1,.375-.214l1.123,1.962a.215.215,0,0,1-.08.3.208.208,0,0,1-.107.029" fill="#3e4225"/>
    <path id="Trazado_2019" data-name="Trazado 2019" d="M156.865,37.71a.216.216,0,0,1-.067-.422,54.614,54.614,0,0,0,8.365-3.5.216.216,0,0,1,.2.384,55.225,55.225,0,0,1-8.43,3.533.222.222,0,0,1-.067.01" fill="#3e4225"/>
    <path id="Trazado_2020" data-name="Trazado 2020" d="M152.259,39.129a.216.216,0,0,1-.025-.431,4.765,4.765,0,0,0,1.946-.68.212.212,0,0,1,.3.069.216.216,0,0,1-.069.3,5.163,5.163,0,0,1-2.124.743l-.025,0" fill="#3e4225"/>
    <path id="Trazado_2021" data-name="Trazado 2021" d="M152.511,37.245a.216.216,0,0,1-.05-.427,29.044,29.044,0,0,0,9.408-4.1.216.216,0,1,1,.24.359,29.462,29.462,0,0,1-9.548,4.167.22.22,0,0,1-.05.006" fill="#3e4225"/>
    <path id="Trazado_2022" data-name="Trazado 2022" d="M167.071,34.511a.216.216,0,0,1-.216-.21,20.729,20.729,0,0,0-.695-4.769.215.215,0,0,1,.153-.265.218.218,0,0,1,.264.153,21.106,21.106,0,0,1,.71,4.869.215.215,0,0,1-.21.222Z" fill="#3e4225"/>
    <path id="Trazado_2023" data-name="Trazado 2023" d="M144.922,24.095a.216.216,0,0,1-.216-.206A39.7,39.7,0,0,0,142.9,13.745a.216.216,0,0,1,.141-.271.218.218,0,0,1,.271.141,40.069,40.069,0,0,1,1.828,10.254.217.217,0,0,1-.206.226Z" fill="#3e4225"/>
    <path id="Trazado_2024" data-name="Trazado 2024" d="M134.13,16.664a.216.216,0,0,1-.215-.2,23.52,23.52,0,0,0-2.322-8.18.216.216,0,1,1,.388-.191,23.934,23.934,0,0,1,2.364,8.331.217.217,0,0,1-.2.235h-.02" fill="#3e4225"/>
    <path id="Trazado_2025" data-name="Trazado 2025" d="M127.447,65.17a10.443,10.443,0,0,1-1.785-.131,39.727,39.727,0,0,1-20.35-10.111c-3.494-3.336-7.775-8.765-8.341-15.673-.539-6.6,3.03-12.99,8.488-15.183,4.575-1.84,10.13-.983,16.517,2.543,7.824,4.319,23.634,32.71,24.3,33.917a.865.865,0,0,1-.525,1.253c-.55.153-12.286,3.385-18.307,3.385M106.506,53.678a37.992,37.992,0,0,0,19.458,9.658c3.9.688,14.8-2.024,18.258-2.932-2.882-5.087-16.463-28.62-23.082-32.276-4.062-2.242-9.971-4.488-15.036-2.451-4.772,1.917-7.888,7.569-7.409,13.438.407,4.966,3.181,10.139,7.811,14.563" fill="#3e4225"/>
    <path id="Trazado_2026" data-name="Trazado 2026" d="M144.991,61.009a.445.445,0,0,1-.147-.025,109.473,109.473,0,0,1-44.782-30.452.433.433,0,0,1,.649-.572,108.569,108.569,0,0,0,44.427,30.209.433.433,0,0,1-.147.84" fill="#3e4225"/>
    <path id="Trazado_2027" data-name="Trazado 2027" d="M110.093,52.4a36.635,36.635,0,0,1-6.493-.58.216.216,0,0,1,.076-.426,36.262,36.262,0,0,0,18.688-1.566.218.218,0,0,1,.277.13.215.215,0,0,1-.13.277A36.688,36.688,0,0,1,110.093,52.4" fill="#3e4225"/>
    <path id="Trazado_2028" data-name="Trazado 2028" d="M114.4,43.575h0a.216.216,0,0,1-.211-.221,55.7,55.7,0,0,0-2.925-19.081.216.216,0,1,1,.41-.139,56.145,56.145,0,0,1,2.947,19.23.216.216,0,0,1-.216.211" fill="#3e4225"/>
    <path id="Trazado_2029" data-name="Trazado 2029" d="M132.991,55.139h-.014a.214.214,0,0,1-.2-.23,44.032,44.032,0,0,0-2.7-17.793.217.217,0,0,1,.134-.275.213.213,0,0,1,.275.135,44.431,44.431,0,0,1,2.724,17.962.216.216,0,0,1-.215.2" fill="#3e4225"/>
    <path id="Trazado_2030" data-name="Trazado 2030" d="M119.279,57.746a.216.216,0,0,1-.016-.432A24.522,24.522,0,0,0,130.1,53.832a.216.216,0,0,1,.224.37,24.952,24.952,0,0,1-11.03,3.543h-.016" fill="#3e4225"/>
    <path id="Trazado_2031" data-name="Trazado 2031" d="M115.743,57.757a3.754,3.754,0,0,1-.777-.081.215.215,0,0,1-.166-.256.212.212,0,0,1,.256-.167,3.318,3.318,0,0,0,1.477-.023.215.215,0,0,1,.262.159.218.218,0,0,1-.159.261,3.781,3.781,0,0,1-.893.107" fill="#3e4225"/>
    <path id="Trazado_2032" data-name="Trazado 2032" d="M106.924,46.1a21.981,21.981,0,0,1-5.168-.617.216.216,0,0,1-.16-.261.219.219,0,0,1,.261-.159,21.559,21.559,0,0,0,7.664.448.21.21,0,0,1,.241.189.215.215,0,0,1-.188.24,22.042,22.042,0,0,1-2.65.16" fill="#3e4225"/>
    <path id="Trazado_2033" data-name="Trazado 2033" d="M111.214,45.932a.216.216,0,0,1-.026-.431l1.75-.215a.223.223,0,0,1,.241.188.217.217,0,0,1-.189.241l-1.75.215-.026,0" fill="#3e4225"/>
    <path id="Trazado_2034" data-name="Trazado 2034" d="M124.914,50.847H124.9a.214.214,0,0,1-.2-.23,35.667,35.667,0,0,0-.878-10.681.216.216,0,0,1,.421-.1,36.077,36.077,0,0,1,.887,10.811.215.215,0,0,1-.215.2" fill="#3e4225"/>
    <path id="Trazado_2035" data-name="Trazado 2035" d="M123.382,37.693a.218.218,0,0,1-.2-.122l-.941-1.951a.216.216,0,1,1,.39-.187l.941,1.95a.217.217,0,0,1-.1.289.225.225,0,0,1-.094.021" fill="#3e4225"/>
    <path id="Trazado_2036" data-name="Trazado 2036" d="M129.34,60.653a.216.216,0,0,1-.052-.426,52.384,52.384,0,0,0,8.222-2.784.217.217,0,0,1,.173.4,52.707,52.707,0,0,1-8.291,2.806.186.186,0,0,1-.052.007" fill="#3e4225"/>
    <path id="Trazado_2037" data-name="Trazado 2037" d="M124.845,61.7a.216.216,0,0,1-.01-.432,4.526,4.526,0,0,0,1.9-.517.219.219,0,0,1,.293.089.216.216,0,0,1-.09.292,4.952,4.952,0,0,1-2.082.568Z" fill="#3e4225"/>
    <path id="Trazado_2038" data-name="Trazado 2038" d="M125.213,59.917a.216.216,0,0,1-.036-.43,27.752,27.752,0,0,0,9.259-3.287.212.212,0,0,1,.294.08.215.215,0,0,1-.08.3,28.2,28.2,0,0,1-9.4,3.339.2.2,0,0,1-.035,0" fill="#3e4225"/>
    <path id="Trazado_2039" data-name="Trazado 2039" d="M139.3,58.285h-.009a.217.217,0,0,1-.207-.226,19.911,19.911,0,0,0-.343-4.6.216.216,0,0,1,.17-.253.208.208,0,0,1,.254.17,20.292,20.292,0,0,1,.351,4.7.216.216,0,0,1-.216.207" fill="#3e4225"/>
    <path id="Trazado_2040" data-name="Trazado 2040" d="M118.849,46.849h0a.216.216,0,0,1-.211-.221,37.98,37.98,0,0,0-1.045-9.807.216.216,0,1,1,.421-.1,38.394,38.394,0,0,1,1.056,9.918.216.216,0,0,1-.216.211" fill="#3e4225"/>
    <path id="Trazado_2041" data-name="Trazado 2041" d="M109.042,39.028a.216.216,0,0,1-.216-.211,22.494,22.494,0,0,0-1.667-7.965.217.217,0,0,1,.4-.164,22.9,22.9,0,0,1,1.7,8.119.216.216,0,0,1-.211.221Z" fill="#3e4225"/>
    <path id="Trazado_2042" data-name="Trazado 2042" d="M102.968,84.554c-.134,0-.261,0-.385-.011a35.655,35.655,0,0,1-19.189-6.909c-3.464-2.617-7.85-7.021-9.069-13.134-1.17-5.855,1.365-11.944,6.027-14.476,3.9-2.12,8.96-1.934,15.029.553,7.429,3.045,24.433,26.683,25.153,27.687a.866.866,0,0,1-.378,1.306c-.513.209-12.326,4.984-17.188,4.984m-18.532-8.3a33.921,33.921,0,0,0,18.252,6.563c3.486.193,12.694-3.238,15.788-4.443-3.228-4.413-17.554-23.657-23.75-26.2-3.827-1.569-9.283-2.949-13.548-.633-4.013,2.18-6.182,7.486-5.157,12.616.869,4.354,3.857,8.648,8.415,12.093" fill="#3e4225"/>
    <path id="Trazado_2043" data-name="Trazado 2043" d="M119.32,78.924a.378.378,0,0,1-.1-.012A98.056,98.056,0,0,1,76.233,56.44a.432.432,0,1,1,.577-.643,97.2,97.2,0,0,0,42.609,22.274.432.432,0,0,1-.1.853" fill="#3e4225"/>
    <path id="Trazado_2044" data-name="Trazado 2044" d="M83.659,75.06q-1.027,0-2.056-.065a.216.216,0,0,1,.027-.431,32.471,32.471,0,0,0,16.447-3.318.216.216,0,1,1,.193.386A32.865,32.865,0,0,1,83.659,75.06" fill="#3e4225"/>
    <path id="Trazado_2045" data-name="Trazado 2045" d="M90.34,66.549a.216.216,0,0,1-.215-.2,49.867,49.867,0,0,0-4.567-16.661.216.216,0,0,1,.39-.184,50.245,50.245,0,0,1,4.607,16.8.216.216,0,0,1-.195.236h-.02" fill="#3e4225"/>
    <path id="Trazado_2046" data-name="Trazado 2046" d="M108.064,74.917a.216.216,0,0,1-.216-.206,39.365,39.365,0,0,0-4.237-15.537.216.216,0,0,1,.39-.186,39.782,39.782,0,0,1,4.279,15.7.217.217,0,0,1-.206.226Z" fill="#3e4225"/>
    <path id="Trazado_2047" data-name="Trazado 2047" d="M96.138,78.651a.216.216,0,0,1-.041-.428,21.963,21.963,0,0,0,9.271-4.212.216.216,0,0,1,.265.342,22.373,22.373,0,0,1-9.454,4.294.2.2,0,0,1-.041,0" fill="#3e4225"/>
    <path id="Trazado_2048" data-name="Trazado 2048" d="M92.624,79.046c-.1,0-.206,0-.309-.014a.217.217,0,0,1-.195-.236.21.21,0,0,1,.235-.195,2.978,2.978,0,0,0,1.3-.172.216.216,0,1,1,.15.4,3.412,3.412,0,0,1-1.183.212" fill="#3e4225"/>
    <path id="Trazado_2049" data-name="Trazado 2049" d="M81.712,69.7a19.8,19.8,0,0,1-2.4-.147.216.216,0,0,1-.188-.241.212.212,0,0,1,.24-.188,19.283,19.283,0,0,0,6.855-.391.216.216,0,1,1,.1.42,19.64,19.64,0,0,1-4.6.547" fill="#3e4225"/>
    <path id="Trazado_2050" data-name="Trazado 2050" d="M87.747,68.975a.216.216,0,0,1-.051-.426l1.535-.372a.216.216,0,1,1,.1.42l-1.534.372a.222.222,0,0,1-.051.006" fill="#3e4225"/>
    <path id="Trazado_2051" data-name="Trazado 2051" d="M100.438,71.933a.217.217,0,0,1-.217-.206,31.864,31.864,0,0,0-1.881-9.4.216.216,0,0,1,.407-.147,32.311,32.311,0,0,1,1.906,9.53.217.217,0,0,1-.206.226Z" fill="#3e4225"/>
    <path id="Trazado_2052" data-name="Trazado 2052" d="M97.719,60.392a.216.216,0,0,1-.182-.1L96.5,58.654a.216.216,0,0,1,.365-.232L97.9,60.06a.216.216,0,0,1-.182.332" fill="#3e4225"/>
    <path id="Trazado_2053" data-name="Trazado 2053" d="M105.386,80.2a.216.216,0,0,1-.2-.14.219.219,0,0,1,.127-.279,46.829,46.829,0,0,0,7.022-3.323.216.216,0,0,1,.216.374,47.355,47.355,0,0,1-7.086,3.355.225.225,0,0,1-.076.013" fill="#3e4225"/>
    <path id="Trazado_2054" data-name="Trazado 2054" d="M101.5,81.592a.216.216,0,0,1-.035-.43,4.02,4.02,0,0,0,1.627-.653.219.219,0,0,1,.3.056.216.216,0,0,1-.056.3,4.472,4.472,0,0,1-1.8.724l-.035,0" fill="#3e4225"/>
    <path id="Trazado_2055" data-name="Trazado 2055" d="M101.64,79.968a.216.216,0,0,1-.061-.424,24.845,24.845,0,0,0,7.887-3.875.217.217,0,1,1,.258.348A25.284,25.284,0,0,1,101.7,79.96a.261.261,0,0,1-.06.008" fill="#3e4225"/>
    <path id="Trazado_2056" data-name="Trazado 2056" d="M114,77.063a.216.216,0,0,1-.215-.2,17.851,17.851,0,0,0-.779-4.05.215.215,0,0,1,.141-.271.218.218,0,0,1,.271.141,18.144,18.144,0,0,1,.8,4.148.214.214,0,0,1-.2.231H114" fill="#3e4225"/>
    <path id="Trazado_2057" data-name="Trazado 2057" d="M94.631,69a.216.216,0,0,1-.215-.2A33.974,33.974,0,0,0,92.477,60.2a.216.216,0,0,1,.406-.148,34.364,34.364,0,0,1,1.963,8.716.216.216,0,0,1-.2.235h-.019" fill="#3e4225"/>
    <path id="Trazado_2058" data-name="Trazado 2058" d="M85.1,63.059a.216.216,0,0,1-.214-.186,20.108,20.108,0,0,0-2.3-6.905.216.216,0,0,1,.378-.208,20.514,20.514,0,0,1,2.351,7.052.216.216,0,0,1-.184.245l-.03,0" fill="#3e4225"/>
    <path id="Trazado_2059" data-name="Trazado 2059" d="M75.584,101.665h-.106a35.656,35.656,0,0,1-19.462-6.105c-3.569-2.47-8.134-6.686-9.608-12.744-1.411-5.8.868-11.991,5.42-14.715,3.811-2.28,8.871-2.306,15.04-.073,7.547,2.732,25.522,25.642,26.284,26.616a.867.867,0,0,1-.323,1.321c-.515.234-12.567,5.7-17.245,5.7M58.547,68.122a11.219,11.219,0,0,0-5.831,1.463c-3.918,2.345-5.864,7.736-4.627,12.821,1.05,4.314,4.214,8.48,8.911,11.73a33.908,33.908,0,0,0,18.51,5.8c3.5.085,12.548-3.762,15.589-5.1-3.409-4.275-18.523-22.9-24.821-25.185a23.4,23.4,0,0,0-7.731-1.531" fill="#3e4225"/>
    <path id="Trazado_2060" data-name="Trazado 2060" d="M91.948,95.353a.456.456,0,0,1-.082-.008A98.056,98.056,0,0,1,47.979,74.683a.433.433,0,1,1,.55-.668A97.2,97.2,0,0,0,92.028,94.5a.432.432,0,0,1-.08.857" fill="#3e4225"/>
    <path id="Trazado_2061" data-name="Trazado 2061" d="M54.81,93.006q-.347,0-.693-.008a.216.216,0,0,1,.005-.432h0a32.446,32.446,0,0,0,16.3-4,.213.213,0,0,1,.293.085.216.216,0,0,1-.085.293,32.875,32.875,0,0,1-15.82,4.062" fill="#3e4225"/>
    <path id="Trazado_2062" data-name="Trazado 2062" d="M62.486,84.2a.217.217,0,0,1-.214-.187,49.818,49.818,0,0,0-5.258-16.455.217.217,0,1,1,.384-.2,50.269,50.269,0,0,1,5.3,16.6.217.217,0,0,1-.185.244l-.03,0" fill="#3e4225"/>
    <path id="Trazado_2063" data-name="Trazado 2063" d="M80.543,91.817a.216.216,0,0,1-.215-.2,39.4,39.4,0,0,0-4.881-15.346.217.217,0,0,1,.09-.293.215.215,0,0,1,.292.09,39.8,39.8,0,0,1,4.929,15.51.216.216,0,0,1-.2.235h-.019" fill="#3e4225"/>
    <path id="Trazado_2064" data-name="Trazado 2064" d="M68.783,96.045a.216.216,0,0,1-.05-.427,21.916,21.916,0,0,0,9.086-4.593.216.216,0,1,1,.28.33,22.367,22.367,0,0,1-9.266,4.684.22.22,0,0,1-.05.006" fill="#3e4225"/>
    <path id="Trazado_2065" data-name="Trazado 2065" d="M65.16,96.589c-.057,0-.115,0-.171,0a.218.218,0,0,1-.206-.227.228.228,0,0,1,.227-.206,2.968,2.968,0,0,0,1.295-.224.216.216,0,0,1,.167.4,3.426,3.426,0,0,1-1.312.263" fill="#3e4225"/>
    <path id="Trazado_2066" data-name="Trazado 2066" d="M53.186,87.721q-.793,0-1.588-.064a.215.215,0,0,1-.2-.232.219.219,0,0,1,.232-.2,19.213,19.213,0,0,0,6.832-.676.216.216,0,0,1,.118.416,19.628,19.628,0,0,1-5.4.755" fill="#3e4225"/>
    <path id="Trazado_2067" data-name="Trazado 2067" d="M59.995,86.727a.216.216,0,0,1-.06-.424l1.519-.435a.214.214,0,0,1,.268.148.217.217,0,0,1-.148.268l-1.519.435a.247.247,0,0,1-.06.008" fill="#3e4225"/>
    <path id="Trazado_2068" data-name="Trazado 2068" d="M72.8,89.154a.216.216,0,0,1-.215-.2,31.9,31.9,0,0,0-2.271-9.315.218.218,0,0,1,.118-.283.216.216,0,0,1,.283.119,32.321,32.321,0,0,1,2.3,9.44.216.216,0,0,1-.2.235H72.8" fill="#3e4225"/>
    <path id="Trazado_2069" data-name="Trazado 2069" d="M69.6,77.737a.213.213,0,0,1-.177-.093l-1.106-1.593a.216.216,0,1,1,.355-.246l1.1,1.593a.216.216,0,0,1-.177.339" fill="#3e4225"/>
    <path id="Trazado_2070" data-name="Trazado 2070" d="M78.087,97.205A.216.216,0,0,1,78,96.79a46.99,46.99,0,0,0,6.878-3.612.216.216,0,1,1,.231.365,47.4,47.4,0,0,1-6.94,3.645.215.215,0,0,1-.085.017" fill="#3e4225"/>
    <path id="Trazado_2071" data-name="Trazado 2071" d="M74.259,98.76a.216.216,0,0,1-.044-.428,4.046,4.046,0,0,0,1.6-.72.22.22,0,0,1,.3.043.217.217,0,0,1-.043.3,4.491,4.491,0,0,1-1.771.8.341.341,0,0,1-.044,0" fill="#3e4225"/>
    <path id="Trazado_2072" data-name="Trazado 2072" d="M74.334,97.133a.216.216,0,0,1-.068-.421,24.844,24.844,0,0,0,7.719-4.2.216.216,0,1,1,.27.338A25.267,25.267,0,0,1,74.4,97.122a.2.2,0,0,1-.068.011" fill="#3e4225"/>
    <path id="Trazado_2073" data-name="Trazado 2073" d="M86.564,93.715a.216.216,0,0,1-.215-.192,17.815,17.815,0,0,0-.946-4.014.216.216,0,0,1,.407-.146,18.177,18.177,0,0,1,.968,4.111.214.214,0,0,1-.19.239l-.024,0" fill="#3e4225"/>
    <path id="Trazado_2074" data-name="Trazado 2074" d="M66.876,86.468a.217.217,0,0,1-.215-.187,33.977,33.977,0,0,0-2.3-8.52.215.215,0,0,1,.116-.282.212.212,0,0,1,.282.117,34.361,34.361,0,0,1,2.326,8.627.216.216,0,0,1-.185.243l-.029,0" fill="#3e4225"/>
    <path id="Trazado_2075" data-name="Trazado 2075" d="M57.108,80.927a.218.218,0,0,1-.213-.177,20.075,20.075,0,0,0-2.586-6.8.217.217,0,1,1,.37-.225,20.535,20.535,0,0,1,2.642,6.949.218.218,0,0,1-.174.252l-.039,0" fill="#3e4225"/>
    <path id="Trazado_2076" data-name="Trazado 2076" d="M45.139,114.838a8.054,8.054,0,0,1-1.381-.1,30.777,30.777,0,0,1-15.774-7.809c-2.717-2.588-6.049-6.8-6.5-12.179-.43-5.167,2.363-10.169,6.639-11.9,3.576-1.442,7.912-.787,12.885,1.949,6.074,3.342,18.3,25.22,18.818,26.15a.864.864,0,0,1-.523,1.254c-.426.119-9.5,2.632-14.167,2.632m-15.962-9.163a29.031,29.031,0,0,0,14.882,7.359c2.643.465,10.007-1.231,13.713-2.2-2.464-4.322-12.633-21.781-17.6-24.512-3.09-1.7-7.576-3.4-11.4-1.859-3.591,1.45-5.931,5.717-5.563,10.147.315,3.774,2.434,7.7,5.967,11.071Z" fill="#3e4225"/>
    <path id="Trazado_2077" data-name="Trazado 2077" d="M58.664,111.519a.437.437,0,0,1-.147-.025A84.34,84.34,0,0,1,23.982,88.082a.432.432,0,1,1,.647-.573,83.454,83.454,0,0,0,34.181,23.17.433.433,0,0,1-.146.84" fill="#3e4225"/>
    <path id="Trazado_2078" data-name="Trazado 2078" d="M31.757,104.882a28.2,28.2,0,0,1-4.965-.44.217.217,0,0,1-.175-.251.213.213,0,0,1,.251-.175,27.85,27.85,0,0,0,14.354-1.224.218.218,0,0,1,.277.13.215.215,0,0,1-.13.277,28.282,28.282,0,0,1-9.612,1.683" fill="#3e4225"/>
    <path id="Trazado_2079" data-name="Trazado 2079" d="M35.106,98.086h0a.215.215,0,0,1-.212-.22A42.8,42.8,0,0,0,32.62,83.2a.216.216,0,1,1,.409-.139,43.214,43.214,0,0,1,2.293,14.811.216.216,0,0,1-.216.212" fill="#3e4225"/>
    <path id="Trazado_2080" data-name="Trazado 2080" d="M49.423,106.964h-.014a.214.214,0,0,1-.2-.23,33.855,33.855,0,0,0-2.1-13.67.216.216,0,0,1,.134-.275.213.213,0,0,1,.274.134,34.211,34.211,0,0,1,2.12,13.84.216.216,0,0,1-.215.2" fill="#3e4225"/>
    <path id="Trazado_2081" data-name="Trazado 2081" d="M38.873,108.987a.216.216,0,0,1-.017-.432,18.821,18.821,0,0,0,8.316-2.685.219.219,0,0,1,.3.073.216.216,0,0,1-.073.3,19.263,19.263,0,0,1-8.506,2.746h-.017" fill="#3e4225"/>
    <path id="Trazado_2082" data-name="Trazado 2082" d="M36.147,109a2.9,2.9,0,0,1-.6-.062.215.215,0,0,1-.167-.256.222.222,0,0,1,.256-.168,2.485,2.485,0,0,0,1.115-.019.216.216,0,1,1,.1.42,2.923,2.923,0,0,1-.7.085" fill="#3e4225"/>
    <path id="Trazado_2083" data-name="Trazado 2083" d="M29.329,100.042a17,17,0,0,1-3.966-.471.217.217,0,0,1-.159-.261.22.22,0,0,1,.261-.16,16.526,16.526,0,0,0,5.88.336.225.225,0,0,1,.241.189.216.216,0,0,1-.188.24,16.91,16.91,0,0,1-2.069.127" fill="#3e4225"/>
    <path id="Trazado_2084" data-name="Trazado 2084" d="M32.654,99.9a.216.216,0,0,1-.027-.431l1.346-.167a.211.211,0,0,1,.242.188.216.216,0,0,1-.188.241l-1.346.167-.027,0" fill="#3e4225"/>
    <path id="Trazado_2085" data-name="Trazado 2085" d="M43.2,103.671h-.014a.214.214,0,0,1-.2-.23,27.409,27.409,0,0,0-.687-8.2.216.216,0,0,1,.16-.26.213.213,0,0,1,.261.161,27.765,27.765,0,0,1,.7,8.332.216.216,0,0,1-.215.2" fill="#3e4225"/>
    <path id="Trazado_2086" data-name="Trazado 2086" d="M42.009,93.55a.215.215,0,0,1-.194-.122l-.727-1.5a.216.216,0,0,1,.389-.189l.726,1.5a.216.216,0,0,1-.194.311" fill="#3e4225"/>
    <path id="Trazado_2087" data-name="Trazado 2087" d="M46.62,111.212a.216.216,0,0,1-.052-.426,40.2,40.2,0,0,0,6.316-2.149.216.216,0,1,1,.172.4,40.749,40.749,0,0,1-6.384,2.171.186.186,0,0,1-.052.007" fill="#3e4225"/>
    <path id="Trazado_2088" data-name="Trazado 2088" d="M43.162,112.022a.216.216,0,0,1-.01-.432,3.461,3.461,0,0,0,1.441-.395.216.216,0,0,1,.2.382,3.888,3.888,0,0,1-1.623.445Z" fill="#3e4225"/>
    <path id="Trazado_2089" data-name="Trazado 2089" d="M43.442,110.65a.216.216,0,0,1-.036-.43,21.283,21.283,0,0,0,7.105-2.533.214.214,0,0,1,.295.08.216.216,0,0,1-.081.295,21.737,21.737,0,0,1-7.248,2.585.2.2,0,0,1-.035,0" fill="#3e4225"/>
    <path id="Trazado_2090" data-name="Trazado 2090" d="M54.283,109.378h-.008a.217.217,0,0,1-.208-.225,15.3,15.3,0,0,0-.269-3.527.215.215,0,0,1,.171-.253.212.212,0,0,1,.253.17,15.722,15.722,0,0,1,.277,3.627.216.216,0,0,1-.216.208" fill="#3e4225"/>
    <path id="Trazado_2091" data-name="Trazado 2091" d="M38.53,100.6h0a.216.216,0,0,1-.211-.221,29.135,29.135,0,0,0-.814-7.533.216.216,0,1,1,.421-.1,29.583,29.583,0,0,1,.825,7.644.216.216,0,0,1-.216.211" fill="#3e4225"/>
    <path id="Trazado_2092" data-name="Trazado 2092" d="M30.975,94.594a.216.216,0,0,1-.216-.21,17.262,17.262,0,0,0-1.288-6.111.216.216,0,1,1,.4-.164,17.667,17.667,0,0,1,1.32,6.263.215.215,0,0,1-.21.222Z" fill="#3e4225"/>
    <path id="Trazado_2093" data-name="Trazado 2093" d="M10.665,152.27a10.253,10.253,0,0,1-2.951-.425C3.3,150.523.052,145.8,0,140.616c-.052-5.4,2.875-9.9,5.34-12.73a30.779,30.779,0,0,1,14.983-9.237c3.838-1.05,15.232.992,15.714,1.08a.865.865,0,0,1,.638,1.2c-.429.974-10.575,23.891-16.315,27.783-3.492,2.367-6.741,3.558-9.7,3.558M6.646,129.023C3.44,132.7,1.694,136.813,1.731,140.6c.042,4.445,2.767,8.478,6.478,9.589,3.949,1.183,8.263-.93,11.181-2.909,4.69-3.178,13.2-21.505,15.249-26.037-3.778-.627-11.265-1.633-13.858-.924a29.015,29.015,0,0,0-14.135,8.7" fill="#3e4225"/>
    <path id="Trazado_2094" data-name="Trazado 2094" d="M3.45,147.71a.433.433,0,0,1-.349-.687A84.321,84.321,0,0,1,35.32,120.512a.433.433,0,1,1,.366.784A83.461,83.461,0,0,0,3.8,147.533a.434.434,0,0,1-.349.177" fill="#3e4225"/>
    <path id="Trazado_2095" data-name="Trazado 2095" d="M4.442,130.9a.216.216,0,0,1-.057-.425,28.282,28.282,0,0,1,14.629-.113.217.217,0,0,1,.155.264.22.22,0,0,1-.263.155A27.839,27.839,0,0,0,4.5,130.89a.2.2,0,0,1-.058.008" fill="#3e4225"/>
    <path id="Trazado_2096" data-name="Trazado 2096" d="M12.366,151.348a.237.237,0,0,1-.052-.006.216.216,0,0,1-.158-.261,42.83,42.83,0,0,0,.9-14.81.214.214,0,0,1,.19-.239.21.21,0,0,1,.239.19,43.154,43.154,0,0,1-.911,14.96.215.215,0,0,1-.209.166" fill="#3e4225"/>
    <path id="Trazado_2097" data-name="Trazado 2097" d="M25.879,140.187a.222.222,0,0,1-.051-.006.216.216,0,0,1-.159-.261,33.822,33.822,0,0,0,.821-13.806.216.216,0,1,1,.427-.069,34.206,34.206,0,0,1-.828,13.976.216.216,0,0,1-.21.166" fill="#3e4225"/>
    <path id="Trazado_2098" data-name="Trazado 2098" d="M24.638,127.185a.216.216,0,0,1-.1-.022,18.624,18.624,0,0,0-8.527-1.9h0a.216.216,0,0,1,0-.432,19.269,19.269,0,0,1,8.725,1.946.217.217,0,0,1-.1.411" fill="#3e4225"/>
    <path id="Trazado_2099" data-name="Trazado 2099" d="M12.747,125.61a.216.216,0,0,1-.065-.422,2.915,2.915,0,0,1,1.3-.1.216.216,0,1,1-.064.427,2.534,2.534,0,0,0-1.112.085.2.2,0,0,1-.063.01" fill="#3e4225"/>
    <path id="Trazado_2100" data-name="Trazado 2100" d="M3.482,135.877a.216.216,0,0,1-.07-.421,16.852,16.852,0,0,1,5.976-.9.217.217,0,0,1,.21.223.21.21,0,0,1-.222.21,16.489,16.489,0,0,0-5.824.879.2.2,0,0,1-.07.012" fill="#3e4225"/>
    <path id="Trazado_2101" data-name="Trazado 2101" d="M12.018,134.922h-.007l-1.317-.041a.234.234,0,0,1-.229-.223c0-.12.1-.225.2-.211l1.358.043a.216.216,0,0,1-.007.432" fill="#3e4225"/>
    <path id="Trazado_2102" data-name="Trazado 2102" d="M20.892,138.449a.153.153,0,0,1-.03,0,.214.214,0,0,1-.184-.244,27.34,27.34,0,0,0-.077-8.232.217.217,0,0,1,.428-.069,27.808,27.808,0,0,1,.077,8.362.216.216,0,0,1-.214.186" fill="#3e4225"/>
    <path id="Trazado_2103" data-name="Trazado 2103" d="M19.98,141.9a.2.2,0,0,1-.076-.014.218.218,0,0,1-.127-.278l.585-1.561a.216.216,0,1,1,.405.152l-.584,1.561a.216.216,0,0,1-.2.14" fill="#3e4225"/>
    <path id="Trazado_2104" data-name="Trazado 2104" d="M30.042,123.89a.2.2,0,0,1-.068-.011,40.365,40.365,0,0,0-6.487-1.555.216.216,0,0,1-.181-.247.224.224,0,0,1,.246-.18,40.767,40.767,0,0,1,6.558,1.571.217.217,0,0,1,.137.273.214.214,0,0,1-.2.149" fill="#3e4225"/>
    <path id="Trazado_2105" data-name="Trazado 2105" d="M21.565,122.116a.2.2,0,0,1-.083-.017,3.479,3.479,0,0,0-1.47-.259.217.217,0,1,1-.021-.433,3.918,3.918,0,0,1,1.657.294.216.216,0,0,1-.083.415" fill="#3e4225"/>
    <path id="Trazado_2106" data-name="Trazado 2106" d="M27.79,125.064a.213.213,0,0,1-.089-.019,21.294,21.294,0,0,0-7.309-1.866.216.216,0,0,1,.016-.432h.016a21.735,21.735,0,0,1,7.456,1.9.216.216,0,0,1-.09.413" fill="#3e4225"/>
    <path id="Trazado_2107" data-name="Trazado 2107" d="M31.379,127.029h-.021a.216.216,0,0,1-.194-.236,15.273,15.273,0,0,0-.059-3.537.216.216,0,0,1,.185-.243.213.213,0,0,1,.244.186,15.738,15.738,0,0,1,.06,3.636.217.217,0,0,1-.215.195" fill="#3e4225"/>
    <path id="Trazado_2108" data-name="Trazado 2108" d="M16.335,141.273l-.031,0a.216.216,0,0,1-.183-.244,29.242,29.242,0,0,0,.113-7.575.214.214,0,0,1,.19-.239.212.212,0,0,1,.239.19,29.654,29.654,0,0,1-.114,7.686.216.216,0,0,1-.214.185" fill="#3e4225"/>
    <path id="Trazado_2109" data-name="Trazado 2109" d="M8.756,146.6a.229.229,0,0,1-.063-.009.219.219,0,0,1-.144-.271,17.236,17.236,0,0,0,.717-6.2.215.215,0,0,1,.2-.229.2.2,0,0,1,.23.2,17.667,17.667,0,0,1-.734,6.358.217.217,0,0,1-.207.153" fill="#3e4225"/>
    <path id="Trazado_2110" data-name="Trazado 2110" d="M35.923,121.064a.432.432,0,0,1-.144-.84A397.906,397.906,0,0,0,193.108,17.159a.432.432,0,0,1,.632.59A398.771,398.771,0,0,1,36.067,121.04a.453.453,0,0,1-.144.024" fill="#3e4225"/>
    <path id="Trazado_2111" data-name="Trazado 2111" d="M154.656,185.252a.867.867,0,0,1-.744-.423c-2.051-3.44-5.172-6.008-8.478-8.726a48.492,48.492,0,0,1-7.286-6.887,24.481,24.481,0,0,1-5.2-17.457c.635-6.674,3.643-12.9,8.045-16.66a.87.87,0,0,1,.528-.207c7.008-.311,12.723,5.6,14.78,11.542,2.2,6.363,1.4,13.253.479,19.213-.106.69-.217,1.381-.328,2.074-.87,5.456-1.769,11.1-.94,16.536a.864.864,0,0,1-.562.944.881.881,0,0,1-.292.051m-12.77-48.639c-3.944,3.494-6.635,9.191-7.218,15.309a22.737,22.737,0,0,0,4.832,16.214,47.183,47.183,0,0,0,7.033,6.631,50.5,50.5,0,0,1,6.953,6.492,68.729,68.729,0,0,1,1.256-13.811c.11-.689.22-1.379.326-2.066.891-5.754,1.667-12.394-.4-18.382-1.807-5.224-6.707-10.388-12.663-10.388h-.115" fill="#3e4225"/>
    <path id="Trazado_2112" data-name="Trazado 2112" d="M154.679,184.779a.435.435,0,0,1-.4-.276,243.155,243.155,0,0,1-13.16-48.513.432.432,0,1,1,.853-.138,242.207,242.207,0,0,0,13.115,48.338.433.433,0,0,1-.4.589" fill="#3e4225"/>
    <path id="Trazado_2113" data-name="Trazado 2113" d="M153.613,163.8a.215.215,0,0,1-.144-.055l-7.637-6.815a.216.216,0,1,1,.287-.323l7.638,6.815a.216.216,0,0,1,.017.305.213.213,0,0,1-.161.073" fill="#3e4225"/>
    <path id="Trazado_2114" data-name="Trazado 2114" d="M153.951,151.089a.211.211,0,0,1-.138-.05c-3.582-2.965-7.33-5.806-11.141-8.442a.219.219,0,0,1-.055-.3.223.223,0,0,1,.3-.055c3.82,2.644,7.578,5.492,11.17,8.466a.216.216,0,0,1,.028.3.213.213,0,0,1-.166.079" fill="#3e4225"/>
    <path id="Trazado_2115" data-name="Trazado 2115" d="M139.784,161.154a.211.211,0,0,1-.06-.008.217.217,0,0,1-.148-.268L143.44,147.4a.212.212,0,0,1,.268-.148.217.217,0,0,1,.148.268L139.992,161a.217.217,0,0,1-.208.156" fill="#3e4225"/>
    <path id="Trazado_2116" data-name="Trazado 2116" d="M145.9,171.071h-.02a.216.216,0,0,1-.195-.235,64.9,64.9,0,0,1,1.348-8.583.227.227,0,0,1,.26-.163.218.218,0,0,1,.163.259,64.513,64.513,0,0,0-1.341,8.526.215.215,0,0,1-.215.2" fill="#3e4225"/>
    <path id="Trazado_2117" data-name="Trazado 2117" d="M138.485,168.593a.358.358,0,0,1-.045,0,.218.218,0,0,1-.167-.257l.993-4.723a.217.217,0,0,1,.424.09l-.993,4.723a.218.218,0,0,1-.212.171" fill="#3e4225"/>
    <path id="Trazado_2118" data-name="Trazado 2118" d="M141.616,167.779l-.03,0a.217.217,0,0,1-.185-.244,36.525,36.525,0,0,1,.955-4.683.216.216,0,1,1,.417.115,35.924,35.924,0,0,0-.942,4.627.219.219,0,0,1-.215.187" fill="#3e4225"/>
    <path id="Trazado_2119" data-name="Trazado 2119" d="M143.149,161.219a.26.26,0,0,1-.047,0,.217.217,0,0,1-.164-.259l.6-2.7a.216.216,0,1,1,.422.094l-.6,2.7a.216.216,0,0,1-.211.169" fill="#3e4225"/>
    <path id="Trazado_2120" data-name="Trazado 2120" d="M156.647,158.775a.221.221,0,0,1-.159-.069,29.717,29.717,0,0,0-5.36-4.554.216.216,0,1,1,.238-.36,30.174,30.174,0,0,1,5.44,4.62.216.216,0,0,1-.159.363" fill="#3e4225"/>
    <path id="Trazado_2121" data-name="Trazado 2121" d="M149.79,153.22a.216.216,0,0,1-.145-.056,9.467,9.467,0,0,0-2.193-1.48.217.217,0,0,1-.1-.289.214.214,0,0,1,.289-.1,9.872,9.872,0,0,1,2.293,1.547.216.216,0,0,1-.144.377" fill="#3e4225"/>
    <path id="Trazado_2122" data-name="Trazado 2122" d="M153.088,169.66a.219.219,0,0,1-.15-.06,26.518,26.518,0,0,0-4.649-3.555.216.216,0,1,1,.223-.37,26.987,26.987,0,0,1,4.726,3.613.215.215,0,0,1,.006.305.212.212,0,0,1-.156.067" fill="#3e4225"/>
    <path id="Trazado_2123" data-name="Trazado 2123" d="M137.637,145.339a.207.207,0,0,1-.1-.026.214.214,0,0,1-.088-.292A29.929,29.929,0,0,1,141.714,139a.218.218,0,0,1,.306-.013.215.215,0,0,1,.013.3,29.552,29.552,0,0,0-4.206,5.93.215.215,0,0,1-.19.114" fill="#3e4225"/>
    <path id="Trazado_2124" data-name="Trazado 2124" d="M136.086,148.558a.231.231,0,0,1-.092-.02.217.217,0,0,1-.1-.288l.91-1.937a.217.217,0,1,1,.392.184l-.91,1.937a.217.217,0,0,1-.2.124" fill="#3e4225"/>
    <path id="Trazado_2125" data-name="Trazado 2125" d="M152.765,145.925a.216.216,0,0,1-.123-.039l-2.868-1.992a.216.216,0,1,1,.247-.354l2.867,1.991a.216.216,0,0,1,.054.3.213.213,0,0,1-.177.093" fill="#3e4225"/>
    <path id="Trazado_2126" data-name="Trazado 2126" d="M148.8,143.418a.221.221,0,0,1-.12-.036l-1.456-.972a.216.216,0,0,1,.24-.36l1.456.972a.216.216,0,0,1-.12.4" fill="#3e4225"/>
    <path id="Trazado_2127" data-name="Trazado 2127" d="M136.285,164.7h0a.216.216,0,0,1-.216-.216,34.86,34.86,0,0,1,2.138-12.027.216.216,0,1,1,.4.148,34.5,34.5,0,0,0-2.111,11.879.216.216,0,0,1-.216.216" fill="#3e4225"/>
    <path id="Trazado_2128" data-name="Trazado 2128" d="M139.235,150.375a.216.216,0,0,1-.2-.3l.858-1.9a.211.211,0,0,1,.285-.108.214.214,0,0,1,.108.285l-.857,1.895a.215.215,0,0,1-.2.128" fill="#3e4225"/>
    <path id="Trazado_2129" data-name="Trazado 2129" d="M148.654,174.329l-.027,0a.214.214,0,0,1-.187-.241l.659-5.152a.216.216,0,0,1,.429.054l-.659,5.152a.217.217,0,0,1-.215.189" fill="#3e4225"/>
    <path id="Trazado_2130" data-name="Trazado 2130" d="M154.5,175.406a.22.22,0,0,1-.16-.07l-1.845-2.02a.216.216,0,1,1,.319-.292l1.846,2.02a.217.217,0,0,1-.16.362" fill="#3e4225"/>
    <path id="Trazado_2131" data-name="Trazado 2131" d="M155.158,168.7a.216.216,0,0,1-.163-.074,24.265,24.265,0,0,0-3.782-3.492.216.216,0,0,1,.258-.346,24.7,24.7,0,0,1,3.85,3.553.218.218,0,0,1-.02.306.222.222,0,0,1-.143.053" fill="#3e4225"/>
    <path id="Trazado_2132" data-name="Trazado 2132" d="M150.3,164.552a.215.215,0,0,1-.135-.047l-.54-.432a.216.216,0,0,1,.27-.338l.54.432a.216.216,0,0,1-.135.385" fill="#3e4225"/>
  </g>
</svg>
