<svg xmlns="http://www.w3.org/2000/svg" width="440.001" height="501.313" viewBox="0 0 440.001 501.313">
  <g id="Grupo_60" data-name="Grupo 60" transform="matrix(0.574, 0.819, -0.819, 0.574, 1066.636, -3639.461)">
    <path id="Trazado_1537" data-name="Trazado 1537" d="M153.584,363.111a3.222,3.222,0,0,1-2.785-1.594c-18.095-30.754-31.126-63.335-40.459-88.278l-.019-.053-.06-.15c-4.161-11.054-8.164-22.4-12.035-33.366L95,230.53c-5.649-16.185-10.919-34.7-1.876-49.72,4.255-7.066,10.866-11.791,17.26-16.354,4.988-3.563,9.705-6.931,13.3-11.287,3.206-3.92,5.454-8.536,7.837-13.419,1.342-2.759,2.733-5.612,4.323-8.356,3.39-5.8,10.75-15.648,21.977-16.459,10.19-.639,17.557,5.943,24.714,12.34,4.819,4.311,9.8,8.765,15.4,10.656,4.883,1.65,10.25,1.368,15.922,1.075,5.762-.3,11.712-.613,17.516,1.146,8.852,2.676,16.49,10.055,20.959,20.237,3.736,8.45,4.89,17.459,5.924,27.51,4.447,43.849,4.123,79.384-1.022,111.826-3.293,20.94-8.145,39.722-14.422,55.821a3.228,3.228,0,1,1-6.014-2.345c6.108-15.666,10.836-33.994,14.058-54.483,5.056-31.885,5.367-66.887.977-110.165-.974-9.491-2.052-17.971-5.409-25.559-3.71-8.465-9.878-14.531-16.922-16.662-4.717-1.428-9.859-1.161-15.306-.876-6.033.316-12.272.639-18.328-1.406-6.848-2.312-12.332-7.217-17.636-11.96-6.446-5.762-12.607-11.227-19.959-10.716-8.57.624-14.64,9.483-16.85,13.268-1.466,2.533-2.8,5.281-4.1,7.935-2.439,5-4.958,10.175-8.649,14.689-4.146,5.022-9.431,8.8-14.539,12.445-6.13,4.375-11.915,8.51-15.482,14.43-7.6,12.626-2.725,29.461,2.439,44.248l3.225,9.134c3.826,10.844,7.781,22.056,11.881,32.957a3.764,3.764,0,0,1,.35.928c9.231,24.642,22.079,56.685,39.82,86.842a3.228,3.228,0,0,1-2.781,4.864" transform="translate(2510.039 2632)" fill="#c0caba"/>
    <path id="Trazado_1538" data-name="Trazado 1538" d="M201.683,331.879a3.21,3.21,0,0,1-1.887-.613c-28.063-20.248-58.414-42.451-92.784-67.883-11.878-8.773-26.668-19.692-35.967-34.4a18.828,18.828,0,0,1-1.026-1.767c-10.945-18.226-13.028-40.692-14.866-60.519-.365-3.894-1.045-11.148,3.732-15.648,4.33-4.127,10.058-3.469,15.106-2.894a30.339,30.339,0,0,0,6.837.3c4.635-.485,8.544-3.631,12.686-6.965,3.661-2.951,7.45-6,12.126-7.6,13.156-4.567,26.307,4.1,35.054,11.024a284.928,284.928,0,0,1,67.292,76.328,3.586,3.586,0,0,1,.628,1.74,3.385,3.385,0,0,1-.865,2.417,3.236,3.236,0,0,1-5.375-.947,278.341,278.341,0,0,0-65.687-74.475c-7.555-5.98-18.779-13.516-28.938-9.983-3.62,1.24-6.807,3.811-10.186,6.529-4.687,3.77-9.532,7.672-16.012,8.352a35.362,35.362,0,0,1-8.292-.3c-4.845-.556-7.916-.748-9.934,1.169-2.3,2.169-2.1,6.484-1.737,10.359,1.77,19.143,3.778,40.839,14.1,58.05a14.35,14.35,0,0,0,.808,1.38c8.021,12.686,19.79,21.921,34.351,32.671,34.351,25.417,64.68,47.6,92.724,67.841a3.228,3.228,0,0,1-1.891,5.845" transform="translate(2418.034 2680.886)" fill="#c0caba"/>
    <path id="Trazado_1539" data-name="Trazado 1539" d="M187.579,277.586a1.649,1.649,0,0,1-.519-.086c-37.6-12.644-73.284-32.987-103.782-51.062C71.735,219.63,60.921,212.6,55.542,201.505c-3.751-7.705-4.307-16.283-4.849-24.578-.278-4.029-1.1-16.159,7.149-20.113,4.973-2.391,10.111-.421,15.072,1.488,4.12,1.582,7.987,3.078,11.667,2.2a1.614,1.614,0,0,1,.752,3.139c-4.631,1.1-9.183-.635-13.577-2.323-4.514-1.74-8.792-3.379-12.524-1.594-4.221,2.026-5.961,7.566-5.322,16.941.519,8.04,1.06,16.294,4.537,23.432,4.988,10.284,15.366,17.016,26.473,23.563,30.363,17.993,65.868,38.238,103.17,50.784a1.613,1.613,0,0,1-.511,3.142" transform="translate(2406 2744.618)" fill="#c0caba"/>
    <path id="Trazado_1540" data-name="Trazado 1540" d="M159.588,327.442a3.193,3.193,0,0,1-2.454-5.243c33.8-36.648,58.693-68.852,78.539-101.576,8.314-13.625,16.343-28.484,18.794-44.8s-1.917-32.231-11.442-42.056c-9.573,3.124-18.376,5.649-27.683,5.954-3,.083-5.961-.079-8.837-.233a64.729,64.729,0,0,0-12.385.09c-19.113,2.439-30.942,21.455-35.14,29.514A215.322,215.322,0,0,0,149.5,191.4c-3.112,8.164-6.33,16.6-10.588,24.488a3.228,3.228,0,0,1-5.679-3.071c4.056-7.51,7.2-15.749,10.235-23.721a220.332,220.332,0,0,1,9.78-22.977c9.87-18.948,24.458-30.953,40.019-32.941a70.885,70.885,0,0,1,13.588-.139c2.868.154,5.589.316,8.288.229,9.032-.3,17.9-3,27.721-6.243a3.211,3.211,0,0,1,3.206.7c11.994,11.111,17.658,29.912,14.779,49.063-2.624,17.456-11,33-19.662,47.2-20.072,33.092-45.21,65.624-79.114,102.38a3.4,3.4,0,0,1-2.488,1.082" transform="translate(2633.083 2665)" fill="#c0caba"/>
    <path id="Trazado_1541" data-name="Trazado 1541" d="M150.348,317.422a3.227,3.227,0,0,1-1.286-6.187c26.146-11.344,56.073-25.977,79.8-48.51,23.9-22.654,46.214-61.049,37.174-100.88-1.77-7.953-4.849-13.073-9.156-15.234-4.259-2.109-9.671-1.391-15.407-.624-7.157.955-15.253,2.03-21.406-3.3a3.227,3.227,0,0,1,4.225-4.879c3.962,3.428,9.69,2.661,16.328,1.782,6.442-.861,13.107-1.752,19.143,1.24,6.142,3.086,10.367,9.675,12.577,19.6,9.63,42.466-13.847,83.105-39.034,106.977-24.45,23.229-55.009,38.185-81.673,49.75a3.226,3.226,0,0,1-1.282.267" transform="translate(2672.453 2693.044)" fill="#c0caba"/>
    <path id="Trazado_1542" data-name="Trazado 1542" d="M206.553,285.182c-36.027,0-81.3-26.18-112.157-44.022-2.672-1.545-5.24-3.03-7.675-4.424a3.227,3.227,0,0,1,1.575-6.029c12.159-.113,22-6.63,32.408-13.531,9.145-6.059,18.6-12.329,30.152-14.486a59.382,59.382,0,0,1,8.42-.774,39.822,39.822,0,0,0,9.667-1.2c6.848-2.067,12.475-8.153,17.914-14.035,7.476-8.077,15.245-16.418,26.7-15.561,9.555.722,16.4,7.72,23.022,14.494,6.435,6.589,12.471,12.851,20.057,11.754,3.2-.451,6.664-2.259,10.01-4.011,6.1-3.184,13.013-6.8,19.726-2.53,3.014,1.913,4.721,4.879,6.228,7.491.519.895,1.03,1.785,1.6,2.624,6.717,9.927,20.97,11.505,35.373,11.723h.011a3.229,3.229,0,0,1-.049,6.458h-.049c-2.714.244-12.34,8.814-16.963,12.938-3.184,2.83-5.687,5.067-7.348,6.217-9.75,6.766-19.854,13.182-30.047,19.076-2.447,1.413-4.977,2.917-7.57,4.458-15.76,9.348-33.618,19.944-51.055,22.635a64.82,64.82,0,0,1-9.946.733m-108.379-49.3c32.994,19.076,82.515,47.555,117.34,42.18,16.2-2.5,33.49-12.757,48.743-21.8,2.616-1.556,5.168-3.067,7.634-4.492,10.04-5.807,20-12.129,29.6-18.79,1.334-.932,3.958-3.266,6.736-5.74,3.808-3.39,7.164-6.333,10.111-8.668-12.069-1.154-23.056-4.5-29.487-14.009-.647-.966-1.248-1.988-1.838-3.018-1.248-2.158-2.428-4.2-4.1-5.266-3.39-2.161-7.258-.342-13.272,2.8-3.834,2.007-7.8,4.078-12.1,4.683-10.739,1.507-18.3-6.183-25.582-13.633-6.044-6.187-11.757-12.032-18.884-12.569-8.389-.65-14.456,5.924-21.474,13.505-6.025,6.521-12.261,13.261-20.786,15.832a45.142,45.142,0,0,1-11.242,1.466,54.109,54.109,0,0,0-7.521.673c-10.269,1.917-19.169,7.814-27.769,13.52-8.123,5.379-16.444,10.9-26.1,13.328" transform="translate(2501.347 2786.964)" fill="#c0caba"/>
    <path id="Trazado_1543" data-name="Trazado 1543" d="M197.9,279.927a.819.819,0,0,1-.519-.184A989.42,989.42,0,0,1,64.83,146.311a.807.807,0,1,1,1.248-1.022A987.723,987.723,0,0,0,198.415,278.5a.807.807,0,0,1-.515,1.428" transform="translate(2444.94 2715.045)" fill="#c0caba"/>
    <path id="Trazado_1544" data-name="Trazado 1544" d="M176.078,249.889a.825.825,0,0,1-.459-.143C137.69,223.511,98.464,196.384,70.3,158.522a.806.806,0,1,1,1.293-.962c28.006,37.647,67.116,64.7,104.94,90.856a.807.807,0,0,1-.459,1.473" transform="translate(2460.103 2748.815)" fill="#c0caba"/>
    <path id="Trazado_1545" data-name="Trazado 1545" d="M140.844,217.415a.8.8,0,0,1-.444-.135c-20.88-13.832-41.3-28.845-60.7-44.6a.807.807,0,1,1,1.015-1.255c19.361,15.734,39.745,30.709,60.576,44.518a.8.8,0,0,1-.444,1.477" transform="translate(2485.627 2787.457)" fill="#c0caba"/>
    <path id="Trazado_1546" data-name="Trazado 1546" d="M81.178,173.675a.826.826,0,0,1-.534-.2L74.6,168.187a.81.81,0,0,1,1.067-1.218l6.044,5.289a.808.808,0,0,1-.534,1.417" transform="translate(2471.641 2775.128)" fill="#c0caba"/>
    <path id="Trazado_1547" data-name="Trazado 1547" d="M161.786,255.023a.813.813,0,0,1-.613-.278c-28.123-32.49-55.764-66.161-82.155-100.076a.806.806,0,0,1,1.274-.989c26.371,33.892,53.994,67.541,82.106,100a.817.817,0,0,1-.083,1.143.84.84,0,0,1-.53.2" transform="translate(2484.118 2738.152)" fill="#c0caba"/>
    <path id="Trazado_1548" data-name="Trazado 1548" d="M138.013,242.337a.813.813,0,0,1-.71-.421c-15.08-27.909-30.934-55.855-47.112-83.053a.807.807,0,1,1,1.387-.827c16.193,27.221,32.054,55.182,47.146,83.109a.809.809,0,0,1-.327,1.094.786.786,0,0,1-.383.1" transform="translate(2515.097 2749.943)" fill="#c0caba"/>
    <path id="Trazado_1549" data-name="Trazado 1549" d="M94.519,163.254a.8.8,0,0,1-.635-.308l-8.171-10.367a.806.806,0,0,1,1.267-1l8.175,10.367a.8.8,0,0,1-.139,1.131.782.782,0,0,1-.5.173" transform="translate(2502.574 2732.367)" fill="#c0caba"/>
    <path id="Trazado_1550" data-name="Trazado 1550" d="M184.235,245.418a.787.787,0,0,1-.383-.1A1214.235,1214.235,0,0,1,57.693,166.669a.808.808,0,0,1,.94-1.316A1212.23,1212.23,0,0,0,184.618,243.9a.805.805,0,0,1-.383,1.515" transform="translate(2424.827 2770.798)" fill="#c0caba"/>
    <path id="Trazado_1551" data-name="Trazado 1551" d="M149.672,220.814a.786.786,0,0,1-.383-.1l-81.527-44.15a.806.806,0,1,1,.767-1.417l81.527,44.15a.805.805,0,0,1-.383,1.515" transform="translate(2452.364 2797.966)" fill="#c0caba"/>
    <path id="Trazado_1552" data-name="Trazado 1552" d="M71.993,180.038a.814.814,0,0,1-.466-.147l-10.378-7.375a.808.808,0,0,1,.932-1.319l10.378,7.375a.808.808,0,0,1-.466,1.466" transform="translate(2434.346 2786.916)" fill="#c0caba"/>
    <path id="Trazado_1553" data-name="Trazado 1553" d="M137.1,306.012a.808.808,0,0,1-.8-.733A1389.678,1389.678,0,0,0,107.531,125.54a.812.812,0,0,1,.605-.97.825.825,0,0,1,.97.609,1392.284,1392.284,0,0,1,28.8,179.949.809.809,0,0,1-.729.88l-.075,0" transform="translate(2563.189 2658.661)" fill="#c0caba"/>
    <path id="Trazado_1554" data-name="Trazado 1554" d="M129.7,296.408a.808.808,0,0,1-.8-.729c-5.228-54.126-12.866-108.691-22.7-162.182a.811.811,0,0,1,.65-.94.825.825,0,0,1,.94.65c9.84,53.532,17.486,108.142,22.718,162.313a.812.812,0,0,1-.725.883l-.079,0" transform="translate(2559.539 2680.706)" fill="#c0caba"/>
    <path id="Trazado_1555" data-name="Trazado 1555" d="M130.479,304.676h-.008a.811.811,0,0,1-.8-.812c.447-57.633-1.586-116.006-6.044-173.507a.8.8,0,0,1,.74-.868.766.766,0,0,1,.865.744c4.465,57.542,6.5,115.968,6.055,173.642a.81.81,0,0,1-.808.8" transform="translate(2607.642 2672.254)" fill="#c0caba"/>
    <path id="Trazado_1556" data-name="Trazado 1556" d="M125,258.35l-.053,0a.8.8,0,0,1-.752-.857,646.67,646.67,0,0,0-2.533-113.961.805.805,0,1,1,1.6-.177A647.372,647.372,0,0,1,125.8,257.6a.808.808,0,0,1-.8.752" transform="translate(2602.205 2708.525)" fill="#c0caba"/>
    <path id="Trazado_1558" data-name="Trazado 1558" d="M126.058,264.284a.809.809,0,0,1-.808-.782c-1.323-41.245-4.266-82.94-8.739-123.918a.807.807,0,0,1,.714-.891.762.762,0,0,1,.887.714c4.48,41.023,7.427,82.756,8.754,124.046a.809.809,0,0,1-.782.831Z" transform="translate(2588.003 2697.618)" fill="#c0caba"/>
    <path id="Trazado_1559" data-name="Trazado 1559" d="M139.5,270.509a.806.806,0,0,1-.752-.515,1095.8,1095.8,0,0,1-39.925-123.2.809.809,0,0,1,.579-.985.819.819,0,0,1,.985.583,1094.567,1094.567,0,0,0,39.865,123.019.806.806,0,0,1-.459,1.045.8.8,0,0,1-.293.056" transform="translate(2539.147 2717.224)" fill="#c0caba"/>
    <path id="Trazado_1561" data-name="Trazado 1561" d="M136.044,281.449a.817.817,0,0,1-.44-.128.807.807,0,0,1-.237-1.116,941.261,941.261,0,0,0,74.46-140.67.808.808,0,0,1,1.489.628,942.691,942.691,0,0,1-74.6,140.918.8.8,0,0,1-.677.368" transform="translate(2639.676 2698.63)" fill="#c0caba"/>
    <path id="Trazado_1562" data-name="Trazado 1562" d="M138.047,217.819a.806.806,0,0,1-.579-1.368,296.589,296.589,0,0,0,41.478-54.366.807.807,0,1,1,1.387.827,298.412,298.412,0,0,1-41.707,54.663.808.808,0,0,1-.579.244" transform="translate(2645.205 2761.11)" fill="#c0caba"/>
    <path id="Trazado_1563" data-name="Trazado 1563" d="M150.395,168.934a.77.77,0,0,1-.4-.109.8.8,0,0,1-.3-1.1l6.473-11.175a.807.807,0,0,1,1.4.8l-6.473,11.178a.814.814,0,0,1-.7.4" transform="translate(2679.266 2745.804)" fill="#c0caba"/>
    <path id="Trazado_1564" data-name="Trazado 1564" d="M131.479,243.293a.819.819,0,0,1-.368-.09.807.807,0,0,1-.35-1.086l44.131-86.274a.807.807,0,1,1,1.436.737L132.2,242.854a.8.8,0,0,1-.718.44" transform="translate(2627.086 2743.762)" fill="#c0caba"/>
    <path id="Trazado_1565" data-name="Trazado 1565" d="M144.569,164.978a.837.837,0,0,1-.342-.075.81.81,0,0,1-.391-1.075l7.281-15.441a.819.819,0,0,1,1.075-.391.81.81,0,0,1,.387,1.075L145.3,164.516a.807.807,0,0,1-.733.462" transform="translate(2663.19 2723.129)" fill="#c0caba"/>
    <path id="Trazado_1566" data-name="Trazado 1566" d="M148.239,148.823a.772.772,0,0,1-.3-.06.808.808,0,0,1-.444-1.052l2.2-5.364a.807.807,0,1,1,1.492.613l-2.2,5.364a.81.81,0,0,1-.748.5" transform="translate(2673.318 2706.358)" fill="#c0caba"/>
    <path id="Trazado_1567" data-name="Trazado 1567" d="M135.067,182.624a.8.8,0,0,1-.733-1.143l11.175-24.665a.8.8,0,0,1,1.068-.4.811.811,0,0,1,.4,1.071L135.8,182.15a.808.808,0,0,1-.733.474" transform="translate(2636.984 2746.344)" fill="#c0caba"/>
    <path id="Trazado_1568" data-name="Trazado 1568" d="M139.017,165.8a.743.743,0,0,1-.308-.064.8.8,0,0,1-.436-1.052l5.954-14.313a.8.8,0,0,1,1.052-.436.807.807,0,0,1,.436,1.056l-5.954,14.31a.8.8,0,0,1-.744.5" transform="translate(2647.88 2728.49)" fill="#c0caba"/>
    <path id="Trazado_1569" data-name="Trazado 1569" d="M142.562,241.7a.8.8,0,0,1-.661-.342.8.8,0,0,1,.2-1.124,524.482,524.482,0,0,0,90.991-80.275.811.811,0,0,1,1.139-.06.8.8,0,0,1,.06,1.135,525.794,525.794,0,0,1-91.273,80.523.788.788,0,0,1-.459.143" transform="translate(2657.66 2755.596)" fill="#c0caba"/>
    <path id="Trazado_1570" data-name="Trazado 1570" d="M159.822,172.751a.809.809,0,0,1-.68-1.24l5.168-8.183a.809.809,0,0,1,1.368.865l-5.176,8.183a.8.8,0,0,1-.68.376" transform="translate(2705.276 2764.599)" fill="#c0caba"/>
    <path id="Trazado_1571" data-name="Trazado 1571" d="M144.926,228.077a.808.808,0,0,1-.4-1.511,268.3,268.3,0,0,0,73.329-60.519.807.807,0,1,1,1.229,1.045,269.955,269.955,0,0,1-73.761,60.88.811.811,0,0,1-.4.105" transform="translate(2664.182 2772.349)" fill="#c0caba"/>
    <path id="Trazado_1572" data-name="Trazado 1572" d="M141.277,245.807a.806.806,0,0,1-.5-1.44,370.065,370.065,0,0,0,81.061-88.349.816.816,0,0,1,1.116-.237.8.8,0,0,1,.233,1.116,371.626,371.626,0,0,1-81.41,88.736.808.808,0,0,1-.5.173" transform="translate(2654.112 2744.455)" fill="#c0caba"/>
    <path id="Trazado_1573" data-name="Trazado 1573" d="M164.755,164.586a.806.806,0,0,1-.677-1.244l8.555-13.332a.806.806,0,0,1,1.357.872l-8.559,13.332a.8.8,0,0,1-.677.372" transform="translate(2718.885 2727.859)" fill="#c0caba"/>
    <path id="Trazado_1574" data-name="Trazado 1574" d="M166.992,234.073a.868.868,0,0,1-.214-.03A148.99,148.99,0,0,1,95.745,189.9a.805.805,0,1,1,1.2-1.071,147.388,147.388,0,0,0,70.258,43.658.808.808,0,0,1-.214,1.586" transform="translate(2530.167 2835.223)" fill="#c0caba"/>
    <path id="Trazado_1575" data-name="Trazado 1575" d="M147.8,225.246a.752.752,0,0,1-.267-.045,96.57,96.57,0,0,1-44.575-32.111.808.808,0,0,1,.15-1.131.8.8,0,0,1,1.131.147,94.932,94.932,0,0,0,43.823,31.57.808.808,0,0,1-.263,1.571" transform="translate(2550.162 2844.141)" fill="#c0caba"/>
    <path id="Trazado_1576" data-name="Trazado 1576" d="M105.833,197.015a.8.8,0,0,1-.684-.38l-4.792-7.645a.81.81,0,0,1,.256-1.116.825.825,0,0,1,1.113.256l4.792,7.649a.809.809,0,0,1-.684,1.237" transform="translate(2543.112 2833.018)" fill="#c0caba"/>
    <path id="Trazado_1577" data-name="Trazado 1577" d="M118.389,238.221a.808.808,0,0,1-.218-1.586,113.149,113.149,0,0,0,65.139-49,.8.8,0,1,1,1.372.842,114.786,114.786,0,0,1-66.075,49.72,1.081,1.081,0,0,1-.218.026" transform="translate(2590.97 2831.602)" fill="#c0caba"/>
    <path id="Trazado_1578" data-name="Trazado 1578" d="M136.666,190.95a.808.808,0,0,1-.669-1.263l3.834-5.653a.808.808,0,0,1,1.338.906l-3.834,5.657a.81.81,0,0,1-.669.353" transform="translate(2641.392 2821.767)" fill="#c0caba"/>
    <path id="Trazado_1579" data-name="Trazado 1579" d="M128.477,231.319a.807.807,0,0,1-.429-1.492,137.72,137.72,0,0,0,44.041-44.041.805.805,0,0,1,1.368.849,139.2,139.2,0,0,1-44.56,44.56.762.762,0,0,1-.421.124" transform="translate(2618.793 2826.518)" fill="#c0caba"/>
  </g>
</svg>
