<svg xmlns="http://www.w3.org/2000/svg" width="877.067" height="904.334" viewBox="0 0 877.067 904.334">
  <g id="Grupo_44" data-name="Grupo 44" transform="translate(0)">
    <path id="Trazado_1858" data-name="Trazado 1858" d="M92.078,902.51a4.633,4.633,0,0,0,2.471-.716C191.933,840.323,266.1,741.6,298.038,630.944s21.752-233.715-27.922-337.618a4.463,4.463,0,0,0-4.56-2.611,4.619,4.619,0,0,0-4.06,3.333c-28.428,99.429-58.23,202.261-87.051,301.712-28.741,99.165-58.461,201.7-86.814,300.85a4.63,4.63,0,0,0,4.447,5.9M266.966,308.573c44.193,99.445,52.35,215.269,22.183,319.808-30.178,104.571-98.81,198.26-189.226,258.875,27.319-95.423,55.812-193.727,83.4-288.924C211,502.86,239.566,404.276,266.966,308.573" transform="translate(471.238 -86.945)" fill="#849d8b"/>
    <path id="Trazado_1859" data-name="Trazado 1859" d="M98.7,898.3a2.317,2.317,0,0,0,1.965-1.088C215.42,712.981,272.406,515.491,274.877,293.454a2.309,2.309,0,0,0-2.283-2.337h-.027a2.312,2.312,0,0,0-2.315,2.283c-2.461,221.165-59.215,417.875-173.52,601.366A2.316,2.316,0,0,0,98.7,898.3" transform="translate(464.62 -85.054)" fill="#849d8b"/>
    <path id="Trazado_1878" data-name="Trazado 1878" d="M95.056,528.718a1.15,1.15,0,0,0,1.109-.829,815.477,815.477,0,0,0,32.714-218.86,1.156,1.156,0,0,0-1.141-1.174h-.016A1.155,1.155,0,0,0,126.569,309,813.275,813.275,0,0,1,93.947,527.238a1.158,1.158,0,0,0,.786,1.438,1.338,1.338,0,0,0,.323.043" transform="translate(623.987 -11.672)" fill="#849d8b"/>
    <path id="Trazado_1877" data-name="Trazado 1877" d="M102.308,375.733a1.147,1.147,0,0,0,1.093-.786l7.382-21.687a1.158,1.158,0,0,0-2.191-.749L101.215,374.2a1.149,1.149,0,0,0,.721,1.464,1,1,0,0,0,.372.065" transform="translate(602.978 180.677)" fill="#849d8b"/>
    <path id="Trazado_1873" data-name="Trazado 1873" d="M95.265,563.62A1.154,1.154,0,0,0,96.288,563a646.571,646.571,0,0,0,69.558-230.754,1.158,1.158,0,1,0-2.3-.237,644.228,644.228,0,0,1-69.3,229.914,1.163,1.163,0,0,0,.485,1.567,1.2,1.2,0,0,0,.538.129" transform="translate(585.89 89.672)" fill="#849d8b"/>
    <path id="Trazado_1872" data-name="Trazado 1872" d="M109.238,390.378a1.17,1.17,0,0,0,1.034-.635l6.122-12.168a1.159,1.159,0,0,0-.511-1.551,1.181,1.181,0,0,0-1.556.512L108.2,388.7a1.158,1.158,0,0,0,.517,1.551,1.175,1.175,0,0,0,.517.124" transform="translate(559.99 286.685)" fill="#849d8b"/>
    <path id="Trazado_1871" data-name="Trazado 1871" d="M98.983,508.863a1.177,1.177,0,0,0,.991-.555A1069.209,1069.209,0,0,0,174.668,360.95a1.159,1.159,0,1,0-2.143-.883A1066.115,1066.115,0,0,1,97.992,507.108a1.154,1.154,0,0,0,.991,1.755" transform="translate(556.974 214.111)" fill="#849d8b"/>
    <path id="Trazado_1869" data-name="Trazado 1869" d="M110.05,487.473a1.165,1.165,0,0,0,1.131-.9c10.833-47.284,24.067-94.589,39.337-140.607a1.158,1.158,0,1,0-2.2-.732c-15.291,46.088-28.547,93.469-39.4,140.828a1.16,1.16,0,0,0,.872,1.384,1.407,1.407,0,0,0,.258.027" transform="translate(521.576 148.741)" fill="#849d8b"/>
    <path id="Trazado_1870" data-name="Trazado 1870" d="M117.9,385.12a1.158,1.158,0,0,0,1.136-.948l1.814-9.982a1.157,1.157,0,0,0-2.277-.4l-1.809,9.972a1.16,1.16,0,0,0,.926,1.346,1.451,1.451,0,0,0,.21.016" transform="translate(509.025 273.185)" fill="#849d8b"/>
    <path id="Trazado_1875" data-name="Trazado 1875" d="M102.49,375.307a1.159,1.159,0,0,0,1.125-.888,287.22,287.22,0,0,1,17.757-52.059,1.159,1.159,0,0,0-.576-1.534,1.147,1.147,0,0,0-1.529.576,289.406,289.406,0,0,0-17.9,52.485,1.148,1.148,0,0,0,.861,1.389,1.11,1.11,0,0,0,.264.032" transform="translate(591.377 44.727)" fill="#849d8b"/>
    <path id="Trazado_1874" data-name="Trazado 1874" d="M106.293,345.731a1.152,1.152,0,0,0,1.131-.931l2.224-11.075a1.156,1.156,0,1,0-2.267-.452l-2.224,11.075a1.161,1.161,0,0,0,.91,1.362,1.7,1.7,0,0,0,.226.021" transform="translate(582.706 95.685)" fill="#849d8b"/>
    <path id="Trazado_1853" data-name="Trazado 1853" d="M116.852,819.246a4.634,4.634,0,0,0,3.091-1.19c73.289-65.891,121.628-159.861,132.617-257.8s-15.339-200.285-72.218-280.783a4.627,4.627,0,0,0-8.372,2.164c-9.605,87.541-19.873,178.135-29.8,265.751-9.966,87.934-20.271,178.867-29.914,266.73a4.63,4.63,0,0,0,4.6,5.131M179.8,295.077c50.729,77,73.844,172.535,63.565,264.141-10.278,91.638-54,179.712-120.562,243.563,9.245-84,19.054-170.538,28.552-254.353,9.465-83.481,19.238-169.671,28.444-253.351" transform="translate(399.186 -144.675)" fill="#849d8b"/>
    <path id="Trazado_1854" data-name="Trazado 1854" d="M126.175,815.054a2.319,2.319,0,0,0,2.143-1.437C198.474,641.884,218.051,467.3,188.179,279.9a2.315,2.315,0,1,0-4.571.732c29.742,186.545,10.257,360.313-59.576,531.238a2.313,2.313,0,0,0,2.143,3.188" transform="translate(389.863 -142.799)" fill="#849d8b"/>
    <path id="Trazado_1865" data-name="Trazado 1865" d="M125.437,482.759a1.153,1.153,0,0,0,1.147-1.023,696.951,696.951,0,0,0-3.941-189.075,1.158,1.158,0,0,0-2.288.361,694.533,694.533,0,0,1,3.936,188.45,1.147,1.147,0,0,0,1.018,1.276l.129.011" transform="translate(479.294 -82.544)" fill="#849d8b"/>
    <path id="Trazado_1866" data-name="Trazado 1866" d="M122.879,351.32a1.16,1.16,0,0,0,1.141-.969l3.1-19.329a1.159,1.159,0,1,0-2.288-.371l-3.1,19.329a1.156,1.156,0,0,0,.958,1.324,1.033,1.033,0,0,0,.183.016" transform="translate(475.93 84.022)" fill="#849d8b"/>
    <path id="Trazado_1864" data-name="Trazado 1864" d="M119.726,517.47a1.165,1.165,0,0,0,1.1-.8,552.78,552.78,0,0,0,25.376-204.409,1.154,1.154,0,0,0-1.152-1.077h-.081a1.153,1.153,0,0,0-1.071,1.233,550.067,550.067,0,0,1-25.279,203.537,1.154,1.154,0,0,0,1.1,1.513" transform="translate(472.698 2.936)" fill="#849d8b"/>
    <path id="Trazado_1863" data-name="Trazado 1863" d="M125.239,364.482a1.161,1.161,0,0,0,1.109-.818l3.4-11.129a1.157,1.157,0,1,0-2.213-.678l-3.408,11.129a1.167,1.167,0,0,0,.77,1.448,1.235,1.235,0,0,0,.339.048" transform="translate(460.567 177.66)" fill="#849d8b"/>
    <path id="Trazado_1862" data-name="Trazado 1862" d="M118.984,472.644a1.16,1.16,0,0,0,1.077-.732,913.339,913.339,0,0,0,41.7-134.878,1.156,1.156,0,0,0-2.256-.506,910.376,910.376,0,0,1-41.6,134.534,1.16,1.16,0,0,0,.652,1.5,1.19,1.19,0,0,0,.425.081" transform="translate(462.251 110.078)" fill="#849d8b"/>
    <path id="Trazado_1856" data-name="Trazado 1856" d="M130.45,451.149a1.161,1.161,0,0,0,1.158-1.093c2.315-41.366,6.655-83.11,12.89-124.056a1.154,1.154,0,0,0-.964-1.319,1.1,1.1,0,0,0-1.319.964c-6.251,41.027-10.6,82.84-12.922,124.282a1.165,1.165,0,0,0,1.093,1.222Z" transform="translate(417.808 61.999)" fill="#849d8b"/>
    <path id="Trazado_1857" data-name="Trazado 1857" d="M132.975,359.739a1.161,1.161,0,0,0,1.158-1.147l.086-8.561-2.31-.124,1.158.016-1.158.081-.092,8.572a1.155,1.155,0,0,0,1.147,1.163Z" transform="translate(414.497 172.69)" fill="#849d8b"/>
    <path id="Trazado_1860" data-name="Trazado 1860" d="M127.491,352.484a1.155,1.155,0,0,0,1.152-1.082,245.369,245.369,0,0,1,7.462-46.368,1.153,1.153,0,0,0-.824-1.411,1.174,1.174,0,0,0-1.416.824,247.422,247.422,0,0,0-7.527,46.81,1.148,1.148,0,0,0,1.077,1.222l.075.005" transform="translate(442.077 -30.354)" fill="#849d8b"/>
    <path id="Trazado_1861" data-name="Trazado 1861" d="M129.026,325.891a1.16,1.16,0,0,0,1.158-1.125l.275-9.648a1.156,1.156,0,0,0-1.125-1.19H129.3a1.16,1.16,0,0,0-1.158,1.125l-.275,9.648a1.156,1.156,0,0,0,1.125,1.19Z" transform="translate(439.519 14.949)" fill="#849d8b"/>
    <path id="Trazado_1839" data-name="Trazado 1839" d="M136.9,691.5a4.628,4.628,0,0,0,3.107-1.19c57.336-51.839,95.03-125.639,103.435-202.476s-12.47-157.04-57.25-220.039a4.626,4.626,0,0,0-8.372,2.186c-7.328,68.556-15.167,139.514-22.748,208.135-7.586,68.659-15.436,139.665-22.764,208.27A4.622,4.622,0,0,0,136.9,691.5m48.775-408.011c38.626,59.479,56.275,132.865,48.576,203.338-7.71,70.505-40.823,138.373-91.417,188.106,6.946-64.717,14.3-131.287,21.429-195.805,7.123-64.454,14.478-130.975,21.413-195.638" transform="translate(300.969 -195.852)" fill="#849d8b"/>
    <path id="Trazado_1840" data-name="Trazado 1840" d="M143.809,687.3a2.324,2.324,0,0,0,2.143-1.443c54.509-134.485,69.445-271.1,45.652-417.643a2.31,2.31,0,1,0-4.56.743c23.647,145.679,8.8,281.483-45.378,415.166a2.314,2.314,0,0,0,1.276,3.01,2.34,2.34,0,0,0,.867.167" transform="translate(294.057 -193.972)" fill="#849d8b"/>
    <path id="Trazado_1851" data-name="Trazado 1851" d="M143.434,426.917a1.153,1.153,0,0,0,1.147-1.023,545.024,545.024,0,0,0-3.494-147.87,1.159,1.159,0,0,0-2.288.366,543,543,0,0,1,3.489,147.24,1.149,1.149,0,0,0,1.018,1.276l.129.011" transform="translate(363.177 -146.709)" fill="#849d8b"/>
    <path id="Trazado_1852" data-name="Trazado 1852" d="M140.983,324.183a1.16,1.16,0,0,0,1.142-.975l2.38-15.119a1.156,1.156,0,1,0-2.283-.361l-2.38,15.119a1.156,1.156,0,0,0,.958,1.324c.065.005.124.011.183.011" transform="translate(361.073 -16.499)" fill="#849d8b"/>
    <path id="Trazado_1850" data-name="Trazado 1850" d="M138.543,454.118a1.163,1.163,0,0,0,1.1-.8,432.217,432.217,0,0,0,19.394-159.947,1.114,1.114,0,0,0-1.233-1.071,1.153,1.153,0,0,0-1.071,1.233,429.743,429.743,0,0,1-19.3,159.08,1.155,1.155,0,0,0,.754,1.454,1.1,1.1,0,0,0,.35.054" transform="translate(358.715 -79.919)" fill="#849d8b"/>
    <path id="Trazado_1849" data-name="Trazado 1849" d="M142.778,334.469a1.155,1.155,0,0,0,1.1-.824l2.638-8.706a1.146,1.146,0,0,0-.77-1.438,1.186,1.186,0,0,0-1.443.77l-2.633,8.706a1.152,1.152,0,0,0,1.1,1.492" transform="translate(349.35 56.74)" fill="#849d8b"/>
    <path id="Trazado_1847" data-name="Trazado 1847" d="M137.923,419.1a1.15,1.15,0,0,0,1.077-.732A714.436,714.436,0,0,0,171.316,312.8a1.159,1.159,0,1,0-2.261-.506,710.876,710.876,0,0,1-32.208,105.222,1.16,1.16,0,0,0,.652,1.5,1.189,1.189,0,0,0,.425.081" transform="translate(350.721 3.839)" fill="#849d8b"/>
    <path id="Trazado_1843" data-name="Trazado 1843" d="M146.913,402.264a1.165,1.165,0,0,0,1.158-1.093c1.723-32.369,5.023-65,9.8-97a1.159,1.159,0,0,0-.975-1.314,1.138,1.138,0,0,0-1.314.975c-4.792,32.063-8.1,64.771-9.831,97.205a1.162,1.162,0,0,0,1.093,1.222Z" transform="translate(315.79 -33.643)" fill="#849d8b"/>
    <path id="Trazado_1844" data-name="Trazado 1844" d="M148.831,331.51a1.16,1.16,0,0,0,1.158-1.147l.049-6.773a1.163,1.163,0,0,0-1.147-1.168h-.011a1.152,1.152,0,0,0-1.152,1.147l-.054,6.779a1.155,1.155,0,0,0,1.147,1.163Z" transform="translate(313.307 52.192)" fill="#849d8b"/>
    <path id="Trazado_1845" data-name="Trazado 1845" d="M144.651,325.12a1.164,1.164,0,0,0,1.158-1.088,190.647,190.647,0,0,1,5.718-36.219,1.156,1.156,0,1,0-2.24-.576,193.744,193.744,0,0,0-5.793,36.661,1.163,1.163,0,0,0,1.088,1.222Z" transform="translate(334.297 -105.871)" fill="#849d8b"/>
    <path id="Trazado_1846" data-name="Trazado 1846" d="M145.823,304.31a1.157,1.157,0,0,0,1.158-1.131l.194-7.543a1.158,1.158,0,0,0-2.315-.054l-.194,7.543a1.159,1.159,0,0,0,1.131,1.184Z" transform="translate(332.365 -70.433)" fill="#849d8b"/>
    <path id="Trazado_1813" data-name="Trazado 1813" d="M179.336,588.1a4.619,4.619,0,0,0,3.634-1.766c36.785-46.783,55.818-107.688,52.216-167.1s-29.85-117.568-72.013-159.57a4.629,4.629,0,0,0-7.882,3.57c3.327,52.77,6.52,106.525,9.713,160.275s6.391,107.489,9.713,160.254a4.629,4.629,0,0,0,4.62,4.334m-14.02-312.744c35.5,39.5,57.427,91.45,60.642,144.44,3.209,53.012-12.3,107.268-42.8,150.778-3.042-48.694-5.987-98.153-8.922-147.612s-5.879-98.912-8.921-147.606" transform="translate(186.765 -228.782)" fill="#849d8b"/>
    <path id="Trazado_1816" data-name="Trazado 1816" d="M184.443,583.915A2.311,2.311,0,0,0,186.7,582.1c23.83-108.77,17.45-214.025-19.5-321.778a2.314,2.314,0,0,0-4.377,1.5c36.671,106.929,43,211.366,19.356,319.28a2.309,2.309,0,0,0,1.766,2.757,2.221,2.221,0,0,0,.5.054" transform="translate(181.657 -226.902)" fill="#849d8b"/>
    <path id="Trazado_1825" data-name="Trazado 1825" d="M183.829,379.849h.07a1.16,1.16,0,0,0,1.088-1.222,418.165,418.165,0,0,0-21.779-111.355,1.14,1.14,0,0,0-1.464-.722,1.157,1.157,0,0,0-.721,1.47,415.771,415.771,0,0,1,21.65,110.741,1.161,1.161,0,0,0,1.158,1.088" transform="translate(206.818 -193.045)" fill="#849d8b"/>
    <path id="Trazado_1829" data-name="Trazado 1829" d="M162.249,302.939h.016a1.158,1.158,0,0,0,1.141-1.169l-.156-11.732a1.234,1.234,0,0,0-1.168-1.142,1.151,1.151,0,0,0-1.141,1.169l.151,11.732a1.159,1.159,0,0,0,1.158,1.142" transform="translate(228.506 -94.786)" fill="#849d8b"/>
    <path id="Trazado_1830" data-name="Trazado 1830" d="M166.581,403.017a1.149,1.149,0,0,0,1.141-1,331.761,331.761,0,0,0-6.014-123.464,1.185,1.185,0,0,0-1.394-.856,1.168,1.168,0,0,0-.856,1.4,329.526,329.526,0,0,1,5.982,122.6,1.143,1.143,0,0,0,.98,1.3.818.818,0,0,0,.162.016" transform="translate(229.149 -143.985)" fill="#849d8b"/>
    <path id="Trazado_1832" data-name="Trazado 1832" d="M161.323,310.982a1.156,1.156,0,0,0,1.147-1.012l.867-6.919a1.156,1.156,0,0,0-2.294-.291l-.867,6.919a1.157,1.157,0,0,0,1,1.292l.145.011" transform="translate(232.727 -38.435)" fill="#849d8b"/>
    <path id="Trazado_1834" data-name="Trazado 1834" d="M159.212,378.131a1.156,1.156,0,0,0,1.131-.921,548.208,548.208,0,0,0,10.784-83.987,1.161,1.161,0,0,0-1.1-1.217h-.059a1.158,1.158,0,0,0-1.158,1.1,546.491,546.491,0,0,1-10.731,83.637,1.161,1.161,0,0,0,.894,1.367,1.811,1.811,0,0,0,.237.022" transform="translate(236.308 -81.156)" fill="#849d8b"/>
    <path id="Trazado_1823" data-name="Trazado 1823" d="M171.288,363.665l.135-.011a1.149,1.149,0,0,0,1.012-1.282c-2.875-24.686-4.6-49.76-5.12-74.533a1.157,1.157,0,0,0-1.158-1.131h-.022A1.156,1.156,0,0,0,165,287.888c.528,24.848,2.251,50,5.142,74.754a1.157,1.157,0,0,0,1.147,1.023" transform="translate(197.612 -104.379)" fill="#849d8b"/>
    <path id="Trazado_1826" data-name="Trazado 1826" d="M166.714,309.185a1.049,1.049,0,0,0,.183-.016,1.152,1.152,0,0,0,.958-1.324l-.84-5.126a1.171,1.171,0,0,0-1.324-.958,1.158,1.158,0,0,0-.958,1.33l.84,5.126a1.164,1.164,0,0,0,1.141.969" transform="translate(203.705 -38.431)" fill="#849d8b"/>
    <path id="Trazado_1819" data-name="Trazado 1819" d="M168.33,304.565a.474.474,0,0,0,.124-.011,1.144,1.144,0,0,0,1.023-1.271,146.676,146.676,0,0,1-.35-28.057,1.155,1.155,0,0,0-1.061-1.249,1.116,1.116,0,0,0-1.244,1.061,148.664,148.664,0,0,0,.361,28.5,1.154,1.154,0,0,0,1.147,1.028" transform="translate(193.533 -160.252)" fill="#849d8b"/>
    <path id="Trazado_1820" data-name="Trazado 1820" d="M168.044,288.261a.934.934,0,0,0,.167-.016,1.145,1.145,0,0,0,.975-1.308l-.824-5.723a1.125,1.125,0,0,0-1.308-.974,1.152,1.152,0,0,0-.98,1.308l.829,5.723a1.149,1.149,0,0,0,1.141.991" transform="translate(195.138 -132.798)" fill="#849d8b"/>
    <path id="Trazado_1809" data-name="Trazado 1809" d="M569.8,656.614a472.677,472.677,0,0,0,126.764-17.122,4.624,4.624,0,0,0,.8-8.6c-92.586-45.582-188.607-92.43-281.473-137.737-92.984-45.372-189.129-92.284-281.839-137.931a4.625,4.625,0,0,0-6.321,5.906C171.4,467.7,255.768,557.853,359.214,608.48c65.084,31.842,137.9,48.134,210.585,48.134m112.383-22.888c-105.621,26.307-221.148,14.279-318.9-33.559C265.551,552.345,185.187,468.541,141.15,369.025c89.253,43.913,181.43,88.887,270.688,132.439,89.151,43.493,181.214,88.413,270.344,132.262" transform="translate(-127.388 193.937)" fill="#849d8b"/>
    <path id="Trazado_1810" data-name="Trazado 1810" d="M693.445,635.478a2.312,2.312,0,0,0,.409-4.587C481.121,592.416,297.231,502.42,131.663,355.766a2.311,2.311,0,1,0-3.064,3.462c166.214,147.23,350.842,237.581,564.431,276.212a2.7,2.7,0,0,0,.415.038" transform="translate(-125.503 195.814)" fill="#849d8b"/>
    <path id="Trazado_1818" data-name="Trazado 1818" d="M373.131,493.315a1.157,1.157,0,0,0,.506-2.2A813.065,813.065,0,0,1,189.983,368.779a1.158,1.158,0,0,0-1.534,1.734A815.612,815.612,0,0,0,372.625,493.2a1.126,1.126,0,0,0,.506.118" transform="translate(-128.41 254.163)" fill="#849d8b"/>
    <path id="Trazado_1837" data-name="Trazado 1837" d="M203.122,403.975a1.156,1.156,0,0,0,.458-2.218l-21.031-9.094a1.156,1.156,0,1,0-.921,2.121l21.03,9.094a1.172,1.172,0,0,0,.463.1" transform="translate(80.004 359.73)" fill="#849d8b"/>
    <path id="Trazado_1833" data-name="Trazado 1833" d="M383.06,489.348a1.157,1.157,0,0,0,.291-2.278A644.236,644.236,0,0,1,166.424,384.083a1.153,1.153,0,1,0-1.368,1.858A646.6,646.6,0,0,0,382.77,489.311a1.349,1.349,0,0,0,.291.038" transform="translate(-11.931 321.511)" fill="#849d8b"/>
    <path id="Trazado_1842" data-name="Trazado 1842" d="M174.109,409.606a1.157,1.157,0,0,0,.307-2.272L161.289,403.7a1.185,1.185,0,0,0-1.421.807,1.157,1.157,0,0,0,.808,1.421l13.127,3.634a1.2,1.2,0,0,0,.307.043" transform="translate(222.644 408.377)" fill="#849d8b"/>
    <path id="Trazado_1841" data-name="Trazado 1841" d="M312.192,445.99a1.154,1.154,0,0,0,.215-2.288A1066.809,1066.809,0,0,1,153.4,400.22a1.164,1.164,0,0,0-1.475.7,1.151,1.151,0,0,0,.7,1.481,1068.914,1068.914,0,0,0,159.355,43.568.974.974,0,0,0,.215.022" transform="translate(127.499 392.98)" fill="#849d8b"/>
    <path id="Trazado_1831" data-name="Trazado 1831" d="M292.637,449.542a1.143,1.143,0,0,0,1.007-.592,1.156,1.156,0,0,0-.441-1.572c-42.384-23.75-86.394-45.733-130.819-65.337a1.156,1.156,0,0,0-.931,2.116c44.349,19.577,88.3,41.523,130.619,65.234a1.075,1.075,0,0,0,.565.151" transform="translate(99.087 313.14)" fill="#849d8b"/>
    <path id="Trazado_1838" data-name="Trazado 1838" d="M166.9,402.85a1.157,1.157,0,0,0,.608-2.137l-8.6-5.357a1.155,1.155,0,1,0-1.222,1.96l8.609,5.357a1.1,1.1,0,0,0,.608.178" transform="translate(244.355 371.182)" fill="#849d8b"/>
    <path id="Trazado_1821" data-name="Trazado 1821" d="M250.151,395.807a1.157,1.157,0,0,0,.555-2.17,290.594,290.594,0,0,0-50.918-21.967,1.156,1.156,0,1,0-.705,2.2,288.285,288.285,0,0,1,50.514,21.79,1.082,1.082,0,0,0,.555.145" transform="translate(-60.429 267.877)" fill="#849d8b"/>
    <path id="Trazado_1827" data-name="Trazado 1827" d="M205.587,384.7a1.171,1.171,0,0,0,1-.565,1.159,1.159,0,0,0-.4-1.583l-9.7-5.793a1.158,1.158,0,0,0-1.179,1.992l9.7,5.788a1.167,1.167,0,0,0,.592.162" transform="translate(3.243 289.728)" fill="#849d8b"/>
    <path id="Trazado_1795" data-name="Trazado 1795" d="M530.685,636.986a397.461,397.461,0,0,0,56.006-3.941,4.624,4.624,0,0,0,1.917-8.426C515.179,575.693,438.977,525.313,365.284,476.6s-149.879-99.09-223.3-148.01a4.626,4.626,0,0,0-7.037,5.034c25.209,95.278,86.787,181.16,168.933,235.616,66.548,44.107,146.837,67.749,226.8,67.749m42.454-11.554C481.464,635.462,385.857,612.467,309,561.522c-76.837-50.928-135.255-129.984-161.729-218.3,70.2,46.74,142.7,94.669,212.911,141.086,70.231,46.433,142.75,94.373,212.959,141.124" transform="translate(-57.995 75.823)" fill="#849d8b"/>
    <path id="Trazado_1796" data-name="Trazado 1796" d="M584.156,628.9a2.314,2.314,0,0,0,.705-4.517C408.977,568.2,263.223,471.6,139.28,329.04a2.311,2.311,0,1,0-3.483,3.037C260.31,475.29,406.737,572.344,583.45,628.792a2.491,2.491,0,0,0,.705.108" transform="translate(-56.111 77.701)" fill="#849d8b"/>
    <path id="Trazado_1801" data-name="Trazado 1801" d="M327.956,467.2a1.154,1.154,0,0,0,.635-2.121A694.512,694.512,0,0,1,186.622,341.1a1.156,1.156,0,1,0-1.744,1.519,697.138,697.138,0,0,0,142.443,124.4,1.194,1.194,0,0,0,.635.189" transform="translate(-64.547 132.354)" fill="#849d8b"/>
    <path id="Trazado_1817" data-name="Trazado 1817" d="M196.849,377.6a1.155,1.155,0,0,0,.592-2.148l-16.809-10.041a1.157,1.157,0,0,0-1.185,1.987l16.809,10.041a1.166,1.166,0,0,0,.592.162" transform="translate(97.293 239.966)" fill="#849d8b"/>
    <path id="Trazado_1811" data-name="Trazado 1811" d="M339.818,469.469a1.151,1.151,0,0,0,1.071-.722,1.165,1.165,0,0,0-.635-1.508A550.17,550.17,0,0,1,167.962,355.956a1.154,1.154,0,1,0-1.594,1.669A552.531,552.531,0,0,0,339.382,469.383a1.124,1.124,0,0,0,.436.086" transform="translate(23.644 197.811)" fill="#849d8b"/>
    <path id="Trazado_1828" data-name="Trazado 1828" d="M174,384a1.158,1.158,0,0,0,.452-2.224l-10.714-4.533a1.158,1.158,0,0,0-.9,2.132l10.714,4.533A1.133,1.133,0,0,0,174,384" transform="translate(210.384 292.15)" fill="#849d8b"/>
    <path id="Trazado_1822" data-name="Trazado 1822" d="M286.981,428.9a1.157,1.157,0,0,0,.361-2.256A910.135,910.135,0,0,1,157.487,372.18a1.158,1.158,0,1,0-1.055,2.062,913.381,913.381,0,0,0,130.189,54.6,1.035,1.035,0,0,0,.361.059" transform="translate(131.443 269.794)" fill="#849d8b"/>
    <path id="Trazado_1812" data-name="Trazado 1812" d="M266.429,428.349a1.155,1.155,0,0,0,.689-2.084c-33.29-24.832-68.142-48.344-103.586-69.875a1.158,1.158,0,0,0-1.2,1.981c35.385,21.488,70.172,44.958,103.408,69.746a1.141,1.141,0,0,0,.689.231" transform="translate(119.825 200.403)" fill="#849d8b"/>
    <path id="Trazado_1835" data-name="Trazado 1835" d="M166.793,378.166a1.158,1.158,0,0,0,.738-2.051l-6.7-5.492a1.155,1.155,0,0,0-1.465,1.788l6.692,5.492a1.169,1.169,0,0,0,.738.264" transform="translate(234.746 262.366)" fill="#849d8b"/>
    <path id="Trazado_1805" data-name="Trazado 1805" d="M233.207,371.438a1.158,1.158,0,0,0,.689-2.089,248.187,248.187,0,0,0-40.726-24.272,1.155,1.155,0,0,0-.985,2.089,246.2,246.2,0,0,1,40.338,24.046,1.121,1.121,0,0,0,.684.226" transform="translate(-7.099 151.035)" fill="#849d8b"/>
    <path id="Trazado_1807" data-name="Trazado 1807" d="M197.47,358.724a1.153,1.153,0,0,0,.716-2.062l-7.576-5.987a1.157,1.157,0,0,0-1.438,1.815l7.581,5.987a1.146,1.146,0,0,0,.716.248" transform="translate(43.644 174.975)" fill="#849d8b"/>
    <path id="Trazado_1779" data-name="Trazado 1779" d="M485.815,564.562a339.918,339.918,0,0,0,51.726-3.925,4.63,4.63,0,0,0,1.82-8.453c-63-40.952-128.369-83.115-191.59-123.889-63.35-40.86-128.864-83.115-191.988-124.158a4.627,4.627,0,0,0-6.978,5.115c22.446,81.139,75.873,153.9,146.567,199.612,56.167,36.321,123.437,55.7,190.443,55.7m38.044-11.414c-77.333,8.916-158.111-9.788-223.469-52.049-65.326-42.244-115.5-108.211-139.11-182.361,59.872,38.89,121.633,78.732,181.478,117.331,59.721,38.518,121.359,78.275,181.1,117.078" transform="translate(-83.312 -31.24)" fill="#849d8b"/>
    <path id="Trazado_1780" data-name="Trazado 1780" d="M534.956,556.5a2.313,2.313,0,0,0,.678-4.523C385.228,505.8,260.1,424.88,153.107,304.6a2.313,2.313,0,1,0-3.457,3.074C257.226,428.606,383.037,509.966,534.278,556.393a2.282,2.282,0,0,0,.678.1" transform="translate(-81.427 -29.359)" fill="#849d8b"/>
    <path id="Trazado_1789" data-name="Trazado 1789" d="M314.944,421.214a1.156,1.156,0,0,0,.625-2.127A592.011,592.011,0,0,1,193.386,314.8a1.154,1.154,0,1,0-1.723,1.535,593.978,593.978,0,0,0,122.656,104.7,1.153,1.153,0,0,0,.625.183" transform="translate(-88.029 17.051)" fill="#849d8b"/>
    <path id="Trazado_1799" data-name="Trazado 1799" d="M202.055,345.759a1.155,1.155,0,0,0,.581-2.154l-14.429-8.388a1.137,1.137,0,0,0-1.578.415,1.151,1.151,0,0,0,.415,1.578l14.43,8.394a1.136,1.136,0,0,0,.582.156" transform="translate(51.237 107.566)" fill="#849d8b"/>
    <path id="Trazado_1797" data-name="Trazado 1797" d="M324.816,422.724a1.154,1.154,0,0,0,.42-2.229,469.149,469.149,0,0,1-147.881-93.173,1.156,1.156,0,0,0-1.578,1.691A471.223,471.223,0,0,0,324.4,422.643a1.143,1.143,0,0,0,.42.081" transform="translate(-11.959 72.312)" fill="#849d8b"/>
    <path id="Trazado_1808" data-name="Trazado 1808" d="M182.418,351.106a1.154,1.154,0,0,0,.436-2.224l-9.18-3.764a1.142,1.142,0,0,0-1.508.63,1.158,1.158,0,0,0,.63,1.508l9.185,3.763a1.125,1.125,0,0,0,.436.086" transform="translate(148.358 151.295)" fill="#849d8b"/>
    <path id="Trazado_1802" data-name="Trazado 1802" d="M279.171,388.371a1.155,1.155,0,0,0,.35-2.256,776.641,776.641,0,0,1-111.2-45.168,1.174,1.174,0,0,0-1.551.522,1.154,1.154,0,0,0,.522,1.551,779.036,779.036,0,0,0,111.522,45.3,1.163,1.163,0,0,0,.355.054" transform="translate(80.846 132.912)" fill="#849d8b"/>
    <path id="Trazado_1798" data-name="Trazado 1798" d="M261.926,388.18a1.155,1.155,0,0,0,.684-2.089c-28.638-20.864-58.58-40.57-89-58.574a1.135,1.135,0,0,0-1.578.409,1.147,1.147,0,0,0,.4,1.578c30.35,17.972,60.232,37.635,88.806,58.456a1.2,1.2,0,0,0,.684.221" transform="translate(69.991 73.786)" fill="#849d8b"/>
    <path id="Trazado_1814" data-name="Trazado 1814" d="M176.351,346.125a1.155,1.155,0,0,0,.721-2.057l-5.766-4.62a1.157,1.157,0,0,0-1.443,1.809l5.766,4.614a1.135,1.135,0,0,0,.721.253" transform="translate(168.714 125.738)" fill="#849d8b"/>
    <path id="Trazado_1792" data-name="Trazado 1792" d="M233.357,340.45a1.157,1.157,0,0,0,.673-2.094,211.282,211.282,0,0,0-34.975-20.32,1.139,1.139,0,0,0-1.534.565,1.156,1.156,0,0,0,.565,1.534,209.057,209.057,0,0,1,34.6,20.1,1.149,1.149,0,0,0,.673.215" transform="translate(-38.979 32.468)" fill="#849d8b"/>
    <path id="Trazado_1794" data-name="Trazado 1794" d="M202.692,329.835a1.136,1.136,0,0,0,.915-.452,1.157,1.157,0,0,0-.21-1.621l-6.515-5.023a1.156,1.156,0,1,0-1.411,1.831l6.515,5.029a1.149,1.149,0,0,0,.705.237" transform="translate(4.582 52.505)" fill="#849d8b"/>
    <path id="Trazado_1775" data-name="Trazado 1775" d="M422.009,525.2a4.62,4.62,0,0,0,3.134-8.017c-41.959-38.76-84.811-78.076-127.669-117.391-42.3-38.8-86.033-78.91-128.132-117.805a4.626,4.626,0,0,0-7.742,3.86c6.456,63.991,37.307,125.65,84.65,169.181S357.631,524.138,421.928,525.2ZM172.378,297.384c39.229,36.2,79.648,73.278,118.834,109.228,39.708,36.418,79.416,72.842,118.4,108.819-57.81-3.893-114.467-28.014-157.1-67.21-42.616-39.18-71.394-93.576-80.132-150.837" transform="translate(-38.141 -130.469)" fill="#849d8b"/>
    <path id="Trazado_1776" data-name="Trazado 1776" d="M420.125,521.005a2.314,2.314,0,0,0,1.044-4.378C314.4,462.765,231.023,386.105,166.278,282.272a2.311,2.311,0,0,0-3.92,2.45C227.561,389.293,311.537,466.5,419.08,520.758a2.345,2.345,0,0,0,1.045.248" transform="translate(-36.262 -128.586)" fill="#849d8b"/>
    <path id="Trazado_1781" data-name="Trazado 1781" d="M271.242,386.368a1.146,1.146,0,0,0,.856-.377,1.161,1.161,0,0,0-.076-1.631,450.453,450.453,0,0,1-78.194-93.819,1.171,1.171,0,0,0-1.594-.366,1.153,1.153,0,0,0-.366,1.594,452.7,452.7,0,0,0,78.592,94.3,1.14,1.14,0,0,0,.781.3" transform="translate(-46.055 -89.937)" fill="#849d8b"/>
    <path id="Trazado_1788" data-name="Trazado 1788" d="M199.274,319.143a1.155,1.155,0,0,0,.738-2.041l-9.74-8.146a1.154,1.154,0,1,0-1.481,1.771l9.74,8.146a1.179,1.179,0,0,0,.743.269" transform="translate(43.762 -8.04)" fill="#849d8b"/>
    <path id="Trazado_1782" data-name="Trazado 1782" d="M281.412,392.246a1.155,1.155,0,0,0,.6-2.143,356.516,356.516,0,0,1-98.858-88.763,1.157,1.157,0,1,0-1.841,1.4,358.71,358.71,0,0,0,99.5,89.339,1.155,1.155,0,0,0,.6.167" transform="translate(0.938 -42.227)" fill="#849d8b"/>
    <path id="Trazado_1800" data-name="Trazado 1800" d="M186.308,324.437a1.157,1.157,0,0,0,.614-2.138l-6.4-4a1.171,1.171,0,0,0-1.594.366,1.157,1.157,0,0,0,.361,1.594l6.4,4a1.173,1.173,0,0,0,.614.178" transform="translate(108.534 33.4)" fill="#849d8b"/>
    <path id="Trazado_1790" data-name="Trazado 1790" d="M253.989,363.77a1.156,1.156,0,0,0,.533-2.181,590.773,590.773,0,0,1-77.553-48.107,1.152,1.152,0,0,0-1.362,1.858,592.327,592.327,0,0,0,77.849,48.3,1.178,1.178,0,0,0,.533.129" transform="translate(60.36 11.986)" fill="#849d8b"/>
    <path id="Trazado_1791" data-name="Trazado 1791" d="M237.944,360.592a1.149,1.149,0,0,0,.808-.328,1.162,1.162,0,0,0,.022-1.637c-18.8-19.313-38.728-37.937-59.237-55.349a1.157,1.157,0,0,0-1.5,1.766c20.454,17.364,40.327,35.934,59.075,55.2a1.158,1.158,0,0,0,.829.35" transform="translate(62.938 -32.922)" fill="#849d8b"/>
    <path id="Trazado_1804" data-name="Trazado 1804" d="M180.921,320.7a1.155,1.155,0,0,0,.861-1.922l-3.726-4.2a1.157,1.157,0,0,0-1.631-.1,1.169,1.169,0,0,0-.1,1.637l3.737,4.2a1.14,1.14,0,0,0,.861.388" transform="translate(128.555 16.073)" fill="#849d8b"/>
    <path id="Trazado_1783" data-name="Trazado 1783" d="M219.312,315.874a1.158,1.158,0,0,0,.824-1.971,160.92,160.92,0,0,0-23.663-19.749,1.154,1.154,0,0,0-1.3,1.906,158.771,158.771,0,0,1,23.319,19.469,1.15,1.15,0,0,0,.824.345" transform="translate(-10.137 -72.623)" fill="#849d8b"/>
    <path id="Trazado_1784" data-name="Trazado 1784" d="M198.49,305.273a1.143,1.143,0,0,0,.786-.307,1.163,1.163,0,0,0,.065-1.637l-4.243-4.6a1.154,1.154,0,1,0-1.7,1.567l4.237,4.6a1.168,1.168,0,0,0,.851.371" transform="translate(19.143 -53.304)" fill="#849d8b"/>
    <path id="Trazado_1806" data-name="Trazado 1806" d="M400.074,935.381a4.511,4.511,0,0,0,1.184-.156,4.616,4.616,0,0,0,3.29-5.648c-58.542-222.435-152.808-438.221-272.6-624.028a4.625,4.625,0,1,0-7.775,5.013c119.275,185,213.137,399.87,271.437,621.374a4.617,4.617,0,0,0,4.464,3.446" transform="translate(189.135 -31.047)" fill="#849d8b"/>
    <path id="Trazado_1772" data-name="Trazado 1772" d="M408.343,534.48a4.635,4.635,0,0,0,4.587-5.25c-8.728-63.969-35.783-125.386-76.18-172.939A338.69,338.69,0,0,0,179.942,253.045a4.623,4.623,0,0,0-5.04,7.22c22.188,29.134,42.33,59.888,61.815,89.63,12.572,19.184,25.569,39.03,39.089,58.418,30.119,43.181,72.158,96.495,130.469,125.677a4.629,4.629,0,0,0,2.068.49M191.114,266.511A329.791,329.791,0,0,1,329.7,362.279c37.382,44,63.011,100.231,72.708,159.22-52.35-29-90.938-78.215-119.017-118.478-13.444-19.275-26.4-39.062-38.944-58.192-16.955-25.892-34.415-52.544-53.335-78.318" transform="translate(-91.152 -252.845)" fill="#849d8b"/>
    <path id="Trazado_1773" data-name="Trazado 1773" d="M402.563,527.145a1.158,1.158,0,0,0,.872-1.917c-28.132-32.251-54.294-67.873-79.594-102.32-44.026-59.942-89.555-121.924-147.353-168.922a1.158,1.158,0,0,0-1.459,1.8c57.567,46.8,103.009,108.668,146.95,168.492,25.327,34.491,51.516,70.145,79.712,102.471a1.162,1.162,0,0,0,.872.4" transform="translate(-85.366 -248.982)" fill="#849d8b"/>
    <path id="Trazado_1785" data-name="Trazado 1785" d="M287.757,415.932a1.179,1.179,0,0,0,.668-.21,1.157,1.157,0,0,0,.275-1.615c-34.459-48.684-71.286-96.592-109.449-142.389a1.158,1.158,0,0,0-1.777,1.486c38.125,45.749,74.91,93.6,109.341,142.238a1.157,1.157,0,0,0,.942.49" transform="translate(15.424 -171.921)" fill="#849d8b"/>
    <path id="Trazado_1778" data-name="Trazado 1778" d="M215.555,284.731a1.161,1.161,0,0,0,.765-.291,1.146,1.146,0,0,0,.1-1.626L201.788,266.1a1.158,1.158,0,1,0-1.739,1.529l14.639,16.707a1.148,1.148,0,0,0,.867.393" transform="translate(-33.83 -196.43)" fill="#849d8b"/>
    <path id="Trazado_1786" data-name="Trazado 1786" d="M241.782,340.265a1.174,1.174,0,0,0,.743-.264,1.161,1.161,0,0,0,.145-1.632l-51.252-61.4a1.156,1.156,0,1,0-1.777,1.481l51.252,61.4a1.159,1.159,0,0,0,.888.415" transform="translate(-4.115 -148.901)" fill="#849d8b"/>
    <path id="Trazado_1793" data-name="Trazado 1793" d="M197.021,305.641a1.168,1.168,0,0,0,.743-.269,1.155,1.155,0,0,0,.14-1.631L187.26,291.088a1.158,1.158,0,0,0-1.771,1.491l10.65,12.653a1.152,1.152,0,0,0,.883.409" transform="translate(63.022 -86.968)" fill="#849d8b"/>
    <path id="Trazado_1787" data-name="Trazado 1787" d="M243.524,352.975a1.116,1.116,0,0,0,.56-.145,1.157,1.157,0,0,0,.452-1.572,375.076,375.076,0,0,0-59.829-80.525,1.156,1.156,0,1,0-1.653,1.615,372.874,372.874,0,0,1,59.457,80.03,1.151,1.151,0,0,0,1.012.6" transform="translate(29.937 -175.949)" fill="#849d8b"/>
    <path id="Trazado_1777" data-name="Trazado 1777" d="M236.926,294.163a1.158,1.158,0,0,0,.792-2,223.058,223.058,0,0,0-39.886-29.742,1.145,1.145,0,0,0-1.583.414,1.157,1.157,0,0,0,.415,1.578,220.783,220.783,0,0,1,39.471,29.44,1.142,1.142,0,0,0,.791.312" transform="translate(-35.435 -211.601)" fill="#849d8b"/>
    <path id="Trazado_1880" data-name="Trazado 1880" d="M128.833,676.467c43.116,0,78.856-36.16,92.381-73.149,15.016-41.1,10.6-86.033,5.271-124.928q-.921-6.768-1.9-13.552c-5.066-35.821-10.311-72.864-4.248-108.448a4.622,4.622,0,0,0-8.485-3.214c-13.886,22.393-34.642,38.863-56.614,56.3-16.89,13.4-34.356,27.26-48.21,43.989A158.9,158.9,0,0,0,71.292,566.146c3.37,43.4,22.172,84.16,50.3,109.04a4.632,4.632,0,0,0,2.794,1.152q2.237.129,4.447.129m-4.178-4.749h0Zm84.37-298.869c-2.391,31.18,2.073,62.666,6.407,93.281q.961,6.768,1.89,13.514c5.174,37.791,9.5,81.392-4.8,120.492-12.647,34.6-46.207,68.39-86.012,67.043-25.7-23.421-42.858-61.309-46-101.744a149.552,149.552,0,0,1,33.64-106.079c13.229-15.98,30.313-29.532,46.826-42.637,16.9-13.406,34.238-27.163,48.043-43.87" transform="translate(645.586 177.417)" fill="#849d8b"/>
    <path id="Trazado_1897" data-name="Trazado 1897" d="M75.611,670.855a2.316,2.316,0,0,0,2.272-1.9,1582.709,1582.709,0,0,1,91.2-314.305,2.31,2.31,0,1,0-4.28-1.739A1587.554,1587.554,0,0,0,73.328,668.13a2.322,2.322,0,0,0,1.868,2.687,2.7,2.7,0,0,0,.415.038" transform="translate(694.565 179.519)" fill="#849d8b"/>
    <path id="Trazado_1906" data-name="Trazado 1906" d="M76.4,422.8a1.149,1.149,0,0,0,.754-.28l50.659-43.644a1.155,1.155,0,1,0-1.508-1.75L75.642,420.768a1.155,1.155,0,0,0,.754,2.03" transform="translate(725.127 290.792)" fill="#849d8b"/>
    <path id="Trazado_1901" data-name="Trazado 1901" d="M76.256,448.518a1.173,1.173,0,0,0,.641-.194c25.284-16.847,50.148-35.019,73.9-54a1.155,1.155,0,1,0-1.443-1.8c-23.7,18.936-48.511,37.065-73.741,53.879a1.155,1.155,0,0,0,.641,2.116" transform="translate(702.852 358.405)" fill="#849d8b"/>
    <path id="Trazado_1895" data-name="Trazado 1895" d="M112.525,470.513a1.123,1.123,0,0,0,.3-.043,1.148,1.148,0,0,0,.818-1.411l-23.7-88.445a1.154,1.154,0,1,0-2.229.6l23.7,88.445a1.149,1.149,0,0,0,1.115.856" transform="translate(672.732 303.562)" fill="#849d8b"/>
    <path id="Trazado_1907" data-name="Trazado 1907" d="M91.943,426.209a1.837,1.837,0,0,0,.237-.021,1.158,1.158,0,0,0,.894-1.368,422.753,422.753,0,0,1-7.78-55.866,1.064,1.064,0,0,0-1.233-1.072,1.146,1.146,0,0,0-1.066,1.233,424.437,424.437,0,0,0,7.812,56.173,1.166,1.166,0,0,0,1.136.921" transform="translate(718.501 251.377)" fill="#849d8b"/>
    <path id="Trazado_1891" data-name="Trazado 1891" d="M99.486,403.978a.968.968,0,0,0,.215-.021,1.153,1.153,0,0,0,.921-1.351l-5.949-30.954a1.137,1.137,0,0,0-1.351-.915,1.15,1.15,0,0,0-.915,1.351l5.944,30.953a1.153,1.153,0,0,0,1.136.937" transform="translate(660.384 263.878)" fill="#849d8b"/>
    <path id="Trazado_1899" data-name="Trazado 1899" d="M95.475,404.575a1.3,1.3,0,0,0,.285-.038,1.155,1.155,0,0,0,.835-1.405,235.807,235.807,0,0,1-5.637-30.361,1.2,1.2,0,0,0-1.281-1.007,1.153,1.153,0,0,0-1.012,1.281A237.629,237.629,0,0,0,94.356,403.7a1.155,1.155,0,0,0,1.12.872" transform="translate(684.467 268.504)" fill="#849d8b"/>
    <path id="Trazado_1904" data-name="Trazado 1904" d="M92.089,399.752a1.677,1.677,0,0,0,.232-.021,1.162,1.162,0,0,0,.9-1.368l-3.613-17.687a1.179,1.179,0,0,0-1.368-.9,1.162,1.162,0,0,0-.9,1.368l3.613,17.687a1.161,1.161,0,0,0,1.136.926" transform="translate(695.068 303.527)" fill="#849d8b"/>
    <path id="Trazado_1916" data-name="Trazado 1916" d="M72.819,414.644a1.242,1.242,0,0,0,.63-.178,197.583,197.583,0,0,0,36-29.511,1.154,1.154,0,1,0-1.664-1.6,194.3,194.3,0,0,1-35.589,29.155,1.158,1.158,0,0,0,.625,2.132" transform="translate(762.801 317.785)" fill="#849d8b"/>
    <path id="Trazado_1910" data-name="Trazado 1910" d="M81.26,401.536a1.241,1.241,0,0,0,.49-.107,64.391,64.391,0,0,0,15.1-9.81,1.155,1.155,0,0,0-1.513-1.745,62.4,62.4,0,0,1-14.564,9.46,1.156,1.156,0,0,0-.56,1.534,1.168,1.168,0,0,0,1.05.667" transform="translate(729.911 346.689)" fill="#849d8b"/>
    <path id="Trazado_1912" data-name="Trazado 1912" d="M76.909,394.907a1.1,1.1,0,0,0,.576-.156,176.563,176.563,0,0,0,31.239-23.023,1.158,1.158,0,1,0-1.572-1.7,173.726,173.726,0,0,1-30.819,22.721,1.156,1.156,0,0,0,.576,2.159" transform="translate(741.482 259.565)" fill="#849d8b"/>
    <path id="Trazado_1892" data-name="Trazado 1892" d="M118.143,440.7a1.158,1.158,0,0,0,.867-1.922,192.9,192.9,0,0,1-26.824-39.261,1.159,1.159,0,1,0-2.062,1.061,195.639,195.639,0,0,0,27.152,39.73,1.138,1.138,0,0,0,.867.393" transform="translate(654.569 387.465)" fill="#849d8b"/>
    <path id="Trazado_1885" data-name="Trazado 1885" d="M102.63,410.024a1.114,1.114,0,0,0,.468-.1,1.152,1.152,0,0,0,.587-1.524l-5.713-12.755a1.157,1.157,0,1,0-2.111.948l5.713,12.744a1.151,1.151,0,0,0,1.055.689" transform="translate(639.052 370.204)" fill="#849d8b"/>
    <path id="Trazado_1913" data-name="Trazado 1913" d="M77.805,413.5a1.161,1.161,0,0,0,.641-.194L97.4,400.625a1.157,1.157,0,1,0-1.281-1.928L77.165,411.383a1.155,1.155,0,0,0,.641,2.116" transform="translate(747.833 385.763)" fill="#849d8b"/>
    <path id="Trazado_1908" data-name="Trazado 1908" d="M82.67,409.953a1.14,1.14,0,0,0,.625-.183l9.616-6.181a1.152,1.152,0,1,0-1.244-1.938l-9.621,6.176a1.157,1.157,0,0,0,.625,2.127" transform="translate(726.11 398.721)" fill="#849d8b"/>
    <path id="Trazado_1887" data-name="Trazado 1887" d="M107.61,456a1.026,1.026,0,0,0,.377-.065,1.154,1.154,0,0,0,.716-1.47,225.734,225.734,0,0,1-12.443-77.914,1.151,1.151,0,0,0-1.136-1.174,1.065,1.065,0,0,0-1.174,1.136,227.975,227.975,0,0,0,12.567,78.711,1.154,1.154,0,0,0,1.093.775" transform="translate(644.001 284.366)" fill="#849d8b"/>
    <path id="Trazado_1893" data-name="Trazado 1893" d="M98.506,407.609A1.159,1.159,0,0,0,99.566,406l-5.384-12.481a1.155,1.155,0,0,0-2.121.915l5.384,12.475a1.158,1.158,0,0,0,1.061.7" transform="translate(663.616 360.834)" fill="#849d8b"/>
    <path id="Trazado_1914" data-name="Trazado 1914" d="M85.213,400.018a.486.486,0,0,0,.124-.011,1.144,1.144,0,0,0,1.023-1.271l-3.715-33.721a1.063,1.063,0,0,0-1.276-1.023,1.148,1.148,0,0,0-1.018,1.276l3.715,33.721a1.154,1.154,0,0,0,1.147,1.028" transform="translate(739.494 234.306)" fill="#849d8b"/>
    <path id="Trazado_1919" data-name="Trazado 1919" d="M75.072,378.076a1.162,1.162,0,0,0,.84-.361l12.281-12.981a1.156,1.156,0,0,0-1.68-1.588L74.232,376.127a1.155,1.155,0,0,0,.84,1.949" transform="translate(771.952 229.139)" fill="#849d8b"/>
    <path id="Trazado_1917" data-name="Trazado 1917" d="M74.415,395.823a1.15,1.15,0,0,0,.673-.215,161.855,161.855,0,0,0,25.51-22.743,1.159,1.159,0,0,0-1.718-1.556,158.986,158.986,0,0,1-25.139,22.42,1.157,1.157,0,0,0,.673,2.094" transform="translate(763.09 264.84)" fill="#849d8b"/>
    <path id="Trazado_1915" data-name="Trazado 1915" d="M80.4,380.933a1.149,1.149,0,0,0,.705-.237l3.57-2.757a1.159,1.159,0,0,0,.215-1.621,1.14,1.14,0,0,0-1.621-.215L79.7,378.86a1.157,1.157,0,0,0-.21,1.621,1.145,1.145,0,0,0,.915.452" transform="translate(746.624 286.466)" fill="#849d8b"/>
  </g>
</svg>
