<svg id="Grupo_48" data-name="Grupo 48" xmlns="http://www.w3.org/2000/svg" xmlns:xlink="http://www.w3.org/1999/xlink" width="809.351" height="538.739" viewBox="0 0 809.351 538.739">
  <defs>
    <clipPath id="clip-path">
      <rect id="Rectángulo_25" data-name="Rectángulo 25" width="809.351" height="538.739" fill="none"/>
    </clipPath>
  </defs>
  <g id="Grupo_47" data-name="Grupo 47">
    <g id="Grupo_46" data-name="Grupo 46" clip-path="url(#clip-path)">
      <path id="Trazado_1920" data-name="Trazado 1920" d="M52.193,0c32.589,16.686,52.149,55.645,46.063,91.748-4.159,24.668-18.946,48.6-13.535,73.021,6,27.07,34.484,42.827,61.383,49.553s55.877,8.293,79.6,22.65c26.6,16.1,41.98,45.645,52.272,74.991s16.987,60.29,32.411,87.294c22.745,39.821,64.509,68.2,109.908,74.683,39.263,5.607,78.878-4.345,117.415-13.724s78.6-18.3,117.524-10.663,76.54,36.349,81.753,75.666L49.033,525Z" fill="#d4d6bd"/>
      <path id="Trazado_1921" data-name="Trazado 1921" d="M809.211,526.27c-12.977-34.2-39.825-62.281-72.909-77.711a136.836,136.836,0,0,0-52.478-12.847c-23.211-.907-46.23,3.807-68.436,10.16-43.012,12.307-85.128,31.261-130.711,30.693-20.8-.259-41.416-5.1-59.07-16.375-13.066-8.348-23.954-19.694-33.139-32.105-18.744-25.326-31.286-54.505-47.262-81.524-15.422-26.081-34.9-50.891-63.58-62.944-38.821-16.317-82.793-7.664-122.014-22.539-16.586-6.29-32.482-16.756-40.812-32.894-8.638-16.739-6.729-35.975-2.909-53.748,6.882-32.018,21.506-68.61-1.4-97.7-18.969-24.1-50.99-32.185-71.9-54.05A54.175,54.175,0,0,1,30.745,4.153C29.857,1.761,25.99,2.8,26.888,5.216c10.839,29.175,42.841,40.7,66.345,57.413,12.691,9.023,23.776,20.466,27.888,35.892,4.729,17.744.27,36.439-4.019,53.8-4.283,17.333-9.487,35.166-8.341,53.213a61.312,61.312,0,0,0,21.091,42.862c30.122,26.2,71.782,24.9,109.029,29.18,20.268,2.331,40.333,7.041,57.507,18.5,12.816,8.551,23.416,20.044,32.39,32.482,18.426,25.537,30.888,54.717,47.057,81.627,16.073,26.75,36.608,51.489,66.562,62.889,40.508,15.417,85.785,4.8,125.472-7.893,43.115-13.8,88.586-32.06,134.657-23.391,36.652,6.9,69.988,29.55,90.271,60.8a130.574,130.574,0,0,1,12.557,24.746c.9,2.384,4.773,1.35,3.857-1.063" fill="#c2c6a7"/>
      <path id="Trazado_1922" data-name="Trazado 1922" d="M0,104.256C11.033,136.818,38.781,163.21,71.856,172.6c29.186,8.284,63.609,4.989,86.178,25.264,22.253,19.99,22.91,55.451,12.534,83.507s-29.478,51.976-42.6,78.857-19.666,60.249-4.305,85.918c10.411,17.4,29.523,28.339,49.362,32.525s40.47,2.3,60.436-1.229c31.781-5.619,62.754-15.339,94.633-20.374s65.635-5.1,95.151,7.954,53.769,41.457,54.628,73.72l-436.158-.01.034-244.04C21.286,235.509,6.749,166.509,0,104.256" fill="#c2c6a7"/>
    </g>
  </g>
</svg>
