<svg xmlns="http://www.w3.org/2000/svg" width="252.5" height="88.452" viewBox="0 0 252.5 88.452">
  <g id="Grupo_4" data-name="Grupo 4" transform="translate(-48.5 -21.548)">
    <text id="Last_Time" data-name="Last Time" transform="translate(48.5 81)" fill="#707070" font-size="37" font-family="Montserrat-SemiBold, Montserrat" font-weight="600"><tspan x="0" y="0" fill="#000">Last</tspan><tspan y="0" xml:space="preserve" fill="#707070" font-family="Montserrat-Regular, Montserrat" font-weight="400"> Time</tspan></text>
    <text id="Dile_adiós_a_tus_implantes" data-name="Dile adiós a tus implantes" transform="translate(49 105)" fill="#707070" font-size="19" font-family="Montserrat-SemiBold, Montserrat" font-weight="600"><tspan x="0" y="0">Dile adiós a tus implantes</tspan></text>
    <g id="Polígono_1" data-name="Polígono 1" transform="translate(223.454 35.311) rotate(31)" fill="#fff">
      <path d="M 18.27882194519043 19.56800270080566 L 7.60278844833374 19.56800270080566 L 2.332388401031494 10.78400325775146 L 7.60278844833374 2.000003337860107 L 18.27882194519043 2.000003337860107 L 23.54922866821289 10.78400325775146 L 18.27882194519043 19.56800270080566 Z" stroke="none"/>
      <path d="M 8.735166549682617 4.000003814697266 L 4.664760589599609 10.78400325775146 L 8.735166549682617 17.56800270080566 L 17.14644622802734 17.56800270080566 L 21.21684646606445 10.78400325775146 L 17.14644622802734 4.000003814697266 L 8.735166549682617 4.000003814697266 M 6.470403671264648 3.814697265625e-06 L 19.41120529174805 3.814697265625e-06 L 25.88160514831543 10.78400325775146 L 19.41120529174805 21.56800270080566 L 6.470403671264648 21.56800270080566 L -5.7220458984375e-06 10.78400325775146 L 6.470403671264648 3.814697265625e-06 Z" stroke="none" fill="#89cddf"/>
    </g>
    <g id="Polígono_2" data-name="Polígono 2" transform="translate(235.7 21.548) rotate(31)" fill="#fff">
      <path d="M 13.71896839141846 14.3165397644043 L 5.692239284515381 14.3165397644043 L 1.759893417358398 7.90826940536499 L 5.692239284515381 1.499999403953552 L 13.71896839141846 1.499999403953552 L 17.65131378173828 7.90826940536499 L 13.71896839141846 14.3165397644043 Z" stroke="none"/>
      <path d="M 6.53169059753418 2.999999046325684 L 3.51979923248291 7.90826940536499 L 6.53169059753418 12.8165397644043 L 12.8795166015625 12.8165397644043 L 15.89140796661377 7.90826940536499 L 12.8795166015625 2.999999046325684 L 6.53169059753418 2.999999046325684 M 4.852803230285645 -9.5367431640625e-07 L 14.55840301513672 -9.5367431640625e-07 L 19.41120338439941 7.90826940536499 L 14.55840301513672 15.8165397644043 L 4.852803230285645 15.8165397644043 L 3.814697265625e-06 7.90826940536499 L 4.852803230285645 -9.5367431640625e-07 Z" stroke="none" fill="#89cddf"/>
    </g>
  </g>
</svg>
